<mxfile host="65bd71144e">
    <diagram id="CrlaABpc5tIZ0NyDJd9L" name="Page-1">
        <mxGraphModel dx="653" dy="717" grid="1" gridSize="10" guides="1" tooltips="1" connect="1" arrows="1" fold="1" page="1" pageScale="1" pageWidth="850" pageHeight="1100" math="0" shadow="0">
            <root>
                <mxCell id="0"/>
                <mxCell id="1" parent="0"/>
                <mxCell id="93" value="" style="shape=image;verticalLabelPosition=bottom;labelBackgroundColor=default;verticalAlign=top;aspect=fixed;imageAspect=0;image=data:image/png,iVBORw0KGgoAAAANSUhEUgAAAZAAAAGMCAYAAAD0q/QsAAAKrWlDQ1BJQ0MgUHJvZmlsZQAASImVlwdUE1kXgN9MeqMFIp3Qm/QWQEroofdmIyQBQgkhEERsqCyuwIqiIoLKAq6CKLgqRWyIBQuLgmLXDbIoqOtiwYblH+AQ3P3P///nv+fcud/cue+++96ZN+cOABRltlCYDssBkCHIEYX7etBj4+LpuFGABWqAChSBLJuTLWSGhgYCRGbt3+XdLQBN2RtmU7n+/fl/FXkuL5sDABSKcCI3m5OB8DFEX3OEohwAUA2IX3dZjnCKexFWFCEFIiyZ4uQZfjvFidOMxk/HRIZ7IqwOAJ7MZouSASAbIX56LicZyUP2Q9hSwOULEM5D2DUjI5OLcAfCRkiMEOGp/IzE7/Ik/y1nojQnm50s5Zm1TAvei58tTGcv/z+3439LRrp4dg4DRMkpIr9wxKoie3YnLTNAyoLE4JBZ5nOn46c5RewXNcucbM/4WeayvQKkY9ODA2c5ie/DkubJYUXOMi/bO2KWRZnh0rmSRJ7MWWaL5uYVp0VJ/Sk8ljR/fkpkzCzn8qODZzk7LSJgLsZT6heJw6X18wS+HnPz+kjXnpH93Xr5LOnYnJRIP+na2XP18wTMuZzZsdLauDwv77mYKGm8MMdDOpcwPVQaz0v3lfqzcyOkY3OQF3JubKh0D1PZ/qGzDAKBL6CDKMRGgnDARO68kWs4MAUgh5eXM7Ugz0zhchE/OSWHzkROGo/OEnDM59OtLa1tAZg6tzOvxRva9HmEaFfmfAUnAHA2RqB+zheMnPpW5EyRauZ8RiQAZBG9+IwjFuXO+NBTFwwgAlnke6ACNIEuMAJmwBrYA2fgjlTpD0KQmuPAEsABKSADiMAysBKsBUWgBGwG20EVqAH1oAEcAkdAOzgJzoKL4Cq4DgbBfSABI+A5GAfvwCQEQTiIAlEhFUgL0odMIWuIAblC3lAgFA7FQQlQMiSAxNBKaD1UApVDVVAt1Aj9Ch2HzkKXoX7oLjQEjUGvoU8wCibDirAGbABbwAyYCQfAkfBiOBnOgvPhQngTXAnXwQfhNvgsfBUehCXwc3gCBVAkFA2ljTJDMVCeqBBUPCoJJUKtRhWjKlB1qGZUJ6oHdQMlQb1AfURj0VQ0HW2Gdkb7oaPQHHQWejW6FF2FbkC3oc+jb6CH0OPorxgKRh1jinHCsDCxmGTMMkwRpgKzD9OKuYAZxIxg3mGxWBrWEOuA9cPGYVOxK7Cl2N3YFmwXth87jJ3A4XAqOFOcCy4Ex8bl4IpwO3EHcWdwA7gR3Ac8Ca+Ft8b74OPxAvw6fAX+AP40fgD/FD9JkCPoE5wIIQQuYTmhjLCX0Em4RhghTBLliYZEF2IkMZW4llhJbCZeID4gviGRSDokR1IYiU8qIFWSDpMukYZIH8kKZBOyJ3kRWUzeRN5P7iLfJb+hUCgGFHdKPCWHsonSSDlHeUT5IEOVMZdhyXBl1shUy7TJDMi8lCXI6ssyZZfI5stWyB6VvSb7Qo4gZyDnKceWWy1XLXdc7rbchDxV3ko+RD5DvlT+gPxl+VEFnIKBgrcCV6FQoV7hnMIwFUXVpXpSOdT11L3UC9QRRayioSJLMVWxRPGQYp/iuJKCkq1StFKeUrXSKSUJDUUzoLFo6bQy2hHaLdqneRrzmPN48zbOa543MO+9spqyuzJPuVi5RXlQ+ZMKXcVbJU1li0q7ykNVtKqJapjqMtU9qhdUX6gpqjmrcdSK1Y6o3VOH1U3Uw9VXqNer96pPaGhq+GoINXZqnNN4oUnTdNdM1dymeVpzTIuq5arF19qmdUbrGV2JzqSn0yvp5+nj2uraftpi7VrtPu1JHUOdKJ11Oi06D3WJugzdJN1tut2643paekF6K/Wa9O7pE/QZ+in6O/R79N8bGBrEGGwwaDcYNVQ2ZBnmGzYZPjCiGLkZZRnVGd00xhozjNOMdxtfN4FN7ExSTKpNrpnCpvamfNPdpv3zMfMd5wvm182/bUY2Y5rlmjWZDZnTzAPN15m3m7+00LOIt9hi0WPx1dLOMt1yr+V9KwUrf6t1Vp1Wr61NrDnW1dY3bSg2PjZrbDpsXtma2vJs99jesaPaBdltsOu2+2LvYC+yb7Yfc9BzSHDY5XCbocgIZZQyLjliHD0c1ziedPzoZO+U43TE6S9nM+c05wPOowsMF/AW7F0w7KLjwnapdZG40l0TXH92lbhpu7Hd6tweu+u6c933uT9lGjNTmQeZLz0sPUQerR7vPZ08V3l2eaG8fL2Kvfq8FbyjvKu8H/no+CT7NPmM+9r5rvDt8sP4Bfht8bvN0mBxWI2scX8H/1X+5wPIAREBVQGPA00CRYGdQXCQf9DWoAfB+sGC4PYQEMIK2RryMNQwNCv0RBg2LDSsOuxJuFX4yvCeCGrE0ogDEe8iPSLLIu9HGUWJo7qjZaMXRTdGv4/xiimPkcRaxK6KvRqnGseP64jHxUfH74ufWOi9cPvCkUV2i4oW3VpsuDhv8eUlqkvSl5xaKruUvfRoAiYhJuFAwmd2CLuOPZHIStyVOM7x5OzgPOe6c7dxx3guvHLe0ySXpPKk0WSX5K3JYyluKRUpL/ie/Cr+q1S/1JrU92khafvTvqXHpLdk4DMSMo4LFARpgvOZmpl5mf1CU2GRUJLllLU9a1wUINqXDWUvzu7IUUQapF6xkfgH8VCua2517odl0cuO5snnCfJ6l5ss37j8ab5P/i8r0Cs4K7pXaq9cu3JoFXNV7WpodeLq7jW6awrXjBT4FjSsJa5NW/vbOst15evero9Z31moUVhQOPyD7w9NRTJFoqLbG5w31PyI/pH/Y99Gm407N34t5hZfKbEsqSj5XMopvfKT1U+VP33blLSpr8y+bM9m7GbB5ltb3LY0lMuX55cPbw3a2raNvq1429vtS7dfrrCtqNlB3CHeIakMrOzYqbdz887PVSlVg9Ue1S271Hdt3PV+N3f3wB73Pc01GjUlNZ9+5v98p9a3tq3OoK6iHlufW/9kb/Tenl8YvzTuU91Xsu/LfsF+SUN4w/lGh8bGA+oHyprgJnHT2MFFB68f8jrU0WzWXNtCayk5DA6LDz/7NeHXW0cCjnQfZRxtPqZ/bFcrtbW4DWpb3jbentIu6Yjr6D/uf7y707mz9YT5if0ntU9Wn1I6VXaaeLrw9Lcz+WcmuoRdL84mnx3uXtp9/1zsuZvnw873XQi4cOmiz8VzPcyeM5dcLp287HT5+BXGlfar9lfbeu16W3+z+621z76v7ZrDtY7rjtc7+xf0nx5wGzh7w+vGxZusm1cHgwf7b0XdunN70W3JHe6d0bvpd1/dy703eb/gAeZB8UO5hxWP1B/V/W78e4vEXnJqyGuo93HE4/vDnOHnf2T/8Xmk8AnlScVTraeNo9ajJ8d8xq4/W/hs5Lnw+eSLoj/l/9z10ujlsb/c/+odjx0feSV69e116RuVN/vf2r7tngidePQu493k++IPKh8aPjI+9nyK+fR0ctln3OfKL8ZfOr8GfH3wLePbNyFbxJ5uBVCIwklJALzeDwAlDgDqdQCIC2f66mmBZv4Fpgn8J57pvafFHoBmxIS6A+BVAEALYg26AJCZ8iEa6Q5gGxupzvbA0/36lGgi/wsLXwL8hPCR3XAB+IfM9PLf1f1PC6RZ/2b/BbG3BoDx5JUBAAAAOGVYSWZNTQAqAAAACAABh2kABAAAAAEAAAAaAAAAAAACoAIABAAAAAEAAAGQoAMABAAAAAEAAAGMAAAAAJ3pN3UAAEAASURBVHgB7L1ndyNZdi144B29T6ZlelOZ5au62qiN1OqWnXn6or8zP0Uftd7SkmZJs55cd6t9V5fNSu99JpPewhvO3gcEEwRBADQgAoFzq5AEAoEwO869+x57PWtoYs0QMAQMAUPAENghAt4d7m+7GwKGgCFgCBgCioARiAmCIWAIGAKGwK4Q8O/qV/ajfUGA1sNsNiv5fF5yuZy+LxQK+p6f+d6aIWAIbEXA5/NJMBgUr9crfO/3+yUQCGx85nZrzUfACKTJGJdIIp1OSyadkWwuq0TBz8lkUhLxhCRTSX2fSqWE+ycSCclkMvqeHYPNXFVNflB2eEcj4PF49Po4qeKEi/0iFospifA7kklXV9fG30gkovuEQiHdxu9JMPxd6ViOvuE2uTgjkH18UBzkKdwljaL0d3FxUebm5mRxYVGJYmV1RbiNr+XlZSWRRLJIGhR0bqNmwvfsCNYMAUNAdOBnv4jH4/q+u7tbwuGwTrZIDL29vdpnBgcH9X00GpW+vj59z+/4IsmUiISaC1/UVoxUdidhHgx6FoW1O+w2/YowUmuYnZ2V169f62t6elpmZmb0Pbevrq7qDIidgI2zI86iKOgkCr7v6enR70geFHhuo3DbY1JY7J8ORaDUB9h3VlZWVEunmZeTtKWlJZ2EZbIZmZ+fF2ry3I/fkWDYz0gcJJaRkREZGxuT0dHRjRf7HPubtZ0jYASyc8z0F1SlaYJ69eqVEgSJgq/JyUklCgoxCYUzIwonhZjCzBlROVlQeLmd+3BmxL/sLCUbL7dZMwQMgSIC7HckB774nq9y0zAJhBM1vqjJb5iKYRam5sLP1DhKkzf2RxLKoUOHNgilv7/fNP8GBc4IpEGgVFBBCDQ7LSwsqEmKhPHkyRMlDs6KKJyc9VCjKL2GhoaELwolVW6+yrWOkq3WVOgGH4TtZghsgwD7aMl/yMkdSYSkwW3st7MzszI1PVU0G6/7GdlnA/6ARGNR7aMkk/HxcdVU2GeptbC/2kSuOuhGINVx0a00G1FNpiZBQaQZ6s6dO3L37l15/Pixah4UTqrHJIkjR47IxMSE/uXnSrtrjVPZV4aAIdBEBDixo6aytLykJi+avaitPH36VB49eiQvXrzQz9yPWglJ5PTp03LlyhU5evSokgu1FloIzGfy5kEZgbzBYuMdiaOkcdCfcePGDbl69arcunVLpqamdDYyNnZIzp49IydPnlQVuOS4o/BxtlJyzvEvtQvTMDbgtTeGQEsQKPVrkgT7N/9SUym3KpBQ7t27pxNEBr7QksBJ4aVLl+Ttt99WUuHEkGRiocIIbACo5kSHOJeEi74LmqY4K7l9+7Y8fPhQZyaFfEEd3NQyxg6NbdhNSypuyYdB8jCyaMn4YCc1BHaMAImE/hRaGdj3qZlwksgAGP59/vy5mqtpaSBhHD58WM6fP68vEkt3V7cEgsX8kx2f3AU/6HgCKWka9GGQOEgYnIXwRe2DxEJzFNXYUydPyRloHfxMsxVnISUNwwWyYLdgCHQ8AqXxgIRCH8oT+Dg5meSLYwId8wx8IZHQ+nBy4qQcPXZUfSUMhum0CWTHEkhp5kHfRskZTlPV7373O3WS09l99uxZ+fjjj+Xy5ctqE6XDu2Sa6vieZgAYAh2AAM1c9INSMyGZcHz45ptvVDPh9osXL8lHH30oFy5c0EguWiRKE8tOMHF1JIGQPKhx0HH29ddfy5dffqkzDKqpdJ599NFH8s477+gMgxEYnFmUMljNPNUBo4bdoiFQhgCtECQSmro4RjCYhoE0n332mfpFqZXQ90k/yXe/+105c+aMRnHRf+L21lEEQiEozSRu3rypMwmaqRjGNzo2qg+ekRf0cwwPD6uZyhzgbu8Cdn+GQOMIkExo3uI4wpwvTkLpK6WJi1FdtFKcOnVKrRZvvfWWTkjd7HDvCAKhqkmNgw+cYbh80Z5JIaA/g+onHzZNViQOahvWDAFDwBCohQDJhHkkNG2RRDgpvX//vkZ4DQ0Oyekzp3VcOX78uI4rtGa4rbmaQEqzBc4MGJpHlfOLL75QMmEpg/fff18+/uhj1Tz6+vvc9mztfgwBQ+CAEKBWwrBfmsQ///xznaQyPPj0qdPywYcfbJjES35Ut5jCXUsgpdkBtY1f/vKXShwMyztx4oS899578u6778q5c+dU5SwlBx2QrNlpDAFDwGUIcLyhiZwaCYNySj6Sr776Sn0n1EK+/e1vyw9/+EO1enDMcUNzHYHwQdLRRbXyyy++lK++/kpnBgy7pYnq0qW3QCLHte4Nw/HcMhNwgzDaPRgCbkCg5CNhnTyatfhiPgm3M7Odlo+LFy+qr7Xdxx/XEAiJg76OEvszsurq11elsFYQsj8fHDWP8fHDyC4thuO6QVjtHgwBQ8CZCHA8ovmcVhBWsrh+/br6XZlDwvHoww8/1LGJ0VpMD2jH5goCYVguVUcWS/v0j5/KL37xC00IpL3xr//qr+Wjjz/ScgTUOKwZAoaAIXCQCFDzKPlh//Vf/1VDf5lwyAntX/7lX26MTe2YhNj2BFIyWbFO1X/+53+qv4Nhc3w4P/3JT9VB3tNbrPffCYk9B9kx7FyGgCFQH4Fy/wgjQRnM85vf/EauXbumIb9//ud/Lp988okcO3ZsI9+s/lGdsUfbEggfCpmdeRx//OMf9aE8ePBA465JHkwEZE4HfR9WbsQZwmZXYQh0MgKlMYvBPHfv3JUvvvxCTVuc8DKVgEmITCdgFYx2SSVoy4QHzSRfXpFnz5/Jp59+qpnkDJljbZof/ehHmsTDuv6MdGh3J1Undzi7d0PATQhwLCJZMFG5r7dPDo0f0gkuS6OU/CMsrUQyYZoBK2A4vbUdgZTKkDCv41e//pX8/Oc/11Bclh/5m7/5G9U6+JCsGQKGgCHgRARoSqdZ/UJXsX4Wg3x+8fNf6GSYE2EmOH/wwQdKNE6fBLeVCatEHr///e/lZz/7meZ2sGwAbYgsesjohnZ0RDlRyO2aDAFDoLkI0KTFMW11ZVXu3rurfpFf//rXugIi89T+7M/+TMN9nTwhbhsCYa1++jtIHnwx65OEwcQc2g1psnIy0M0VRTu6IWAItCsCJRJ5/uK5+nOZzc5ls7lOO6O0OL6x5JITzfFtYcJiYiCXkC1FL7AqJrPI/+RP/kSd5QzPbRenU7sKuV23IWAINAeBkknrXOycOtBZM4u+XdbV+j//5981MZqBQZwkO41EHE0gpagFFj5k2BvDdJnv8ZOf/ESd5SQRM1k1R6jtqIaAIXCwCHASzFBeRo5S4/j3f/931NX6DMvuJjRJ+gc/+IGat5wUVepoExbJgjVlmHzDmjIE+O/+7u90vQ6ar5zuYDpY8bOzGQKGgBsQYE0tVg+n1YWT5j/84Q9KHDRn0S/CRas4cXZC8/0/aE64kPJroOZBGyATbf7lX/5FMzdZZv0v/uIvNOGGtkGGuDlNnSu/B3tvCBgChsBuEKBJiwRBTWRgYEC1D67RzpLx9JcwT4RmeyeUP3GcCaucPFiShHVkuEogMzW///3v23odu5FI+40hYAi0FQIkBxIFc0JIGrS2cDndX6KyOAmGbWJiouUmfEcRCIFitBWZ9n/+538UMK5HTtWNFSzJxqZ1tFU/sIs1BAyBXSLAsY6WlrfffluXzO3t7ZV//Md/VBLhRJsaCi0zrfQDO8YHQkCSyaRmZP7TP/2TRiDQofT3f//3cv78eQXQCSrbLmXBfmYIGAKGwK4Q4NjIyFOuxf5f//Vf8h//8R/CbT/+8Y91cl0ikV0dfI8/cowPZHlpWTWPf/7nfxbW0WdZEvo8qIGQeS1Md49P2n5uCBgCbYkANRFOnpnnRgc6G/PgaKlh6+npxau7JT4RR5iwWP/l3v17WoadVXVp92OOB9P56Swq2fwULfvHEDAEDIEORIB+EJY94djIxjJO9BNzezAYkGNHj4nH6zlQZFpKIFTDGLL27NkzDVWj34PJMnSWc/nHvj5bp/xApcFOZggYAo5GgNrImTNnlDQ4sf6Hf/gH9Ylw7aP+vn71i3h9RSf7QdxISwmE5MH6+KVYZ2ob/+v//l8b2eUHAYCdwxAwBAyBdkKAJMI8ONYApF+EpZ3+7d/+TQL+gHz/B9/X6C3ucxCtZQRCpxBjm+kQYpIgIwpYiv39D97XLEwzWx3E47dzGAKGQDsiwMgrOs9/gkXz2DRn7v/9F+nq7tKoLUasHkRrCYEwXJdrl3/x+RfC6pN0EDFM9wdI1WcdfHOYH8Sjt3MYAoZAOyNA38f58+eQ+pDUxfV++9vfavoDtzP4iBadZreWEAiLIzKCgLVeuDoX1/FgSBrVMmuGgCFgCBgC9RGgmYqRWVeuXFECoTmrVPaEBRlZxZeT82aasw6cQKh9XL16FfHM/y03b93UOObvfe97WkSsPmS2hyFgCBgChkA5Akw2ZOTq3/7t36plhy4BaiE0cTXbonNw7nrcMYsjFrPMfynPsRwtF01hSBoTBnnD1gwBQ8AQMAR2hgA1DObKkURYtSMajapP5Fe/+pWubshgpWa1AyOQTCajTnOWZb+H1bdon/vTP/1TzTLnzTdTzWoWeHZcQ+AgEKDWzpc1Q2A7BOhUZwn47373u+r/4HjLtAjm1XGJXKZMNKMdCIHw4peQac7CiEx8IVnQaV7K9bASJc14tHZMtyBQyINA8LJmCNRCgCRy9OhRzaM7ffq0kscvUXzxyZMnav2p9dvdfncgPhCy4cOHD+W///u/NQX/r//6r4V+D4aaGXns9tHZ7zoFAZ/f1ym3ave5RwSY/sBEQ46vjHRlBV/6Qvr7++XEiRP7bulpugZC+xvJ449//FQZ8cMPPxS+yJRGHnuUFvt5RyBAjd1MvB3xqPflJhmBdfbsOaRF/FD9IdevX5cvv/xSVldX990U2lQCIXnQ/saogBs3bmhpYjLj2bNndYWtfUHLDmIIGAKGgCGwgQAn5iMjw3ATvKeugsXFRR2DOZHPpDP76g9pGoHQ70HT1aNHj7Cu7+cyPz8vH3/8McqUvKumq427tTeGgCFgCBgC+4oAQ3uPHDkiP/3pT9WExeVxWfKEZLKfUVlNIxBe5NzcvJYqef78udrfeDODg+b32FdJsYMZAoaAIVAFAaZGXLx4Ub71rW+pxednP/uZ5t7tZ1RWUwiE2gfXNL+FRMGvv/5aK+xySVouwcibMntuladtmwwBQ8AQ2EcEOM5SE3nvvfe0PhYrgDCQidrIfmkhTSEQJgwydIw5H7zoS5cuadIgCyZakcR9lBA7lCFgCBgCNRAgiTBRm0nbZ8+dk2+uXdMkw9evX++LL6QpYby0s7E6JAmE2ZHvvPOOHMdN4Ipr3Kp9ZQhsRaBcYioLVJe+q9y+9SjFLaX9S99X/q70feX20v7CLzZ22navjd0P/I31rwOHvB1OGA6FNHDpxz/+M7l1s2gVGh8f3yhzsheL0L4TCFUjRlxd++YboXrzVz/5iZyB6QolvWQt17yU+nZ4kHaNjSNAM6j+hwxsvhfIjxerrXkRYcJBnNsKa0iuwwzLh1d5JyiOo8WRntv5eWN/zejG4I/t1IZ5TLYCj6fyuYZV3bz68q7/lufB2zfaMw+NffSlv3bAP8TJkg0d8CCceQm9sP5cvnBRvgt/yO179xDY9JkWYRwZGdlT9fN9JZBcLqfJK5999plM3n8gb/cNyJFMXjyPn8nKqylnImtX5VgElESKbIBrJElw3C8O+JtIYv0OSALcb437rP9OCYTf4zP/4//FVnk8fLv+G55I/9s4TPFHpXOXfo+dtrbSto3zrO9SbTu3YT9v6aJISrttvPbS9e/2GPY71yJA2Q7BnfDx4Kg8iV+VO9euy6effqpV0Ola2CzbjcOwbwTCC0wmk2q6egCGC2ay8vHEGemaX5RsMiO59Y7f+KXZnoZAYwisYXGyLDpHEq9EuFsKfn+RRPhzDuSlwbva4Wp9X/kdP9dr5ecq7V9tG44DqhN/NiNdhYxEQkHxltZvKP2u3rnse0NgBwgUCnk54fPL8Vi33FyY1Sz1t+CfPoZ11uls303bNwLhCoOzM7NawCsRh+P81Gl57+IlCXthcmDyym6uzn5jCDSAQB4ZtvGXL+X10xfy/NCEZCMxWaOpy8GN2pAX5t7Y0qKcyK3I6HCfhE+dKV6xdRYHP7l2vrQ1iYEo3oUpa/HeHbkOP/VNFFvsxsRlbGxsV1rIvhEIw3avXb+mKfPvwmn+PSy1ePzDD9T30c6Q27U7HwESyNoX1yT1y09l+v1PJDU4LGvBAIZo547EHrhvfIhW7EO04kR+WXrPHJXe736rzMTmfNztCtsTAT+Suhd+8XO587//t3AVQzrUh4eGxR/YOR3s/BdVMKP28eLFC6Hvg2n0Z1Cq5NS5sxJkmfYq+9smQ2A/EfBh/YPQQJ8EoXQUYArKRiKCpdqc7ROgMx9mX693TXzRLvEP9Iu/ZMLaT3DsWIZABQL9mFydPX9ey77fg7vhzu07WpuQRLLTtgev3ZtTUfu4f/++lms/deqUVoMcHBw08ngDkb1rIgIezJwCQb9EMRj7szk1DaFqXJFA6Fh24gvX58llJZROSjASEl9XrIkI2aENgTcIcBlcFrNlgiHLTd27f0+TCxkEtRFI8mb3mu/2TCA8IUuVcK0P1rtipd0TJ07s2ilT82rtS0NgGwT8cJxHI2EJpTLiBYk4vlH7QIeNppISjkVN+3D8A3PPBTJ8nRN8ljmh1vES/kOuFBuPxw+WQEgeZC0WTJyamtLiXbworvNhGefuEbh2uBPO4MOHxiQaXxY/BmXVQBx64Qwz9iAihtfZvzAtXbGQBGCCs2YIHBQCjLo6fPiwsMQUx3AqAFQE+H4nbU8aCE9WYi+G8DJdnhcVoQ3amiFwgAj4e3uk6zgc0cvziHdfdTSBeKh9ZPMShrbUH4tIpLtbvLsMozxAiO1ULkKAE3zmf1y5ckWr9bJ6CEkklUztSAvZNYFQ+1D7GZwwdKCzSOLly5elr69vT5mNLnpGdisHiIAfnSF2+JAMJVckurqCCKfMAZ59h6eC/yOYiEvv0oL0HhqVUF+PeGCCs2YIHBQCTBzkmH3y5Ek5jjyQAmTy6tWrMjM7o+N6o9exawLhCbnCFcuWsGAi44i5lKJV220UettvPxHwwv8RHRqQkaBXekAggRVoIU5tyP+IrCzK8Nyk9Ewck0Bfr1Ov1K7LxQgwYpa+EI7bUUQysn4hK/VyXG+07ZpAaLKizYzl2rmEIivu0nxFZ6Y1Q+CgEWD9Kh/ksO/KWzKUT0nX9EvWPSleBv/ipSVODvrCcD6et/Ti6X3wfXSvLsnhfEK6YXbz93S34KrslIZAsb7bxMSEaiFUBJ4gL2l5eblhM9auCITmK57k6dOnGnlFTz5VoUAgsKtsRnuQhsCeEcAgTT9Cz/kzMtYVkqH4kviQ5Y3hW7wYsH0rK+JFB0HP2POpdnIAD7QN/woc+7Ax8/weFGzsffFcRuHsHzx7WoJwnnvQb6wZAq1CgOP36dOnZWhoSP0g9GunUqmGLmdXBELn+czMjDAJhWoQ682Pjx9u6IS2kyHQLAS8yAcJj4/J0JExGYMi3PvsiXgR5x5AnlLo9aQE52aLBEKN5CAayMqDWleRyVcSe/5UgghzD+A1PD8j4yGf9L51QfzQmqg9WTMEWoVAN4I4OIZTCaAJiwTCkN5G2q4kl+zEk9BrPzw8DPXnBNhrsJHz2T6GQPMQwEDs7YpK39lTMo7aUkeePpAQZv6h6SmJvHohITgIPesl4Jt3EetHXicpDwisCxpH7+OHEnn9SrqfPpZDnryMHT0kXWdOiheZ8xumtqZflJ3AENiKAJUAlnXn2k1MCn/54qUszC80ZMbaFYHQfEUCmZyclPNIiT+E+Hs6z60ZAq1GwIPinWFEY42cPiEnB7pk5P5tCYM4aLpa86NwOkhmDWuANNMfsuHvoGaBzrnm94kvmZC+50/k5MtHcvTEOHw1F8UbiTprTZFWPzw7f8sQ6O/vVwJhFO2Lly/k4aOHmhNCd0WttmOPNxeMInnwReZ66y04LWE72209+VoXZ98ZArtBwIc8pNixI3L4XZR3v3pL5mdeyCpyLpIL/RJCnHsWZqN0/4Ckh0eLVXv306QFDcePCLAQzGUREJc3k4bP46n0onx2LBqRsXcvy9CZCQmNDINcdjV/2w0k9htDoCYCzN07dOiQRmRxudsHDx7Id77zHQ2QqjW270iCS7kfdJ5PT08rcdCD32NF4Go+HPvygBHAxCaIagh9F87IxJljWP8gKCOpVYkswgexMC8+hPl6UQm3WQ51D3yEXph5/ctLajbrwnkH17JyZKRfDr19SbqOjqOAoiXbHrBU2OlqIEBlgL6QCyj1Th83I2yZXEiFoVbbkQbC3A+G75ZCvUqeezNf1YJ4D99VqI/11MnSmbbOGBjGWvq2M/564FsIjo7IyLc+kCDMR3mPV+YSeUmNjEpyYFCyvX37r30otB7JI6Y+NTwiBXRKOvJDsTASbIdk6JOPpefSefExbLcTHecmz47ufBzHL168IL///e9kbm5OSWRocEhTM7aOKcVb2TGBkJWYec7BjGnwrKmy3cEdjZaTL45mR+C7hnpJrOm0VuB7vNbKZgPr++gsmut6l5lh+Dz0mWDQLK3vrQPW+vrfTr71/bw2DwZwPxKler7zbRnv6pHc519LYnFBMlhqORNEuXfgs++NPhYcey2QlkA+J4dWF+UoSGMMPo8e5Kh4u7s6jzxIHCrPqJCs8rwu0wxoKLX1fYryjOdSS55p+iMBl+1TOoz93T0CJJBz585pgUUGSH315Vf6WVcr3GYC2jCBlMxXDPNaQUw9nS50oJv2sfsHpr9ExymgeuwaSnuv8S86WCGVFi6SlEewQh6mkEI8KflEUgqZ9dhs9kdE9xSgDULfFA+csd5wSDhggmZwWOZEhMTPGkvIMfBjXRbOej0gey/WAmDZDC9eLIPO37i5I/L+AsND0vf2W+KB70Nu3pfeV49lGmalhZHDkkYNrQKworObOCh6HMwabHSYa9/ib9ZNV7H5WRmam5KjII/Dl07LCExp3cg49/XiGfA8bm6UX+S6bMhzHp8hp3n4hXIYNwrIyclDngvwRRXgH1LwAN0aTIoFlHdReYYG54VN3oPlVznueDDxYY6Pj/IMcmbdMx+IWGWeuWeUZ8oy37sd3ybKDiedTApnSC+tTLdu3xKuLtsHbd3HlWWrtB0RCMN37969q7VSJiYmtPquZZ5XQbXWJnQIEkUB+QEFrBvPjpNbiaODraBjxbENy//ye/4lOWC2VcigQiZms+xsxQ6CN4jsKb5Hohzflz5DU+Fv86vsxNBYYMPMIjSPnYxjHAnEiw7K2lH+HnRCCIwXMw8PXiQbPeY2s41at+Xk7xgqGxoblQHcq9/nke4HT6RvblFeP0vJHHwl8e4+yURjkieRAKeitlZHOyGYGCzp7+DLD3IP4fl1w8cyBH/LEV8Ba02PSs/lSxI5igoNwLopGo8DgC/JawGyvIYxIrcKeeYEaDVRnOiU5BkLz1GGKZfUqKkAqrwByqI8A3vg6gVxcLt+R40Fv8vnUGqcv8OuWeTScLBbgwZDEvHFupRQmNHvQ2l8T2BdljlZMkJpWEKIKX0hrI3FiurM85ubn5NBpGhE/YgYrNJ2RCBMdSeB8CT02LOao5Vtr4Jq5SaSBjsCBhp2gvzyimQXlyRHDQMdLcf3i3y/oh3OG0KnQGeg+SWEYnteDG4c8AMouscOowMcz8FBjA0PfqOhY/K4uaXisTPzcIQtLUlmelKys3PFDsqBFLM4Pwtfog4TOx5Xw+M2zvw4m+OM3E0JbiTYQH+vDH7nY4keGZeBa7dk7Potef5ySaYiPbIAEkng/vOxbsmHwlIABgz5BWAb0L55w3LsGLwwg/ZjsAwgqzyGZzeQWJHxpTn0jWEZunQOJqtLWCiqqziIlT2iN8dp03cb8lycoOQowwuLGNgXIHdLkO91bQOYcJJEmfJBC+aqi4HBAcUkgM8sYc8JzYb8Up4JN+V5Ha81TIDYN1R7wWw4S9mGHKexfERuBomheK4+yi5lGTNlP/oIMaf2TdlmjTQ3ynMzJYeLTbG24eeff67uCpaoYq2saq1hAqE3ng50+j94Ar7Uzl7tqLZtEwIFEEcOWkD61Wt0skXJwUHFDpdnaQvMjgMIg46grEVofFTYsbQyKwYvnYWhg7BDbfgyysli01nWP2B3fz87U4/O8iIlPwqeH8mrkEYY6yz8AFPTkkG4XurRYySzgbBgEvB1oyMOD0hodFSCw4NKKtVO0dbbmCdy5DAGrwHphl9i8P4TWbj/UGanH8NxGJKlYExWYSZJ+gOSpta2PpiVxn+aVPBkJASNsCuTlJ74igxC4xgIBaQfz6/3kysSRQhxcLBfkwQ9Os1ua8S2XDxNrpRfyk8WfzlZyZE85uZFQAhBTC5jF2HexuSHAznJm5Me5uhQoy6+L/rnNshjy1mKG9gHAiiSSbKh1qI+FMqyyjM0dWg8nBhlXk9JenJKEnfvqTbthzxrP8Dsmdqna+V5G9x2u5ljOpMKqSBQUeBCU6VgqWrjfcMEwgqNDO1ipuIHH3yg5qvdXmQn/I7aBgki/RKdDIRRmp0J/IZ+LH4UOXVSfJwt0S8BjYALIrEYoI8aRj2SqAOgqu3UILbsB00IHc/f1Y0ONSR52OXVt4KJQRazvCwGgNz9JcmC6HRWByIKogMGkbNA04BbGm3l/m6fanN+aHexY4dlEAPhKjCIzy9JCibFZDYpyZxHcjAfFuCforbHwc8Dsg0A2zCSErtiPomOjksXNJvoQK+ESdx84Tl6OLN2UVN5hraVnqQ8L0h+XYNmoAd9E+ET8PFcuqDaBgdvnZBApmkebZo845lQnnn+AGQ0fHKi6G/BdWYR7KOTNVxnFtfMfaiRBJn0DJm2MOrthZM5IawwMoqJJFM2mDhejTx4hIYJhAehA50zMKo3PLi1CgTWBZozMp0Vzc5ipj8D5yCc3yAFEgRNRRy8KfCcWdGZvdcOVnEVNT5Ck4F9uahtwCYvI7ovfS8ZzuIwg6M5jZ+zuHbeQ3Z6Rv/SER3A4MjfusK0hRkxNa/g6LC+onDq9mJyxHtWEyPWE8nQHEhnL4IaOFBSM+T90+8XCCDXBGRPs0mAAxJ8HK4rikh5xkQou4BBmJMLTITSMBsRD8qAyhEmFrx/lQ+YqPaDMGoI8Oav0Kf4TIom2DcVjWnuyuI605PTeJaUZ5i+8Jl9kfeRRXi39kFoNT6aZnAv1t4gQM2DPhBamZ7AmU6lIQs/FIvlVraGCISkwfBdHoxJgySPXppa9jhTrryYdv7MmZBGT0F4Ew8eS+rxEwzKs6rCs3OFYEcMw7QRgGnDaY49EluEr2NHdcBIoRZO+jler6cl/eKVpJ4800EiCjNbGOXHub/alV3U8WgrD0YOSXD80Bsx5ADK6CAGNCCaSAmEmpiL7vvNzW5+V5LnHPp9/N5DST19Bl8aqgrTZ0bfHMrFRI4fAYFiHMCA46Sm/g9oHJGJEzDZpiX1alLSz17AhDwJWX4qadxLAGaa6DmajWGqwTNlAEknPNdGnhP92ixpQmc6l+tg4VwWV+S2ytYQgfBHDN199eqVah90nht5vIGSDnLOcFZvIuzt5h0IogemjH7pevsKOhkWDKKzEJnHHICc1tne3AXerc/o6CMIQcukfTmFZ55C58uATBZ/83sJXO+VLuQzRE6eUEf/pt+77QPxCME/BDOM+nZ5fx1CHtmZOYnDnxC/fgNygXwazEgj705AnrF+CZ3T0L7aQZ6pZUaOHpEw5JnmWk6OUs+L8rzws//BvfRJ9zuXIc8T7pfnBvsnx3ZqIFxoir5vEsg8It92TSBMbacJaxYzavo/TPsoPgmq9zT5JOCETcM/lFteVdNUkE5oqMlU7WkPZoisOg8bfIAt3Y2DJsN5+YKDP0xzDcgwOw7zBe3fMPGsXrsB384rCZ/igHJMTUEkTVc24KHE6sqb23xT6udAP0/cfYBB9qX68IJj0Mpo5oPJ1Y8IKpVnyka7EGmFPEfgm2IkGE20NNnSdLty9Zreb+T0KVgJoGFHyiIdN0PUEZ9IIEwe5GqFjL4ieZBEWO69sjWkgVB9oR2MYbxHjhxRM1YnayC0h6tddXpWkg8fafQHo0NIGpzJBEaQ/o/QWM5+2rlxkNBoFjhDA5ip0WdD4kg9e46w4BnJwbbMBLHw4XEN0bTS5G36tCG7lOcM5Dn15LEGftCERTmOYlBllKCve90h3qa3yMum9q/+EsozTMkBOIr91Ehgos2gth+DXuj/CiGoInDQ/hyH4Uo/Hy1NdKbT+kQCqdYaIhCSB7UP1sJiTDCLbnUqgbBjMV8j9QyLrty6I6mHjyFwRyV6+ZJ2Nh/Wo2ib2Vk1iai2DTMSmuBC9BNgUAkhj4Kz1NUbt9Wu3IWQTfpHSKBKIu0yO612r520jWkXlGdMEKlxxGF+TT16BHk+IjFEVEVPw6zDvu6254n7ofOcVZvpTC/K832J37gpGURNxpZx7+fOQNYhz4ymc9v9NyDj9IMwGourFdL/TS2kWmuIQKaQtEMGYtkSFtfigTuRQNjZqPKuUuUFcawhSar3+99BCOPx4owFGofrOlu51NAc4EecPzqWHzkjvO/VazdBJvclBc2k6+3LEsNiThbZUg6ac9+rPMN3pyYcBH2wakHv97+rgRI6A+8AeSZBMO+J0ZFhmGNXvrwKv89NDR7p/vA9iULGOXnqNBJh6ZIwEmq5VAfLu1OJoAJRmTjeEIHwxzRj0bESRcQCw7w6rVHFT7+cxIB5TdVc2oSZyxGCg47hjJsyat0MjpIIwlkRiRWCLZxhyEkkLaaQYLry+VcaqRM5fVI1lXY34bn2MSK6LI9cF5L+KpzkNNtwJh45Ax9ASZ7xbOn7cX2jPKPqgM+3Ls8Ic08+GoRm/UqW//AZQpcXhPLMSErt464HpHiDrD8WhA+UEbc3btxQLYR+cEbhlpNIQwRCFSaNcDg6VUKYlZQfwPV4gnWZ18FIpMS9B6qBcMW76Nkz8HechPCBTDuho1U+aAgYI3Go/nvhdGQYLDWR5KPHGvZaSJ3QjG8tvdKJ+FTi5aDPzB5PP32OcHOsOocM8hCS6zREG0ERGs7agc+LlgMfZNjHMHWYoZloGL9zTxKwNLCSRATjX3BsRM1endDfaWGixYkmLP5lIjkVCRZbLB//6xIIc0DIPEwkIRsFUKhMyzM4qEM061Ko4hegeSTuP5D47XuSRSJSFPWNGPbH8gjWgAAETZ2szG4HJgu//K0kQbQFONe90FSD42PF5LIOtCM7TT60HhuSADkoJm7flTyS6mJvXZQYZJr+K2tAABMj1TYwUPphql363R8kif7Pytix/EVMijBhYnCMy+W5RCBMGqfLgmWs6AchoZS3mimYJA+G8C6xGB+SqWjCCkGt8QJktzd1LmIQXIZZhnZRfu7/8Q+l75OPVN13+/3v9P7oPGeZiIE//5GEJ45rsbuFX/yqmIAG4bPWWgRUnmGqWvr0c1n94ivIc056f/gn0v3x+xpu3tqrc97ZqY2QLAZ+/CM1U2cQwr74q99oBGK+Q+S5RCIM6WU+CBeZqlyhsKYGQqcJQ7jo/2BYF9mI6ky5CuO8R7/3K2LRQRZn0ygrqPqMf2fiXAQqPmtWudpRvlv4oIkwO511hphoSMdj8tETkO83yAbOKKkwQ9jawSOwrTwzGdTkufoDoTzDwa7yjAhLmmg7TZ5JICxfQgKhEkFXBjmhvNUkEGogJA+qLzwQqzSSQHhgtzbO1Ege9HckUfaAWbcM6WPCHGPIrdVAAHJBhyTLQ2gFVoSJJh881Bd/pQUkoQ67NumwBjSt+srkeQ/ImzzreE8TFhtJZEcEwp3pPKEDnQTCVHY3R2Cx3hHXMmA8PMmDK/j1IJSPZT04A7HWGAIkD0apqQMdJtAkaqhpAT7gGUGOgdqQXTwJaQyl5u9l8rw/GHeqPJc0kHICqTRh1fSBkEDoOGEGOg/GCCzXah/Qtria2srX1ySJmHgWWOv79scaoaID4f7IYsccpZj12yOMpY+cPq1Z60u//i1CRyd1md6OAaJVN2ryvK/Id6I8VyOQHWsgXMaWxMHsc9earxgsAPteElV0k1hxkWs6MEyXphiuwcxII2s7RIDqP2LqmaAVu3AWfiOPhvkySYtohlCwUbPWd3hY270BBEyeGwBph7t0oDyXCIShu+QABlLRrVHe6vpA6P8oaR9uNV8Vq3ROatw3V02LIPuUkUS66IxxR7m87Ow9sCuq/wgRhXmQZiyW007Cwc4Fl1hDy+3hkDsDbH/2NnneHxy3HKUD5ZljPp3o/EsuoDuDZqwSF9QkEKorjMLij/ie0VduM2HRTsyFZlKPn+qSnN0f0OSCzFM4z6ss6bdFpmxDfQSURLC8aRdII4OyOEmsx4CwPi3QqCsdujymvj5C+7eHyfP+YbndkbaVZy645rIFqjjmlxaSoj+cFqlyAqnpAylFYTEXhIxTYp3tgG237exszDKP37iFyKvXEkYpB67lTBOWma3292nShsyy8P0/+gFMVwiJRAn8BBYqKqCemLX9QcDkeX9wbOQoVeX5LuQZCdduaVQWOOZz+Q6asUgcLO9eIhTeZ10C4Y/o/2AElqt8INCoCghR5oI5mdkZLUfe/fZbxaVJAZq1fUYAwqh5IojOip0/p7W0Vq9+oyHTNG1Z2yMCJs97BHCHP+8QeaYGwigs+kCoUFRaoWoSSAlS2sB4EDdpIHmsdc2lLlnvhmWdozBbFfMXalr1SpDY390gwE4HQYycQp0sFO3jeiLxO3d1nWrYSHdzRPvNOgImzy0QhWryjBIxXHfdTfLMJHK+Kh3oRLwhAmnBo2nuKTFYZVFELo7if7mlFV07mcmC5tBtLux6dDgiAzARMrOf66vHsaZICtn++UTqAE7u0lOYPLfuwXa4PHckgTBKJf38haSQbd79wTtY12J9WdbWiWFnnRlqMcvDxC6cR7Ih/CHIu2EVX2u7Q2CLPCOCkLhaOyAEXC7P9IVQ+2BB3UotpCMJhEtYcm0Pro0cRX0rlisx7eOAOtv6aWjKYrZ6FEELaxmG9z7RUvksvWFtZwhUlWd0emsHh4Db5ZmBVAzj7WgCYTlrRl0xjJQVNSNY75kL6WhpjYOTNTsTEPD4sP4Csv1jWAqXyYa5xSWsL19c5dEAagyBbeUZ9eqsHSwCbpdnpnFUSyTsKA1kDSoYK2pmUZaYg1f0HDKkMRO2kN2D7Wyls2k8PdahCB09Cg3QJwkENHB9btNCSgjV/mvyXBufg/7WzfJMzYMk0rkaCAGA1rHy9VUQhlfCx45iHfNeK81+0L2s/Hwws2inG8dCZcODSh5JOtSxDou1OgiYPNcBqAVfd6A8d4wGkl/FGtDPXmKQSsD30a/LU3oQmmbaRws6Wvkp0ekCWKiMK+J5YHpJwbxIc5abwiDLb3e/3ps87xeS+3ycDpPnziAQhjliPV+arxidwsGKoaRtSR6YeUKPLL7KZZ/bcJ+CP+3WuPobF+7hc8nOzqkznZFF1rZBwOR5G2CcsbmT5LkjCKSAKpIcmFIvXsJUMozonxHNhHaGuO3gKgoww6WzusIfV5krb2uIksij7L76D9qNRDBr8yESjrkha7msZGZmNE9HibL8Ju29ImDy7HBB6CB57ggCyazParlEZQQ5H7qyIB5yWzVoGGsgwjRWS0wjgz6H1cE2GghDEyNv3lUT3VphM7ls7OfgNyxCx0oA/q4eXdSL2bxKktSsrG1CwOR5ExyO/NAp8ux+AsH4k5tfFNqM/SgKxtUFtWKmI8WuxkVR+wCBZF5Pg0BewyRXRiCwW+WQWZ+4fQf3uQotpP3KgnCdear+kTMnheGpmalpya0s6/saqHTeVybPbfHMO0We3U0gmL3mUX6Yi0WtZXPI+RiE9tGl63a3hRSWXST0DzVPMcw1hyilAu6rvBVQ24vhyQztbFfTjwfLJocnTiAyyy85+KzMmV7+hPHe5LkCEGd/7AR5djWB0B+QxZK8WUT1cEYQHBvFOhTtXmkXoa80v1Wa4GiRq9zm7P615epYIjs4MgQzVlTLvGfnFkCIMMeZGUuxMnneIjKO3tAJ8ux6AlFTCAjEixDR8JEj4mXorjXHIlAkepgZkejJIos5Ncm1n0+nGQCTQEyem4Fs847pdnl2L4HAZ7CGxYpyi8uYmcO+3t0l3ljEal41r6/s25FDh8bEjzVoWPAyhxUxGWHW8c3kuW1FwM3y7FoC0bDW1YTa0rm2uX+gH/WX2t181bZ9aEcXzhUhfT3dqByQ0Kz0QsYIxOR5RyLkqJ3dLM+uJRAuLUnfB/M/GLbLyq/W2gMBbygIDaQLWmO3hitrwECHR/OaPLeH7Fa7SjfLs6sJJLe6osvWBvp7JTA0UO3Z2jaHIuDr7UGRxSOSmZySPHJeNEHSodd6EJdFAjF5Pgikm3MOt8qzawmEYbsFlsOA05wVd70IEbXWPgj4uro0sTA7PaNhy0gIaZ+Lb8KVmjw3AdQDPKRb5bktQ5I4Gy2kM3ilq4sAawXNzGr9Kx+SB71IUGv3ENfqN+rerfRbBQZRoXd5WbPss0gG9aCSQLXGvBFG2bHSQDs+Z5Pnak/VXdvcKs9tSSBaCwilLjKYnVZrnK0x3DEzOYnEtIn2rHtV7cY6aBs1Rn93TE1XmdevJYmwXlbrrdYYYacVfVkg09dmJWpwQybP1Z6qu7a5VZ7bk0CgfbBWUgpraWPKWSFpWL83jaxsFORjBnrw/fdQugThu9baDwFEzflRpTc7Oy8FTAoY2lutMUDCGwjKGnxdHjrbK0Wi2o8ctI3atMmzgx5Isy7FhfLclgTi0/W0h5DeoenXFY/bg9BP5A7Q6YhyGAGE73pDMGG1fcO9Ipte6LWqNUDW+75dcEBWPU1TrJychRPdD6d69NTJqiYqX1dMv/cg36cmNg69d5PnGg/G5LkGOK3/qi0JhGFxgcGBbWakHg3fJXmkX74SDi6egHNvk/Zv1nziWu35RBwSsQ07wK/DoACa5Xyx2NbdUO6DphCuK87KvB5/dX8BRY6lUHgMrgLoizg3udLj86sGwvtiKLbWyaoCD1c11Ptt01IuDcvzK8gzzHXb+YJaP5yg6ozJ87aPwY3y7NyRddvHgC8wE/dyLXO+qrRCNiNemK34InmwnIAjGwZ9lixPv5yUxP0HqLQ7icusfq2sUCtYK6OQTEvk7CmYbCoeHaPNcJ+rV68h8ixQ+56xX/jIYel+7204nkO1920ZcMXlbv19fcDltdbDYm7IdvzassvcjxPvQJ4p9ybPFaCbPFcAcnAfK0ahgztx086EgTa/vKrrYtAEooUHm3ayPR4YM2bW5gofHldNKZ84U+OAMO5rUUGP+LH4ErNbNxqOEz5+TAb/r7/SqsMb27d7g/39sS4cp8+52fnQNPj8wuNjkrz7Zp2TjqsmUCHPjiZQk+ftepxOfNwoz+4jEDxCaiDihQMWZi7HDzjw4/hQYp6hxjUXgiplYqOTKjFWaCA0SYWPHsXNN1Z4kOq0mkLUj7S93Lf0G1ybB+bKNYZskzxLL2DQSW1DngcGoX04vByPyfP2oulCeXYfgdAshIgd5gMweQc9bvsH6oRvSAgIWeWr0UY7M4ME6BPB3apJgz4ALsjUjnkQte5bzTVMIsQ9d2SrlGcnEz4fkMlzTTF1mzy7i0DWZ6hc+pX+AtU+XDZbVSclHO50lGuJD5g4tNZObx+c4kPiC8MvBJuwaxpNWSRYmLM6rlWTZ0fbsHb+hEyed46Zk37hul5JZzPDPnNYwpYhoDRluWVWrp1tYVGWPv1M4l9/I5kXzzXqxYv1xMOnz0jPtz+Rrovn3JV5zxktfVltvxDY7rr9Fnl20YTI5Hl3MuGkX7mOQBRczNy8mIkXS7i7ZDYOYiwkErJ67Yas/OF3krxzB74BLF/r9cN3gsrD87P4flWCQ/0SOnRIfQdOErTdXwtVkPXX7g/S3r80eTZ5dqgEu5NAOGuF2UMz0J3uA2lQMDgTzWN9k8Td+5J8dF8yMy/BHTBX+QJYOCuJ7xbhZC5I5gffR4RWv/jhfLbmEgRMnk2eHSrK7iSQDbBLoUsbG9r2zVoeBJJMSW5uTgqpBExXafiV4euBEx1TdLy8CF9eUN+IFpmk/dxF5o62fXD7euEmz/sKpx1szwi4xL6zZxycfwCdhaLqLCKtGIL7ppE81hv3YaKZfl+2vfS9/TUEnIKAybNTnsSerqN8JNrTgRz3Y8zY17IM/XTHrM3jw7ruqEgbOn5c/LdR5hzOdG8YmfZ45VeWNT8gfPyUBEdRWDAC05bxh+NEck8XZPK8J/jsx81BwJUEwuxzXUM6vorEOncsRMT4cfp0oufOSeYV/B+BsK6H4gkgWKB3SGuDxd55FwQyqmtjNEdcWnVUd0wCdoueybPb/HnukWcXEkgx7FNDBFGkUGtI7bbnOul3IEXWQYqeOQV3h0eCh8Yl9eABSCQrAZQzj5w9I7Erb0kADnR3hbwiVbKADueSicDORcrk2eR551JzUL9wF4HQrgpTDyu3sgovtRAdeNziUFYSCaCs+QRCdUcl/62PtHQJiYXmLeaDOL7UxU4lG+RRSKW0ZthOf9r2+1fKM7Px3TN51SAPb8jkuZ3l1F0EUnoSLGWOzldA1JLjZ64cEDC7Vk2JRLdNK36DsiUkEVYYxvoYLO3N+lA0b6mZA79liZOG2vrg1A5Z6x2biV56kBvynNTnXdrsyL8mz3Ufi5vk2X0EwgGWa2NjYKVz2fEmLJBHbhXVg5E5X0hts8b7ukiy7pUX5ivW+CJ5eMNvFsrKI8kwh3XDuXZG3VkqMGLdLFb1ZcKlY8N98QzXMsWSNE5eA6PuiLGXHcrleRkLpTndlGfyvP3TdqE8u5BAsFYIFkmiKStPHwiiV3RAdWJUEgWKHQ5L76ZfvUYOB5IBt2vr+7Labgjl38PHjkiwRCCY9ZE8mKVO3w9UktqkgO8DWCo2ijXGOTA7tmIxnl1uBYEQaJy1KdFhQO2ohmf1Rp4hH04mEJPn2qLpQnl2IYEgORthrCwwWNAKrtubhWo/7QP6luMhS6uj3pM3iMexTeY8iXANvoDM1IwSIrWQ4ChqfWlbw7rhc7J6/aZE4B/hdzWLD0KL8QZRI0yzgBw6IHMwgg8rMzWF64RfC+uh00zXcQ23vEmegYujm8lz9cdTTZ6xRnq7t7YkEGZa55ZWJItlazeZXyC8lF/OWjOTU1o7Ko+S5/7eHMblxsulH9hDxYDI2X9goE9NSmp+2u7kIJB8PKGmOUFhQdU0yveFZsJ7D588gXpYWDeCM/btmppFgrqsbXFd+e12bO12Ekh2ZhZVh5clA5zi9x9uft7rl8fwZhKMLvfahpWIdyTPkAG9TydWJzZ5rtlhtsgzyhJtGr/aUJ7bkkBoF+ea56lnz/EAypLp1wkkH0+CXBbVoZxD2fMAVu/z1RpQaz72Jn+JTudD9BRftZqWMoGvJAVT11qmiq+EnRfOdZJHcMwFuSCcsUGDzM7NI1QZC0phIpB69qJqhyMBeyAHG2vFk0nbqO1Enqlp+ksBFE68R5Pn6k/FpfLclgRCBzl9B1xPXDwVKj0HD3zPGbgXNv7M1DRyJkaLEUvVH22bbMV90v7NnIiKW950A/W+37Szsz9oLg8mCtQu/D0961rXVnYo+rkYoYb72fq1s2+SV2fyvP0zMnneHhsHfNOWBEKTRfjoYWRfD1YdMDijS794pZVrczB/aDivA8C2S9gBAiRJTBDyy8sSRZJkF5IkWeerGkF4OVnQhbTa06Zs8rwDuWjXXV0qz21JIAJ7uEamcECp1jhrWY9uSj58LAxxtdZeCOQZMDA/r7W+GG7MEvUeJJ1Va6U8mGrkUm1/x20zeXbcI9nvC3KrPLcngdDej05XK/zUi0x0H2zFhVRSNRA6sGpGJu23xNjx9oRAHoEQqZeTShw+mK8YVUcfjyubybMrH2v5TblVnss80OW32/7vWT/HC1OXB34QRrkwGsta+yCQg+kq/fwFliUehg8EGfcIPe7kZvLc3k/frfLsWgLxBoIS6O3VCKwcEgoz08ifsNYeCMD8WEDEWQ4RR8HDh8QHE1YtbbM9bmpvV2nyvDf8WvprF8uzawmE5g6N3sHgk0Wmd5YEUit6qaUSZicvR4ClXXLxuDDfJYDCmIym6/Rm8ty+EuBmeXYvgdAxicgcf18f8kFySDxENBZMWQyZtOZsBJhtn4XWGBgY0KrKXhBJpzdqYCbP7SkFbpZn1xKIihqydQODA+h4xcWXNLkQGd3WHIwAIujSL14iUXRJa375EQxhwQ/rz8vk2cGCu82luVyeXU0gdDwGxsa06ixzQdJPniL5sMFy59vIg21uIgLobPlkEoUhUaIGWehMAPWwYGQblidpBkomz81AtYnH7AB5djeBIDzS3xUFgfToIJRhXSWUTHd8SeyaMo0sfDXDuc8UV0CodQraBzPL/Sg/ExhATS8UmrRWRIDFJE2e20caOkGeXU0grG1B8wdt6d5YROtj5bS2UpVaUg6XSw4eLM9Ck1xweFAr7pZfsg/O5vCJY0iwDKM8WBuGvLKcB3xUqUdPlCBZbt7fiwq8pn28ecwmz2+wcPq7DpHnjpjecTAKTPdLGsX4aF9nNVMfTSPokG3TcK305URQbRcqlK7jsXHt+C4IU11PNKZBA+3oM2CipyZboUAmCT8w0K8Vijs9/2PjGZe9MXkuA8OhbztFnjuCQBjOG2REDxaaSqJGVgDVamkiYQ2ltmmcfSISxweTHFvl2hi8N66NzoW02ooY1x8Ay/MnqH0gYs6PGmda58y0j3V0Nv8xed6MhxM/dYo8u9uEtS5ZHHgDQwO62FIe1V0zr6d0jYm2ywuBwqR1nziwVmpPMFvRybpluxN7V8U1adl2Lc//TMN2aaJjyXJr1REwea6Oi1O2dpI8dwSBsMie+giOH1OfCNdUoEOdD7rtSMQpvWQfryO3soLnMaO5OsHxQ7rcLmtfWdsGAZPnbYBxxuZOkufOIBDIFc07NIsEj4xLfjUuaRTqK6DiK/0J1lqIAMo8ZF5P61K9jLiKnJwoah+VGlYLL9GJpzZ5duJTwTV1mDx3DIFQ3LzhoPS8fRm+D59kXr2SNFf3g83dtJAWdUZ0NpbaZ2BDfnlFEweDI0NF53mLLqmdTmvy7LCn1YHy3FEEorbj4SEJHTtGZ4Ksfv2Nrp++hvXErR0wAghz5BrwqSfPJAufFMt0xC6cLZKHaR8NPQyT54ZgOpidOlSeO4pA6GDWUNgTJzRUlDNfrqtOk5a1g0WgAM2PpWXit++qLyqEyLgQ/B/tGIJ8sMiVnc3kuQyM1r7tVHnuLAJZl7HgoREJHzuia4XEb95R+7uur95aGeycs3O2hmq7XO8jidBdhu1GTp1ULaQdo8ha/eBMnlv8BKrJ8+nOkOeOJBCq/lxnoueDdyUz+VqSDx9pFJD5Qg6mIzL6LT05KStXr0twdESipyZ04aiDObv7zrKtPLvvVh15R1vk+fQplWtHXuw+X1RHEggx5Cp34YkTEjl7StJT0xK/eRumrFWNothnjO1w5QjA0UizYeLBI0TBpSV2+RKKJo65d7na8ntv4vuq8oxlgRkVZK2JCFST57GRjjHFdiyBaF0plMuIXbqgCxalX0xK4v5DLbZoa4Y0p8NpgtX8vCTu3pfs7LyaESMTx7W0jJmu9oa5yfPe8NvNr2vK824O2Ia/6VgC4bPiKm/hY0clMnGCH2X5y6uSRYJhIZ1BaK/7qt3qTbboH1ZALsSTEr/7AJGmUHmKAAAyMElEQVRXT0HaAen+4D3xowgkTTDW9o6AyfPeMWz0CCbPRaQ6mkA0KgsDWfTMKQmjSCETC5c+/wr5IZPFLPVGpcn2q40AuJiRbonHj2X5D5+JH3XJut97R0Kjw0YetZHb2beMyjJ53hlmu9zb5LkIXEcUU6wpI+h0LBtOUwrLiScePIQp64EObKGjh62ceE3wGvsyB/JIPnwi8W+u6eJejLgKHR4v2omBv7V9RKAkzyjtzyTNFHxNCYRKs4WPHzXC3geo8/GEJB8/kdWvvpEA8spiZ09L+AjGCiwd0WmmWCMQCBTtx0EIAs1WORT1y8KpnvD6xIN6TEGsv9GJgrEP/UzxZLIgw3VT6HAc0GJX3lKzIZ2+ndbZ9gXTBg6i/hAObOfOSH5xUYNEhJWcoxGtM2a5Ng2AWG0XjA95rGyahAk2+fCxynM3IjlDMINziYhOlOfONmGVCQkzoUNYQrXrnSsgDB8GvMeIzLqjBf5Y29/aDhFgbHwmixybWU0WzMJ5zjpXXQhaCAz22zK1O4Rzp7v7sLBYGHXf6GeiWYt+p/ide7rmiuU87RRN7E95hoWC5u349ZuSg680inDd6JnTqlV3InkQRdNAymSJMzM1ZaG0CcN6E9eus5AvIrXOF/MUbH2KMrRqv6XmkZ2elcVf/w4ztbiEYQ7seu+KztTMaV4bu/36VuUZZqs8kjYpz/Gr13SWHLt4QYJYZE2Fe79O5vLjUPMgeSz95ncaGh05c1Inm50eBGIEUi74sB9T/ac9Uwpr2r+S8ImwVlYU5oAQ7ZxGIuWIVX3PctascRW/dUcHr8jJ4xqoEOjvNxt8VcSatHFdniMnjusJEpDdFELV1xBlGIHdPgJy6dSZ804QL8rzU1kFCTOvJoIs8wi0D39PT8fLsxFIFUnydSHJEKVOuJzq6pffIGsaVXshOGv5gtZroknAOt5W4IiROhjvP0KJkseSW1xSfwfV/OA4kwXbaAXIrbfXtlu4OBdD1T3w6yVu3cZSBq+kkM3qBCkIs603iLVXLJhhy/NVeWYACCaRLLnDJZejCAAhebCCgvmSzIS1RWhKG0giFBaPNyCrV68WB8SlZen75OPigkfwmVinK6EFEzHKk5A8aGtfhamEWeZRVNeNvXVJAn29mnPzZm97d9AI0NQSO49qx3D2Lv/xC0lxQIRpq/fjDzWAxAuficnzm6dCP9FGtBVK7uQpz+fPvDFbwdxtDXNsA2F7BIo+kaPS8+2PddbBRahm/r9/l8S9+zpAiuUaFsGD5sHM8pWvrsrCf/8PBiIv/B1vS8/770oAa8/rUrvbw2zfHBACfA5hhE/3fvIRBsOz8FHNyNx//UzD1guw8Zs8Fx8ENQ+uWrr85dcy/18/x3Kmfun58D3phTxTmzMf3huBNRp9g8XWd+s2ZA3xxbc+hPUm7j2Ula+vSXZ+QWIXz6MsPOz6nI10ogmAYY2wp3M2SzWfC3RxrZXI6Qk4zY/o+uZiPqOtctWqLSrPfg0I8fi8GtabQDjqKqKKWFo/ev6cyrMXFRo6Up7h98wjmZjmKspzBuvUMGcpCp8Hg0A0VNfkeZP0GoFsgqP6By4fyvUqfJGIkkXy8VNJPX2uCyKF4aAMjgxrccaOsYlihsYQXXUuPseaKhiEcsvLGp7bdeUS/ERj4otFLVS3uji1fCtD1mnD90aj6peiv0rlGVpIGAm1/I55Oh0lz5gI5WCiZo4HA0Bo3mOSYNc7l9H3R0C2kOdOnCTWkVYjkDoAlb5mZ6K20fPh+xCsYVm9cUtWkVmdmZmDbflMMTkOtn4vtREXz1Lo6ygkk5Kdm5fk0xeyylBn3G8EJdlpsvL3mcmqJDNO/qvyDHn1v/u2+BEdt3rthq7QmUF+AzXr8PFjWqGB+7k28hAmaEZYqjyjHycewX/39ddIIMbqmOfOSjfMVsVIK7P0byfLRiDbIVNtO00A6FAR7Vy9qtYuf/alLH0Kp+Szl+h459TG7EXGrxvtpFp9lMSBKCtWLs4gYz8Mc1XXBQw4SFrzQutgpI+1NkFA5dmn4bz+HkQeHh6T5c+/hpP9c12nnk5jlpzh7NuV8gzyyII4mFWuawLBJxQ6fgLJrujHCNn3dsXcS577JKJGIDsFkp0OYbyBgT7N8KVZK/XsBXwicCJ/gUKMMOkwNJJmgADLoLhAG8knkpKDzycNmzBDQHPzixpV1fPhu1qEMjg0VFTxEfZsrc0Q2JBn+PIg175YTCdD9PGtsLAo5JkkovKMgAg3aNcshEgNOjM1o8mBDDf3wr9JR3kIk0MmWbLsixvutdnSaASyS4SpifhpAkB4pA8v2pAzGFx1gF1agoDOqd/E39evkRv0o7RT5i/DGFmdOItaSpylZTA7Y2QKVX4/yJODChME/b0I0bVy7LuUIuf8TOtnwfzo76Y89xTlGZnXDIzIrRQHXPUF4HnTP6Ly3EaTI5YjYjZ5FpOf7AxkmfI8t6CBZ36YpqlBU555726Y9B2UZBmB7BVpdCJGHAXhF8kePy4r8AnQtMMBl87l8AmsejhxQh3M7KSc5amAYubnuIaoKnY0OsgZA0/CiKMysRIHnIx0ukYvnJHYmdPqD3Lc9dsF7Q0BNWlhjRxkqFPj4HNfgW+E0UiZqSnNhaL5lhUZ6A9UUy1lmkTiZHlG0mQeJJiGxsHFzFgwlXLOQI8YzK/MLKdFwdrOETAC2TlmVX9BFTh4aET6B74Hx/qsLtuahFYSv/dASz/TGcelW2NIrlPHHEMlndRIHiCO5PMX6t9gReI1dDy2wOCgZuZHUCKcJg6SoDV3I6DyjOij/v7vwnT5Ws206RcvJXHnvhbH9CEfgpOj2DkUE+Ss3WnyjMezls1JEtecpL8OOVysyebxo/I2+iFJMoJqE0USRCa+tV0h4LBRbFf34Iwfrc/efDBthXwI+8NAG4KgZlBQMAczEGf0aawFnpmc1O/8qEjL0OAA7K3ecLglZiCWZmHoIn0bnGXqzAydjs5yOhCZQc7rY2SVmusY2mnmKmfIW7Ovolyexw+paYtmHhbIpOmHg3HqyRPI9DPk+3Spvy8IeQ5ikTCV54M2b3ECBLmlPKu5FRaAHHJbqE0XoG14u6I6wQuOjkGmByDPPeLHdZufY2+CZASyN/yq/podKIgX1XzO3umko5OdfpEcMrYzCZDKyrI6pmkW8mOwZif0rf+lfVnDJ2kWKFm6dmoiQIfaaOxczN0AORSwJgfJjC++52JPOfhscqjzs4YKusy0DWLmyQCAAFYOpL9Dr+egB4SNi7c3rUaAgSJ8UZYDg0M6IaKTPTsLMlFfwryuOEnHNLUUOqA5gWLiHf8qoUBDQfjJ/soz5JUBHnSK6yu+ipDclOSXV/AZ76FBUzsKjQxBjtEXEa5MBzm1KyOO/ZEqI5D9wbHqUZjtS9sqX+Gj48VOxhkSnXgwEdHhnnk9vR7VNYAZ0iFdk4SzfR+SvXS2v25jpp3Zg5IKLPBYr9G+S2c3KwrzvTDWnYl/q/BraPTJtHb+PJL/SA4B2LsjR2HXRkKkj1oHOh1rI5kzsR7SnfV9uTzTD8JkO06O+KIGm37xAmtl3IDc+JBb0idB7KPRW5ApypOX8ksioSyrPMN3ohOTWjJdlGFqy1yToyjPmAxhbQ5OejKckKEPZaendSLEIIAACIN9KQBtiNcRgOPf5Lk5smoE0hxctxyVGgXtxtQ0mLleOHWybPa0ouo2TQPL8EHkoREU0inNEmY2rC/WpTMpdgbO5rYlESod0DQy0HTyKyvayfJwhOYwI2PHY4IUkyCpGdF5SFWex/PDmai2YGo+XImRJKUde8tt2AZDQBFguRMPJho0A63BdEX/WG71AkgFGgG1a2rdMCEtI7M7D+2b2q03EsXgjgx4mJNU22bEF36/7UQF8lzI56C1U4aXdcnp3AL6BoirAHOVRo6hT/ihVcSwEBw1JF8kpNoStSAPJ2EkKsqyyXNTJNcIpCmwVjkobco0Q0GQfShqRzWanWcNgzk7V0kVp1mpkErq4E8n9hq0iAJmXwyrZXSX4Lc1G7NrcyjVDcIKooMLCEiz4/GZjk4/yMjHDkzTAl6cVbLIniYAWierCa19WYYA5dkHeS7JDwIrmEhKOeV6I8zu5hLGLIFOfwkDNCCZ8EdAewApaKTfzKx4QDTaL8oOXf6W8i/0yQVD4u3pxeQLBIS+Q1mmRs5IKpKRF32JMl3UbCDPuC4jjXIkm/PeCKQ5uNY+qnY+CjnIgBFNsC8zn0Q7yxrIYl1VZ0fM0VcBdb3ku1A1XqPXq52iaAogYXh5TNigqbrrbAymMIZasrNuzMjw3pohsGcENskzjgbZE2jba5BlasT0v6kJChMbmp2Yj6HkAk2idluXZ8iu+mGiIAhoFZwAldbkMXmujWCzvzUCaTbCjRyf/QQl0PE/GoiFf7jIDx3siIAqNqoWeDXalBxwpGIfbPRXtp8hsHcEVJ4xUYEsCyZJb0QQzvVuaMXadiLPJTleP9KbA+79Wu0Ie0LACGRP8B3Ajzc6CzvRxocDOLGdwhBoAgIbImzy3AR0D/yQOuc98LPaCQ0BQ8AQMATaHgEjkLZ/hHYDhoAhYAi0BgEjkNbgbmc1BAwBQ6DtETACaftHaDdgCBgChkBrEDACaQ3udlZDwBAwBNoeASOQtn+EdgOGgCFgCLQGASOQ1uBuZzUEDAFDoO0RMAJp+0doN2AIGAKGQGsQMAJpDe52VkPAEDAE2h4BI5C2f4R2A4aAIWAItAYBI5DW4G5nNQQMAUOg7REwAmn7R2g3YAgYAoZAaxAwAmkN7nZWQ8AQMATaHgEjkLZ/hHYDhoAhYAg0FwGuUZTHwl6VzQikEhH7bAgYAoaAIbCBABftInmksbAdiaS8GYGUo2HvDQFDwBAwBDYhQAIhecxjbfsCVpcsb0Yg5WjYe0PAEDAEDIFNCFDrIIn4sVR2ZTMCqUTEPhsChoAhYAhsIEACIXlEsNY9iaS8GYGUo2HvDQFDwBAwBLYg4MPa9uFwWLzezZSx+dOWn9kGQ8AQMAQMAUOgOgJGINVxsa2GgCFgCBgCdRAwAqkDkH1tCBgChoAhUB0BI5DquNhWQ8AQMAQMgToIGIHUAci+NgQMAUPAEKiOgBFIdVxsqyFgCBgChkAdBIxA6gBkXxsChoAhYAhUR8AIpDouttUQMAQMAUOgDgJGIHUAsq8NAUPAEDAEqiNgBFIdF9tqCBgChoAhUAcBI5A6ANnXhoAhYAgYAtURMAKpjottNQQMAUPAEKiDgBFIHYDsa0PAEDAEDIHqCBiBVMfFthoChoAhYAjUQcAIpA5A9rUhYAgYAoZAdQSMQKrjYlsNAUPAEDAE6iBgBFIHIPvaEDAEDAFDoDoCRiDVcbGthoAhYAgYAnUQMAKpA5B9bQgYAoaAIVAdASOQ6rjYVkPAEDAEDIE6CBiB1AHIvjYEDAFDwBCojoARSHVcbKshYAgYAoZAHQSMQOoAZF8bAoaAIWAIVEfACKQ6LrbVEDAEDAFDoA4CRiB1ALKvDQFDwBAwBKojYARSHRfbaggYAoaAIVAHASOQOgDZ14aAIWAIGALVETACqY6LbTUEDAFDwBCog4ARSB2A7GtDwBAwBAyB6ggYgVTHxbYaAoaAIWAI1EHACKQOQPa1IWAIGAKGQHUEjECq42JbDQFDwBAwBOogYARSByD72hAwBAwBQ6A6AkYg1XGxrYaAIWAIGAJ1EDACqQOQfW0IGAKGgCFQHQEjkOq42FZDwBAwBAyBOggYgdQByL42BAwBQ8AQqI6AEUh1XGyrIWAIGAKGQB0EjEDqAGRfGwKGgCFgCFRHwAikOi621RAwBAwBQ6AOAkYgdQCyrw0BQ8AQMASqI2AEUh0X22oIGAKGgCFQBwEjkDoA2deGgCFgCBgC1REwAqmOi201BAwBQ8AQqIOAEUgdgOxrQ8AQMAQMgeoIGIFUx8W2GgKGgCFgCNRBwAikDkD2tSFgCBgChkB1BIxAquNiWw0BQ8AQMATqIGAEUgcg+9oQMAQMAUOgOgJGINVxsa2GgCFgCBgCdRAwAqkDkH1tCBgChoAhUB0BI5DquNhWQ8AQMAQMgToIGIHUAci+NgQMAUPAEKiOgBFIdVxsqyFgCBgChkAdBIxA6gBkXxsChoAhYAhUR8AIpDouttUQMAQMAUOgDgJGIHUAsq8NAUPAEDAEqiNgBFIdF9tqCBgChoAhUAcBI5A6ANnXhoAhYAgYAtURMAKpjottNQQMAUPAEKiDQMME4qlzIPvaEDAEDAFDoLMQ8Ddyu/lCQRKZnCzF0yKBjPi8DfNOI4e3fQwBQ8AQaC8EPB4pTarXeOVr+u8297Bpz13uUzwGTivF8+lJtznW5s2RkF+Cft/mjTU+JdM5yeTyG3usJLOSzr75vPEF3tQlkGw2K/PLSUm/XJDf3nwlXd2r4jUCKcfQ3hsChkAnIsDRnK0meRR3aexfHq8OEW3sUmu/zWcrEkjjk/4ECCSbK+hBPLjHh/en5MXMqvB9ZatJIPl8XhYXF+Xp6wVZmvLIg/wdCUa6qh6o8sD22RAwBAwBQ6C9EfB5/TL/6pEsPpuTga38UVsDyWQycu2bb+T5i1nJdIckM70i/hCYSfWoxhmwvSG0qzcEDAFDoBMR8Ki1aXV2RXKJtAyFtjJITQ2EkPlhO/P7vLKGv6EA3gd9sP1RHTIC6USRsns2BAyBTkEAfh64KzJ+v6zhb7URvyaB+H0+GR0bk7HlvPj6e+Xk2VEJR2nCatye1ilQ230aAoaAIeA2BDwen0zFVuRlMiZry9Nbbq8mgfjAPIcPH5HlRFZGDo/J979zSrp7eqHWNO7R33JG22AIGAKGgCHQFghQWbh3OyO/WbolD24+3nLNNQmEexfyBYkhDOzYSLe8e2pknUBMA9mCpG0wBAwBQ8B1CHjEt9ov9/qi8qDKvdUlEP7GC9+JH/8wljgMP4gXpi1rhoAhYAgYAu5HIIgx30c/eJVw5YZUCTpPyl/uh8zu0BAwBAwBQ4AIkDiqkQe/a4hAuKM1Q8AQMAQMAUOgHAEjkHI07L0hYAgYAoZAwwgYgTQMle1oCBgChoAhUI6AEUg5GvbeEDAEDAFDoGEEjEAahsp2NAQMAUPAEChHwAikHA17bwgYAoaAIdAwAkYgDUNlOxoChoAhYAiUI2AEUo6GvTcEDAFDwBBoGIGGMtEbPprt2HwEkNRTSGf0tZbL4nysmIlXICDeSBjvUSVga9Xl5l+XncEQ2A0ClOdMVtYg02tYvI4Jy1y4yBOEPIdD4mHViyoLGe3mVPab/UfACGT/MW3eEZU80rJy/abEr9+SzLNnSAX1ijcWk8iZU9Lz8YcSHBwUD0rOWDMEHI/AOnnEb9+V+I1bkn7yRNawiJ03GpXomdPS/dH7EhwexuTIhimnPkt7Mk59MpXXtU4eifuPZPnXv0GHuyGFVEa8wZCsFbAE5eRLKcTj0v+jH0pgoN86XSV+9tlZCEDVoCaduP9Aln75S0ncuiX5RBIaR0CoWWeeP5Ps/LwM/tVPJTA4gEmRDVXOeoDFq7Gn4sSnUuWa1gpr2sHiN29L4uZ1zNYegiSCSiCFdFJy89NSyGak68pl8XV3ic9mbVVQtE1OQWCtkJf8alwoz/Eb30jq8SOQBOQZpthCKiHZ2UkQTFK6P3hXfF2QZyMQpzy6TddhBLIJDud+0A4HDSN17z5mZjOwG6+KZDwgFVwztBNJeCT91CvZ5WUJ5XLOvRG7MkOAIgtTVW51FcTxGPKMyU9qCVu9kqf/jvKM9xlo1ZmZWQlhTSIfzFrm2wMsDmtGIA57INteDjsVOl0hFRdR5zk7WV77GlyOeM+AOqxXr51v26PYF4aAsxCgw1yvCLIL+WXV1+KS2di6RnlPK9k466LtakoIGIGUkHD4X0ZXcRYWnjgFTeOx5ONJRKkg6ooqfxzaCPjE3zNU3AbHujVDwMkIcK1tH6IGgyOjcJp3w3TVhSjCKKKvQhvyHBgYgROdMh0y7cOhD9MIxKEPpvKyPFjQhdFWsbcuSeb1JIgD5OEPKIHkV5a1k0XOnV93oAcqf26fDQFHIaAEEotK5OxpTIjOIVIXYbsBhO2GwvCNLIFMIhK7eElCh8bEh4mSNWciYATizOey9aqg6jPPI3rhrOSTCfEPj0oe/g7q/2tYdjg4Nipdb1/GjG4YjnUjkK0A2hZHIcDwcyWJc9Cmi/JcgFOdYelrhYKExg9J1/vvSQAaiIXxOurJbboYI5BNcDj7g87aerql+/13JHTksKRfvdbIK39fr4RGoe6PjIA8gpZ45ezHaFe3jgCTBP29vdKDfI/wiWPQrKfU58FtoUOjOinSyZAlEjpWZoxAHPtoql+YkgjCGkPwfQT6+zFby0PtD6k92Yu/1gyBdkJASQSTIm8oiCTYASnkkEiI9z5oJ/xrzdkIGIE4+/lUvTp2OjrUNbSx6h620RBoHwRMntvnWVVeqYXrVCJinw0BQ8AQMAQaQsAIpCGYbCdDwBAwBAyBSgSMQCoRsc+GgCFgCBgCDSFgBNIQTLaTIWAIGAKGQCUCRiCViNhnQ8AQMAQMgYYQMAJpCCbbyRAwBAwBQ6ASASOQSkTssyFgCBgChkBDCBiBNAST7WQIGAKGgCFQiYARSCUi9tkQMAQMAUOgIQSMQBqCyXYyBAwBQ8AQqETACKQSEftsCBgChoAh0BACRiANwWQ7GQKGgCFgCFQiYARSiYh9NgQMAUPAEGgIASOQhmCynQwBQ8AQMAQqETACqUTEPhsChoAhYAg0hIARSEMw2U6GgCFgCBgClQgYgVQiYp8NAUPAEDAEGkLACKQhmGwnQ8AQMAQMgUoEjEAqEbHPhoAhYAgYAg0hYATSEEy2kyFgCBgChkAlAkYglYjYZ0PAEDAEDIGGEDACaQgm28kQMAQMAUOgEoG6BFJYWxP8b80QMAQMAUPAENiEQE0CKRQKsrS0KOl0CiRiLLIJOftgCBgChkCHI+Cvdf/ZbFaePXsmJBIjkFpI2XeGgCFgCHQeAjUJJJ/Py8uXLyUWiwnfWzMEDAFDwBAwBEoI1CSQYDAob731lsRX4+Lz+Uq/sb+GgGsQKBTWJJXNSSqTl0yuILl8QdLZvL6yVSZNHty51+MVv98roYBXAugXoUDxFeRfv0883MmaIdABCNQkkEAgIKdPnZZnz5+J11vTXdIBUNkttjMCDAbJgiAS6awkUiAMkEQOnxEi8oYw8Jn7JTM53UZy8Xo3swE9gTTn+tEfwkEfyMSDv34J4X3Q55UgCQS/CeA9t3eFA7qfH5+tGQJuQ6AmgXjQOSLRiJBI+N6aIdAuCDDmQ0kDGkV+XauIJ7MyvZiQqcWkzK+moHXkJABNwu/zKBFQs6A2Qc3Dg/9IEEoI66JP8siTYNLQVqC1UFPhX/YN/Q7nyeXX9HMk5JeB7rAcGojJQFdI+JkkUjyfV8/XLljadRoC2yFQk0C2+5FtNwScjkAWg/lyPC1PppflxcyqLIIwqIFEQgEljAi0g/6usA7ssbBfIiALkkc4iO+hQdAcxX0qNRDoHyCOAsxdRQ0mqaavIpmk0jmJ41Uyg5Gsns+ugqiyes7h3oicOzIg4wNd0h2xSZnTZciurz4CRiD1MbI92gCBkolqcj4urxfiMrOUlJVEBtoztAq/X8agCQShbXRHQxIDiVAjIElQ+6C5yYe/PpilSB7UKHz4u53ZKRxYU02EJq68vqDl8C9Ii8SFoEWQTE5WoPGspDK4jiy0lqykQTY3n87JzSdzIJCgjA924RWTLpAJfSmm5LeBoNklbkLACGQTHPahnRAgaeRhMlpOpGV+JQXSSMnschI+jqyaoWiSopYx0heV3mhwQ8MIgzhoSiJJ7KZRK/HCxCU14kpKWggd9DR5rYJMluIpXGdaFqANxVMJXHdGXoHwqJkM9USkvzskvDYSmZHJbp6M/eagETACOWjE7Xx7RoDEQV8DZ/lLqxl5NrMsD14tyYvZFTUNnTzUK8dHBmWoNypRNU/5VcvY84l3cABqL3zF4ESXbvhjoKFkoJ0w2ouE93JuVe6/XJQ7LxakPxaSYyM9MjHWA7KLQCMpkh0d9EYkOwDddj1wBIxADhxyO+FeEKBznFFUM0sJeTy1JDeezONwa+qs/quPJmSwJ6wDcDgA0oCWwQHYCQEg1FpCnmKkVhdIbRAO9lNjfdBMQIDTK/L49ZKatw4PxeT80X4llAFoTyQhI5G9SIz9tpkIGIE0E1079r4hQB9DEg7qaRDHIwy20wsJzds4Mdojo5i100w1BFMQiYOmKYbS7s5AtW+XvOVAJTKj+YtmqhCutTcWVC2FZqzXuCfe362n89CmVqFF9cjhoS7pg4ZCB781Q8BpCBiBOO2J2PVsQYDEwbDbybm4PJ9bUX8Cnd1H4IQ+c7hP/Qd0im+NmNpyKMdsIJnQge+H85zk1w+NhE71x1OIGptdVv/IPZi4FlbT6mgfgTmOZOOjRuKYu7AL6XQEjEA6XQIcfP/0G6QRLvsKUVWPJpfkEfwcSYTEnoOJ5+LxQTk62N1WpLEd1CQTRogF4UTv7x4GKfbKQ9zv1YezcuvZvExBM6F/5Mx4H6LIgmqao3/EmiHQagSMQFr9BOz8VRGgyYqRS9cez2guB5P+aKK6MnFEZ+x0TreTxlH1JrfZyHu7cHRAjg51IzgAjvbn8/L1g2lEbK3KlRNDqqmoc36b39tmQ+CgEDACOSik7TwNIxBHGO5LmKsewITDnI7uaEBOjvXqgEpfAf0BbiUPgkTtgvdIB/rZI33qI2GEGUOUv340I3MIWT4B/8hof9QRAQINP1jb0XUIGIG47pG27w0xPJdax1P4AegLoKOcuREkj2Mj3YiwirTvze3iyhkMoNnyyIin/+MJMHkOIqE5L55ExjsyFofhG6H5ywmRZru4RftJmyNgBNLmD9Atl0+TFQsdPpxc1CikVWghh5Gl/e7pEXWSd3IUEosyHoE5iya8XkRkXX04g/yReVkFXh8AH4YuM6LL3CJu6Q3tcx8tIZDS4lQ2a2ofQWnmlVIeWKvqzvMF+ePdSRnAgHh5YkjOH+nXkh805XR6IzkwS/0cos5iiDhjAiKTJ9PwDb19alhDfvm9NUPgIBFoCYEYcRzkI3b2uUgerFt17+WCEshhzLRPI5Ocmdmcbe+23Iiz73p3V8d+E4I2cgjhvn6UjWfG+n3ihkitLAo8ngJurCBs/Wt3+Nqvdo5ASwhk55dpv3AjAnnY8JfiGZDHojxHxVzmclxGeC6T51hs0M2O8r08zyhwonmPmkgW5Vwm4StikUaaAM8jeosRWka8e0HYftsoAnVtA5whbrxQy0dLjbLcKLZbMwR2i0ApTPcuyOMuTFf8/MHZUTmNXAdqHkYetZGlWY+mvk8ujiMTP6p1wH557TnKoiwrkVj3rI2ffbs/CNQkkAKIYn5+XhLLK5JbXpXs3LzkllYkn0hIIZMBmdg66fvzGDrvKEtYq4NJcn+8/Ur6sODSB2dGZWKkF0lyZsdvVBoY7kutjcT74dkx/Mwjf7g9qVFsTMC0Zgg0G4GaJqx0Bp381i1Jzy/IRCgsq9eui7+/X/zRqHixXrqHaxhgAR4vViz04ntfV1T8PT3iQUSIhYQ0+9G17/G50BJ9HndfLMqx4R65cGwAUUZdWJ+j5nymfW+4iVdOEunFGidnEXBAR/uNJ7OKLT9Qm7M12psIvh1aahLIGswKqVRK8rkclI28FNJpyUMDWUum1YS1lssqUXiwYI83FBJ/DATS2yte/PXFYnjhL5bEhT3CoDYEdIlZ5nmQPJ5MrehysSxJcmS4S9cON4h2hwAXwxqCOSvoHxSuiji5GFfnOhfKYrHJ8mV5d3cG+5UhUB2BmgTCtdCPHTsmi7OzEj40JpEzpyXkQ7w5yCQfT8CstQwyScEtksT6DIuoW5TjQtTi6+mW4PCQBMdGJTg6It5IWLUU1UyqX4dtdTkCtMlzDfEnKMHOEFTOnL914ZCcPFQc4Fx++02/PfpEaAr8GJj+/tYreYoS8dncjPqTWDqepe2tGQL7jUBNAvHBRDU8PKKRHsHBAYlMHJdYd49GeFA7UYc6newgjhz8JOnXU5J+9VoKyYQknz6T5IOHWLXNL+ETxyR6+qSEjoyr2Wu/b8KO53wEuIb4zGISeR5Taqo6e7hfJjA75izZ2v4gQFLm8rhXkENDQmENrRtPZ+Uy6mfR0W7NENhvBGoSCE9GEvFyiU28ir4OhFdi26YGZ7s3EhFfd5eExg+BQFKqnWRn5yS7sCiZydeSgwPef78PWswpCY4Miw/7W+sMBLhW+NR8Qr5BYcQ1yMrEaL+WJ2Him+Us7K8MkERY8oXVe1lTjGVhuhHWSzNWPzQUa4bAfiJQl0CK4bp1QnZJLmGEXuIVGOiHRgITFyK1ciCKLBzwmekZjeBKPX+ppq/Q4XElmsDQgJKSOdz385E671iLiLh6NrMir7CM61H4O06wrhXMKkYezXlWLPsy0heDEz2vBRi5OFU0FNC8EUa5gWOsGQL7gkB9AtnFaTwQUj/8IHyFYbbKrazCvDUtqSdPJX7ztqRBJOGJE9J1+aIEhgbVAe8xU8YukHb2T+j3yEH7eIYkwRdYCMoPO/yFY4Najt3KkzT32cWwbO6x4W55jYi3ZwhYePR6WXGns52LUlkzBPYDgaYQyKYLg3ZC01YkjIJvo8MSOTUhidt3JfX4CXwkD6T3e99R34q/F+G/2NeaexBgpjnXLn86s6yVYxlxNQxbfNBqNjX9IdOUFYXp6r1TI6jcm5UFlIBnocruCPog+plpIU1/BB1xguYTCGAkMTBfhOG+YYT7+pBDEujvk+STZ7Ly2ZeSg6+EvhE62b3Yx6S7/WWPqwnGUzmtb7WMZVlpl+eKehHUcuLgZq35CLCcSQ9WMGQ5/Ad4HiwDf2ggJmN48TlYMwT2isDBSREGDQ/i1T0I6aUPxNfVJV5oJvFvrkv6xUspZLMazUUnPMN+TRvZ66Nt7e9TCNml9sHSGjFEBh2FOWUAfg8jj4N9LiQRJmky/+Y6ilYyjJrkEepz96JcB4ty556tNTYj2GD9/b3SdfG89P/oB+Lv61GT1vLnXyEM+JU64BmtY609EeDCUMsJOM6RixBP59UWz6ggI4/WPE/WFhtH8UWuJ0JfyBT8IlbqpDXPop3PWi3opTUEQhSpkcBcFRwbkd7vfCKxC+ck8/yFLPzi15K491CjtdoZ7E6+9gy0j9fzWJL21QI0j5it4d1iYaDFcATL3759cljmllPyElFZXH+FRVKtGQKNIFCNPPi71hEIz75OIgz9jZ47K93vvSMFhP8yUitx74GWTrGqvwSqfRoHpQX4PDjLZR4C/R5mumr98wshAo6h06cO9ck8ns9jaCKsgGwU0vpn4/QrIHnkkCyeTCaRO77ZMtRaAllHzoOSKUwujF2+JJGTEyCRpCQfPZbUsxdSSBXrbjkdZLu+YoV/Dkqc4c6vpDXiamwAEXioGGuttQhwEIiEfHLx+IBGxDE3ZCmR2TIgtPYq7exORSCP8lUkkEqt1REEQtAYpRUYHoQ561sSPnpY8otLsnr1mmRQTl5LxzsVWbuuDQQoXAkU83uM7Gf+vTIxggQ2i7raAKjFb7S4InxR3QhqWE5mNMAhm9s8o2zxJdrpHYgAJx/s2ySRyuYYAuGFsTy8H+G9XW9fBokcQcLhc1m9cRvZ7Iu2gFXlk3Pg5yySBp8j43wZmeccpOg4tyJ+znlQHAhY3v3s4QFUPw7KZ6hLlsSa6pWzSudcsV2JExCgfASRetGPpTxY1qq8Oc62QBJhiZMIii/mUUo+jez1AJIMfQjtZal4rJljzYEIUMjSGIxuo4Afl1RlGfGo5Xw47kkxEo65IFMLcSV7mhsD6HMswmjNEKiGAPs2ayKGkMPHSUh520wn5d+08D3XFgmifHz0/DnNB2GeSGo9V8Sc6i18MDVOnYPvYxVO80lEX/V1hZF70G3L0tbAq5VfUTsc7otgIaqgln1nyLU1Q6AWAiQOkkhlcySB8CK5EFUEvpDI6VNYRncZZU8eFdcfqYgCqLwh+9waBFLQPmaWGaWxhqirkPTjVTFZac2F2Vm3IEBfyBAqA5yAiZEayFI8Y2asLSjZhkYQcCyBaIgvqvt2vXNZVzbMTKEY4+Onssa12KFSWXMWArPIcqb56jCq7bJsSdAK9jnrAZVdjRfZ6d2RoBZXXEA+yEI8JawcYM0Q2CkCziUQ3Ik61VHRN3rujPhR9mT1m2soC78ga1msfGjNMQhQ61hGSOhrrPnBhYtoGql0tjnmYu1CFAGWfB+AqZHFLReRF8LET2uGwE4RcDSB8GZIIuHjx+ATGZUcFqdibkhudXWn92n7NxGBOEJ26f9go2mEeR9mvmoi4PtwaJbT7wbRHx7ExAzPjomf1gyBnSLgeALhDTG0N3TkMKKzhrQEPFc31OV0d3q3tn9TEJiF74OD0FAvtQ8sKoZQUW1maWwK3vtxUBZZZI7OKEqcMBdkCaHX1CStGQI7QaAtCIQRAMFhZKq/dRHFFiclMzen1Xt3cqO2b/MQmJxnbaW0jMEc0oUQXj8GpzUMRpp4ZGNS84Df45EZ0svwXR+qZNMHsoKKvUYiewS1w37eFgTCZ+JFVFZobFRzQZhYmJma6bBH5czbZYz4CvwfWSxjzOirYABrv4BACmsFrEaIJDWrtuTMB8c+hd7P9dL5ykELeYlVI3MW5ejY5+XEC2sfAkHlXn9Pj4RPHJc8wnqZG2KttQiwbHsS/o80Zq8a2RPFbJaLh+GyqDWaI721z6fe2fmMqIGw3DuJnkEQ+bypjPVws+/fINA2BIJprXixLG7kzGkUWESGOkxZa6gQaSG9bx7mQb+juWMOS6UyiTAMe3q585zkEUCRTA5S1pyJAE1YXFyKqxaS+FlFmcUwrRkCjSLQRgSCW0JJ6kA/yprAnMUqvemXIJEqBb4avXnbb28IcLBhHgEHoh7kFURDRhh7Q/Tgf61Ej4gsrM4jTAalVmnNEGgUgfYhENyRmkWghQSGBnUxqtTzl5YT0uiTbsJ+JJDpxWKJZzrPi7WvmnAiO2RTEQggJ4RFL+n/4BouVqG3qXC76uBtRSBMLvAGQ+IfBIHAPMLlb9fgqLXWGgRowlpYxZoSmLSGYQoJInzXTFateRZ7OWsYBMLEQiofDIjIICDCmiHQCAJtRyCeAJzpqM7L5XBzs7NFP0gjd2r77DsCNHekURWAbg6SBx3p1toPAZJ/FBokTZErKUbU2Roh7fcUW3PFjivn3ggM3hBKZcDezgjRQhqF4OAHYca6tYNDgORBDSSAHALOYPdz3Q+GBrOVtBl+Lm0r387vS0tslvYt/dUD4J9qvyt91y5/y++B11x+j+XfleNRujduK9+/tL38L31XLD8TjfiFa7qYI70cHXtfC4G2JBAPFjfxxWLiQdn3HFYu9HV1acHFWjdq3+0vAjmEexYXIypqH0HY0PerVQ54lZ95ntK20t/ybeXXUf59+fZ2es97IFFUu5fKbfU+V7tvPjtqkEjdkdVkTjIWmFINJttWBYH96/VVDt6sTV4QiDca/f/bu9LdpoEg/Dm10yQN5SogEIeg4pCQ+gAVj8Hr8gIggeBHBYUC4ehBmzZOYjt1YptvNjhq3YZWspvE1lpqnfhYZ78dz8zOtSqsV0q9h4d6PYOLwnpcuwEdrnH+hyQPZjkDOe2ZwhiP/sXXnHYsPlekfVIwjOvbUTzOe4+E8Eo2uggpyevRuSDj0NXHkwjkUoCIH0RWKJyTGYjjMBJrWMgv2Tn9/eIQEPOVmDvE7yHaqxTn01s+EaBsVv4PplqxekCoy5nkcxin8qtz+daXTDr8rDIiMi8xYekZyORpR5IH3cOADCci86EGSy1Wb/lGQHJBZBhFoOhNI3AeBM72gZCYQr+vVgU83NqB73okMtpLz9P6BV1j0HzSt20EDksvcAbib22rsN5/vtcLeqpuNkZAREWPy6A6XM2u3+Y4VHwEVg9+R0piqNiG+NJ87tmJUpllWZiwKn62Ls06Ktue0UrzBoMHXFclskYFqRslwXODpscVP7sMRjHQ3y0xlNdR4dn5HMBsfrUE5pSXrs18gI5Soj1v1OmYDyo9IKEMyDl5R+Xw8Lz8pxJYrcK8cnnURkA+L+1KZF5/dw9B9/T1Ys4WIGwyaLXgfvyEVq0OLNSooUxf2ww6HeaBbCOUtUE8F9an9WMRNyMk9IfMEZDRb/Uj2N0Bekw8cxtz6NRMROKIFerM+8ZOWDdvwnr6DJulGr7tOSpgYOlSBU+ulmH9aiDc/A2hwSKo6yJAWJEfjg1Y8rnB8a1QcSzCWKagRREgVi4ECP3AxwTIcOBENCTp81jU3pHzQwGyOEIrFiBiWeh8/4Ze48fwXGJ6erYAURJoF90/a2hubMCnZiaFD6ZKW4KMcCqphcWIEW/tAxdRLwjzGg3h7H6gkooW5nFgcDGiuQraYRvN0IWHYDgDmSpxZIAbaWthZQXmfB2v7Apef91Dm+tl3F+q4+Xza7jx/i2Md2+owMhLNX1lKm2PxZ6wX6qjbS7BZCjWftiEFToIIsWC0jav788pAhKEYZIE9mUCQSUdd+6c6MnZAoS3hHRSB70uBl5Ens2EsYQUOtHqpA7EBC4VRDWtTwp1JSSCsELZzXLtVo1O1wOKDpYCL0n59iJszIXwqdUxSfLLZguN7Q5cJtgZVMk3b7Fki91F1aXpzpMlBYTw8k58XLsFhxw7UznQB6UmBhzPMPf9KgItTrkP5PVBj+bMPmO8T+H7Bqc0Y9953/exvr4O++cv1DwHt2kDZsTmzLwww9dWZkNjuzBl9Iv5eMHdj+bgRGX0SibqkY8qfGorRRkJmrCu3wDuPsKaTY1cqtRSSZEV/B7ShLVo78E82KUAac/Mu5CG0uQN8lDmrJI+H7KDK4aHCvo8mnfBmAYVfa8gIObNFots7pDFtuuLeLG6ihpTKOLtvwIkvkjvNQIaAY2ARkAjkEQg/wbcZI/0d42ARkAjoBGYCALGg3vLM23/WX78ABufGxMBo4gP0filG1WNn8YvHQLp7p51+lNO9J6XTSmQSnVeoZVVezH0WbWX9e+b9fY0fjEC6faa/jR+50Ega34QP3OW6e8v+WbYhiY5i58AAAAASUVORK5CYII=;" parent="1" vertex="1">
                    <mxGeometry x="113.94" y="790" width="212.12" height="210" as="geometry"/>
                </mxCell>
                <mxCell id="4" value="Agent:&lt;br&gt;Team&lt;b&gt; A&lt;/b&gt;" style="text;html=1;strokeColor=none;fillColor=none;align=center;verticalAlign=middle;whiteSpace=wrap;rounded=0;fontColor=#000000;" parent="1" vertex="1">
                    <mxGeometry x="113.94" y="820" width="80" height="30" as="geometry"/>
                </mxCell>
                <mxCell id="19" style="edgeStyle=none;html=1;entryX=0;entryY=0.5;entryDx=0;entryDy=0;" parent="1" source="6" target="14" edge="1">
                    <mxGeometry relative="1" as="geometry"/>
                </mxCell>
                <mxCell id="30" style="edgeStyle=none;html=1;entryX=0;entryY=0.5;entryDx=0;entryDy=0;" parent="1" source="6" target="27" edge="1">
                    <mxGeometry relative="1" as="geometry"/>
                </mxCell>
                <mxCell id="31" style="edgeStyle=none;html=1;entryX=0;entryY=0.5;entryDx=0;entryDy=0;" parent="1" source="6" target="13" edge="1">
                    <mxGeometry relative="1" as="geometry"/>
                </mxCell>
                <mxCell id="6" value="Offense" style="text;html=1;strokeColor=#A50040;fillColor=#d80073;align=center;verticalAlign=middle;whiteSpace=wrap;rounded=0;fontColor=#ffffff;" parent="1" vertex="1">
                    <mxGeometry x="125" y="540" width="80" height="30" as="geometry"/>
                </mxCell>
                <mxCell id="20" style="edgeStyle=none;html=1;" parent="1" source="7" target="10" edge="1">
                    <mxGeometry relative="1" as="geometry"/>
                </mxCell>
                <mxCell id="21" style="edgeStyle=none;html=1;entryX=0;entryY=0.5;entryDx=0;entryDy=0;" parent="1" source="7" target="9" edge="1">
                    <mxGeometry relative="1" as="geometry"/>
                </mxCell>
                <mxCell id="29" style="edgeStyle=none;html=1;entryX=0;entryY=0.5;entryDx=0;entryDy=0;" parent="1" source="7" target="26" edge="1">
                    <mxGeometry relative="1" as="geometry"/>
                </mxCell>
                <mxCell id="7" value="Defense" style="text;html=1;strokeColor=#005700;fillColor=#008a00;align=center;verticalAlign=middle;whiteSpace=wrap;rounded=0;fontColor=#ffffff;" parent="1" vertex="1">
                    <mxGeometry x="125" y="660" width="80" height="30" as="geometry"/>
                </mxCell>
                <mxCell id="8" value="&lt;div style=&quot;&quot;&gt;&lt;b style=&quot;background-color: initial;&quot;&gt;Defined by zone location of the play:&lt;/b&gt;&lt;/div&gt;&lt;div style=&quot;&quot;&gt;&lt;b style=&quot;background-color: initial;&quot;&gt;Offense&lt;/b&gt;&lt;span style=&quot;background-color: initial;&quot;&gt;: Play as offense in the opponent's zone&lt;/span&gt;&lt;/div&gt;&lt;b&gt;&lt;div style=&quot;&quot;&gt;&lt;b style=&quot;background-color: initial;&quot;&gt;Defense&lt;/b&gt;&lt;span style=&quot;background-color: initial; font-weight: normal;&quot;&gt;: Play as defense in own zone&lt;/span&gt;&lt;/div&gt;&lt;/b&gt;" style="text;html=1;strokeColor=none;fillColor=none;align=left;verticalAlign=middle;whiteSpace=wrap;rounded=0;" parent="1" vertex="1">
                    <mxGeometry x="125" y="450" width="270" height="30" as="geometry"/>
                </mxCell>
                <mxCell id="9" value="Defense" style="text;html=1;strokeColor=#005700;fillColor=#008a00;align=center;verticalAlign=middle;whiteSpace=wrap;rounded=0;fontColor=#ffffff;" parent="1" vertex="1">
                    <mxGeometry x="245" y="690" width="80" height="30" as="geometry"/>
                </mxCell>
                <mxCell id="10" value="Offense" style="text;html=1;strokeColor=#A50040;fillColor=#d80073;align=center;verticalAlign=middle;whiteSpace=wrap;rounded=0;fontColor=#ffffff;" parent="1" vertex="1">
                    <mxGeometry x="245" y="660" width="80" height="30" as="geometry"/>
                </mxCell>
                <mxCell id="13" value="Defense" style="text;html=1;strokeColor=#005700;fillColor=#008a00;align=center;verticalAlign=middle;whiteSpace=wrap;rounded=0;fontColor=#ffffff;" parent="1" vertex="1">
                    <mxGeometry x="245" y="570" width="80" height="30" as="geometry"/>
                </mxCell>
                <mxCell id="14" value="Offense" style="text;html=1;strokeColor=#A50040;fillColor=#d80073;align=center;verticalAlign=middle;whiteSpace=wrap;rounded=0;fontColor=#ffffff;" parent="1" vertex="1">
                    <mxGeometry x="245" y="540" width="80" height="30" as="geometry"/>
                </mxCell>
                <mxCell id="24" value="Success: zone control" style="text;html=1;strokeColor=none;fillColor=none;align=left;verticalAlign=middle;whiteSpace=wrap;rounded=0;" parent="1" vertex="1">
                    <mxGeometry x="335" y="540" width="270" height="30" as="geometry"/>
                </mxCell>
                <mxCell id="25" value="Failure: zone control lost" style="text;html=1;strokeColor=none;fillColor=none;align=left;verticalAlign=middle;whiteSpace=wrap;rounded=0;" parent="1" vertex="1">
                    <mxGeometry x="335" y="570" width="270" height="30" as="geometry"/>
                </mxCell>
                <mxCell id="26" value="Stoppage" style="text;html=1;strokeColor=#BD7000;fillColor=#f0a30a;align=center;verticalAlign=middle;whiteSpace=wrap;rounded=0;fontColor=#000000;" parent="1" vertex="1">
                    <mxGeometry x="245" y="730" width="80" height="30" as="geometry"/>
                </mxCell>
                <mxCell id="27" value="Stoppage" style="text;html=1;strokeColor=#BD7000;fillColor=#f0a30a;align=center;verticalAlign=middle;whiteSpace=wrap;rounded=0;fontColor=#000000;" parent="1" vertex="1">
                    <mxGeometry x="245" y="610" width="80" height="30" as="geometry"/>
                </mxCell>
                <mxCell id="32" value="Success: Goal Scored&lt;br&gt;Neutral: Stay in zone&lt;br&gt;Failure: Zone exit the next sequence" style="text;html=1;strokeColor=none;fillColor=none;align=left;verticalAlign=middle;whiteSpace=wrap;rounded=0;" parent="1" vertex="1">
                    <mxGeometry x="335" y="610" width="270" height="30" as="geometry"/>
                </mxCell>
                <mxCell id="33" value="Success: zone control gained/taken" style="text;html=1;strokeColor=none;fillColor=none;align=left;verticalAlign=middle;whiteSpace=wrap;rounded=0;" parent="1" vertex="1">
                    <mxGeometry x="335" y="660" width="270" height="30" as="geometry"/>
                </mxCell>
                <mxCell id="34" value="Failure: oppontent zone control continues" style="text;html=1;strokeColor=none;fillColor=none;align=left;verticalAlign=middle;whiteSpace=wrap;rounded=0;" parent="1" vertex="1">
                    <mxGeometry x="335" y="690" width="270" height="30" as="geometry"/>
                </mxCell>
                <mxCell id="35" value="Success: Zone exit in the next sequence&lt;br&gt;Neutral: Stay in zone&lt;br&gt;Failure: Goal Scored Against" style="text;html=1;strokeColor=none;fillColor=none;align=left;verticalAlign=middle;whiteSpace=wrap;rounded=0;" parent="1" vertex="1">
                    <mxGeometry x="335" y="730" width="270" height="30" as="geometry"/>
                </mxCell>
                <mxCell id="37" value="Offense" style="text;html=1;strokeColor=#A50040;fillColor=#d80073;align=center;verticalAlign=middle;whiteSpace=wrap;rounded=0;fontColor=#ffffff;" parent="1" vertex="1">
                    <mxGeometry x="180" y="790" width="80" height="30" as="geometry"/>
                </mxCell>
                <mxCell id="38" value="Defense" style="text;html=1;strokeColor=#005700;fillColor=#008a00;align=center;verticalAlign=middle;whiteSpace=wrap;rounded=0;fontColor=#ffffff;" parent="1" vertex="1">
                    <mxGeometry x="180" y="970" width="80" height="30" as="geometry"/>
                </mxCell>
                <mxCell id="41" value="" style="shape=flexArrow;endArrow=classic;html=1;strokeColor=#CC0000;strokeWidth=6;" parent="1" edge="1">
                    <mxGeometry width="50" height="50" relative="1" as="geometry">
                        <mxPoint x="219.5" y="830" as="sourcePoint"/>
                        <mxPoint x="219.5" y="920" as="targetPoint"/>
                    </mxGeometry>
                </mxCell>
                <mxCell id="42" value="Agent:&lt;br&gt;Team&lt;b&gt; B&lt;/b&gt;" style="text;html=1;strokeColor=none;fillColor=none;align=center;verticalAlign=middle;whiteSpace=wrap;rounded=0;fontColor=#000000;" parent="1" vertex="1">
                    <mxGeometry x="113.94" y="950" width="80" height="30" as="geometry"/>
                </mxCell>
                <mxCell id="49" value="" style="group;rotation=-180;" parent="1" vertex="1" connectable="0">
                    <mxGeometry x="340" y="790" width="248.48" height="210" as="geometry"/>
                </mxCell>
                <mxCell id="92" value="" style="shape=image;verticalLabelPosition=bottom;labelBackgroundColor=default;verticalAlign=top;aspect=fixed;imageAspect=0;image=data:image/png,iVBORw0KGgoAAAANSUhEUgAAAZAAAAGMCAYAAAD0q/QsAAAKrWlDQ1BJQ0MgUHJvZmlsZQAASImVlwdUE1kXgN9MeqMFIp3Qm/QWQEroofdmIyQBQgkhEERsqCyuwIqiIoLKAq6CKLgqRWyIBQuLgmLXDbIoqOtiwYblH+AQ3P3P///nv+fcud/cue+++96ZN+cOABRltlCYDssBkCHIEYX7etBj4+LpuFGABWqAChSBLJuTLWSGhgYCRGbt3+XdLQBN2RtmU7n+/fl/FXkuL5sDABSKcCI3m5OB8DFEX3OEohwAUA2IX3dZjnCKexFWFCEFIiyZ4uQZfjvFidOMxk/HRIZ7IqwOAJ7MZouSASAbIX56LicZyUP2Q9hSwOULEM5D2DUjI5OLcAfCRkiMEOGp/IzE7/Ik/y1nojQnm50s5Zm1TAvei58tTGcv/z+3439LRrp4dg4DRMkpIr9wxKoie3YnLTNAyoLE4JBZ5nOn46c5RewXNcucbM/4WeayvQKkY9ODA2c5ie/DkubJYUXOMi/bO2KWRZnh0rmSRJ7MWWaL5uYVp0VJ/Sk8ljR/fkpkzCzn8qODZzk7LSJgLsZT6heJw6X18wS+HnPz+kjXnpH93Xr5LOnYnJRIP+na2XP18wTMuZzZsdLauDwv77mYKGm8MMdDOpcwPVQaz0v3lfqzcyOkY3OQF3JubKh0D1PZ/qGzDAKBL6CDKMRGgnDARO68kWs4MAUgh5eXM7Ugz0zhchE/OSWHzkROGo/OEnDM59OtLa1tAZg6tzOvxRva9HmEaFfmfAUnAHA2RqB+zheMnPpW5EyRauZ8RiQAZBG9+IwjFuXO+NBTFwwgAlnke6ACNIEuMAJmwBrYA2fgjlTpD0KQmuPAEsABKSADiMAysBKsBUWgBGwG20EVqAH1oAEcAkdAOzgJzoKL4Cq4DgbBfSABI+A5GAfvwCQEQTiIAlEhFUgL0odMIWuIAblC3lAgFA7FQQlQMiSAxNBKaD1UApVDVVAt1Aj9Ch2HzkKXoX7oLjQEjUGvoU8wCibDirAGbABbwAyYCQfAkfBiOBnOgvPhQngTXAnXwQfhNvgsfBUehCXwc3gCBVAkFA2ljTJDMVCeqBBUPCoJJUKtRhWjKlB1qGZUJ6oHdQMlQb1AfURj0VQ0HW2Gdkb7oaPQHHQWejW6FF2FbkC3oc+jb6CH0OPorxgKRh1jinHCsDCxmGTMMkwRpgKzD9OKuYAZxIxg3mGxWBrWEOuA9cPGYVOxK7Cl2N3YFmwXth87jJ3A4XAqOFOcCy4Ex8bl4IpwO3EHcWdwA7gR3Ac8Ca+Ft8b74OPxAvw6fAX+AP40fgD/FD9JkCPoE5wIIQQuYTmhjLCX0Em4RhghTBLliYZEF2IkMZW4llhJbCZeID4gviGRSDokR1IYiU8qIFWSDpMukYZIH8kKZBOyJ3kRWUzeRN5P7iLfJb+hUCgGFHdKPCWHsonSSDlHeUT5IEOVMZdhyXBl1shUy7TJDMi8lCXI6ssyZZfI5stWyB6VvSb7Qo4gZyDnKceWWy1XLXdc7rbchDxV3ko+RD5DvlT+gPxl+VEFnIKBgrcCV6FQoV7hnMIwFUXVpXpSOdT11L3UC9QRRayioSJLMVWxRPGQYp/iuJKCkq1StFKeUrXSKSUJDUUzoLFo6bQy2hHaLdqneRrzmPN48zbOa543MO+9spqyuzJPuVi5RXlQ+ZMKXcVbJU1li0q7ykNVtKqJapjqMtU9qhdUX6gpqjmrcdSK1Y6o3VOH1U3Uw9VXqNer96pPaGhq+GoINXZqnNN4oUnTdNdM1dymeVpzTIuq5arF19qmdUbrGV2JzqSn0yvp5+nj2uraftpi7VrtPu1JHUOdKJ11Oi06D3WJugzdJN1tut2643paekF6K/Wa9O7pE/QZ+in6O/R79N8bGBrEGGwwaDcYNVQ2ZBnmGzYZPjCiGLkZZRnVGd00xhozjNOMdxtfN4FN7ExSTKpNrpnCpvamfNPdpv3zMfMd5wvm182/bUY2Y5rlmjWZDZnTzAPN15m3m7+00LOIt9hi0WPx1dLOMt1yr+V9KwUrf6t1Vp1Wr61NrDnW1dY3bSg2PjZrbDpsXtma2vJs99jesaPaBdltsOu2+2LvYC+yb7Yfc9BzSHDY5XCbocgIZZQyLjliHD0c1ziedPzoZO+U43TE6S9nM+c05wPOowsMF/AW7F0w7KLjwnapdZG40l0TXH92lbhpu7Hd6tweu+u6c933uT9lGjNTmQeZLz0sPUQerR7vPZ08V3l2eaG8fL2Kvfq8FbyjvKu8H/no+CT7NPmM+9r5rvDt8sP4Bfht8bvN0mBxWI2scX8H/1X+5wPIAREBVQGPA00CRYGdQXCQf9DWoAfB+sGC4PYQEMIK2RryMNQwNCv0RBg2LDSsOuxJuFX4yvCeCGrE0ogDEe8iPSLLIu9HGUWJo7qjZaMXRTdGv4/xiimPkcRaxK6KvRqnGseP64jHxUfH74ufWOi9cPvCkUV2i4oW3VpsuDhv8eUlqkvSl5xaKruUvfRoAiYhJuFAwmd2CLuOPZHIStyVOM7x5OzgPOe6c7dxx3guvHLe0ySXpPKk0WSX5K3JYyluKRUpL/ie/Cr+q1S/1JrU92khafvTvqXHpLdk4DMSMo4LFARpgvOZmpl5mf1CU2GRUJLllLU9a1wUINqXDWUvzu7IUUQapF6xkfgH8VCua2517odl0cuO5snnCfJ6l5ss37j8ab5P/i8r0Cs4K7pXaq9cu3JoFXNV7WpodeLq7jW6awrXjBT4FjSsJa5NW/vbOst15evero9Z31moUVhQOPyD7w9NRTJFoqLbG5w31PyI/pH/Y99Gm407N34t5hZfKbEsqSj5XMopvfKT1U+VP33blLSpr8y+bM9m7GbB5ltb3LY0lMuX55cPbw3a2raNvq1429vtS7dfrrCtqNlB3CHeIakMrOzYqbdz887PVSlVg9Ue1S271Hdt3PV+N3f3wB73Pc01GjUlNZ9+5v98p9a3tq3OoK6iHlufW/9kb/Tenl8YvzTuU91Xsu/LfsF+SUN4w/lGh8bGA+oHyprgJnHT2MFFB68f8jrU0WzWXNtCayk5DA6LDz/7NeHXW0cCjnQfZRxtPqZ/bFcrtbW4DWpb3jbentIu6Yjr6D/uf7y707mz9YT5if0ntU9Wn1I6VXaaeLrw9Lcz+WcmuoRdL84mnx3uXtp9/1zsuZvnw873XQi4cOmiz8VzPcyeM5dcLp287HT5+BXGlfar9lfbeu16W3+z+621z76v7ZrDtY7rjtc7+xf0nx5wGzh7w+vGxZusm1cHgwf7b0XdunN70W3JHe6d0bvpd1/dy703eb/gAeZB8UO5hxWP1B/V/W78e4vEXnJqyGuo93HE4/vDnOHnf2T/8Xmk8AnlScVTraeNo9ajJ8d8xq4/W/hs5Lnw+eSLoj/l/9z10ujlsb/c/+odjx0feSV69e116RuVN/vf2r7tngidePQu493k++IPKh8aPjI+9nyK+fR0ctln3OfKL8ZfOr8GfH3wLePbNyFbxJ5uBVCIwklJALzeDwAlDgDqdQCIC2f66mmBZv4Fpgn8J57pvafFHoBmxIS6A+BVAEALYg26AJCZ8iEa6Q5gGxupzvbA0/36lGgi/wsLXwL8hPCR3XAB+IfM9PLf1f1PC6RZ/2b/BbG3BoDx5JUBAAAAOGVYSWZNTQAqAAAACAABh2kABAAAAAEAAAAaAAAAAAACoAIABAAAAAEAAAGQoAMABAAAAAEAAAGMAAAAAJ3pN3UAAEAASURBVHgB7L1ndyNZdi144B29T6ZlelOZ5au62qiN1OqWnXn6or8zP0Uftd7SkmZJs55cd6t9V5fNSu99JpPewhvO3gcEEwRBADQgAoFzq5AEAoEwO869+x57PWtoYs0QMAQMAUPAENghAt4d7m+7GwKGgCFgCBgCioARiAmCIWAIGAKGwK4Q8O/qV/ajfUGA1sNsNiv5fF5yuZy+LxQK+p6f+d6aIWAIbEXA5/NJMBgUr9crfO/3+yUQCGx85nZrzUfACKTJGJdIIp1OSyadkWwuq0TBz8lkUhLxhCRTSX2fSqWE+ycSCclkMvqeHYPNXFVNflB2eEcj4PF49Po4qeKEi/0iFospifA7kklXV9fG30gkovuEQiHdxu9JMPxd6ViOvuE2uTgjkH18UBzkKdwljaL0d3FxUebm5mRxYVGJYmV1RbiNr+XlZSWRRLJIGhR0bqNmwvfsCNYMAUNAdOBnv4jH4/q+u7tbwuGwTrZIDL29vdpnBgcH9X00GpW+vj59z+/4IsmUiISaC1/UVoxUdidhHgx6FoW1O+w2/YowUmuYnZ2V169f62t6elpmZmb0Pbevrq7qDIidgI2zI86iKOgkCr7v6enR70geFHhuo3DbY1JY7J8ORaDUB9h3VlZWVEunmZeTtKWlJZ2EZbIZmZ+fF2ry3I/fkWDYz0gcJJaRkREZGxuT0dHRjRf7HPubtZ0jYASyc8z0F1SlaYJ69eqVEgSJgq/JyUklCgoxCYUzIwonhZjCzBlROVlQeLmd+3BmxL/sLCUbL7dZMwQMgSIC7HckB774nq9y0zAJhBM1vqjJb5iKYRam5sLP1DhKkzf2RxLKoUOHNgilv7/fNP8GBc4IpEGgVFBBCDQ7LSwsqEmKhPHkyRMlDs6KKJyc9VCjKL2GhoaELwolVW6+yrWOkq3WVOgGH4TtZghsgwD7aMl/yMkdSYSkwW3st7MzszI1PVU0G6/7GdlnA/6ARGNR7aMkk/HxcdVU2GeptbC/2kSuOuhGINVx0a00G1FNpiZBQaQZ6s6dO3L37l15/Pixah4UTqrHJIkjR47IxMSE/uXnSrtrjVPZV4aAIdBEBDixo6aytLykJi+avaitPH36VB49eiQvXrzQz9yPWglJ5PTp03LlyhU5evSokgu1FloIzGfy5kEZgbzBYuMdiaOkcdCfcePGDbl69arcunVLpqamdDYyNnZIzp49IydPnlQVuOS4o/BxtlJyzvEvtQvTMDbgtTeGQEsQKPVrkgT7N/9SUym3KpBQ7t27pxNEBr7QksBJ4aVLl+Ttt99WUuHEkGRiocIIbACo5kSHOJeEi74LmqY4K7l9+7Y8fPhQZyaFfEEd3NQyxg6NbdhNSypuyYdB8jCyaMn4YCc1BHaMAImE/hRaGdj3qZlwksgAGP59/vy5mqtpaSBhHD58WM6fP68vEkt3V7cEgsX8kx2f3AU/6HgCKWka9GGQOEgYnIXwRe2DxEJzFNXYUydPyRloHfxMsxVnISUNwwWyYLdgCHQ8AqXxgIRCH8oT+Dg5meSLYwId8wx8IZHQ+nBy4qQcPXZUfSUMhum0CWTHEkhp5kHfRskZTlPV7373O3WS09l99uxZ+fjjj+Xy5ctqE6XDu2Sa6vieZgAYAh2AAM1c9INSMyGZcHz45ptvVDPh9osXL8lHH30oFy5c0EguWiRKE8tOMHF1JIGQPKhx0HH29ddfy5dffqkzDKqpdJ599NFH8s477+gMgxEYnFmUMljNPNUBo4bdoiFQhgCtECQSmro4RjCYhoE0n332mfpFqZXQ90k/yXe/+105c+aMRnHRf+L21lEEQiEozSRu3rypMwmaqRjGNzo2qg+ekRf0cwwPD6uZyhzgbu8Cdn+GQOMIkExo3uI4wpwvTkLpK6WJi1FdtFKcOnVKrRZvvfWWTkjd7HDvCAKhqkmNgw+cYbh80Z5JIaA/g+onHzZNViQOahvWDAFDwBCohQDJhHkkNG2RRDgpvX//vkZ4DQ0Oyekzp3VcOX78uI4rtGa4rbmaQEqzBc4MGJpHlfOLL75QMmEpg/fff18+/uhj1Tz6+vvc9mztfgwBQ+CAEKBWwrBfmsQ///xznaQyPPj0qdPywYcfbJjES35Ut5jCXUsgpdkBtY1f/vKXShwMyztx4oS899578u6778q5c+dU5SwlBx2QrNlpDAFDwGUIcLyhiZwaCYNySj6Sr776Sn0n1EK+/e1vyw9/+EO1enDMcUNzHYHwQdLRRbXyyy++lK++/kpnBgy7pYnq0qW3QCLHte4Nw/HcMhNwgzDaPRgCbkCg5CNhnTyatfhiPgm3M7Odlo+LFy+qr7Xdxx/XEAiJg76OEvszsurq11elsFYQsj8fHDWP8fHDyC4thuO6QVjtHgwBQ8CZCHA8ovmcVhBWsrh+/br6XZlDwvHoww8/1LGJ0VpMD2jH5goCYVguVUcWS/v0j5/KL37xC00IpL3xr//qr+Wjjz/ScgTUOKwZAoaAIXCQCFDzKPlh//Vf/1VDf5lwyAntX/7lX26MTe2YhNj2BFIyWbFO1X/+53+qv4Nhc3w4P/3JT9VB3tNbrPffCYk9B9kx7FyGgCFQH4Fy/wgjQRnM85vf/EauXbumIb9//ud/Lp988okcO3ZsI9+s/lGdsUfbEggfCpmdeRx//OMf9aE8ePBA465JHkwEZE4HfR9WbsQZwmZXYQh0MgKlMYvBPHfv3JUvvvxCTVuc8DKVgEmITCdgFYx2SSVoy4QHzSRfXpFnz5/Jp59+qpnkDJljbZof/ehHmsTDuv6MdGh3J1Undzi7d0PATQhwLCJZMFG5r7dPDo0f0gkuS6OU/CMsrUQyYZoBK2A4vbUdgZTKkDCv41e//pX8/Oc/11Bclh/5m7/5G9U6+JCsGQKGgCHgRARoSqdZ/UJXsX4Wg3x+8fNf6GSYE2EmOH/wwQdKNE6fBLeVCatEHr///e/lZz/7meZ2sGwAbYgsesjohnZ0RDlRyO2aDAFDoLkI0KTFMW11ZVXu3rurfpFf//rXugIi89T+7M/+TMN9nTwhbhsCYa1++jtIHnwx65OEwcQc2g1psnIy0M0VRTu6IWAItCsCJRJ5/uK5+nOZzc5ls7lOO6O0OL6x5JITzfFtYcJiYiCXkC1FL7AqJrPI/+RP/kSd5QzPbRenU7sKuV23IWAINAeBkknrXOycOtBZM4u+XdbV+j//5981MZqBQZwkO41EHE0gpagFFj5k2BvDdJnv8ZOf/ESd5SQRM1k1R6jtqIaAIXCwCHASzFBeRo5S4/j3f/931NX6DMvuJjRJ+gc/+IGat5wUVepoExbJgjVlmHzDmjIE+O/+7u90vQ6ar5zuYDpY8bOzGQKGgBsQYE0tVg+n1YWT5j/84Q9KHDRn0S/CRas4cXZC8/0/aE64kPJroOZBGyATbf7lX/5FMzdZZv0v/uIvNOGGtkGGuDlNnSu/B3tvCBgChsBuEKBJiwRBTWRgYEC1D67RzpLx9JcwT4RmeyeUP3GcCaucPFiShHVkuEogMzW///3v23odu5FI+40hYAi0FQIkBxIFc0JIGrS2cDndX6KyOAmGbWJiouUmfEcRCIFitBWZ9n/+538UMK5HTtWNFSzJxqZ1tFU/sIs1BAyBXSLAsY6WlrfffluXzO3t7ZV//Md/VBLhRJsaCi0zrfQDO8YHQkCSyaRmZP7TP/2TRiDQofT3f//3cv78eQXQCSrbLmXBfmYIGAKGwK4Q4NjIyFOuxf5f//Vf8h//8R/CbT/+8Y91cl0ikV0dfI8/cowPZHlpWTWPf/7nfxbW0WdZEvo8qIGQeS1Md49P2n5uCBgCbYkANRFOnpnnRgc6G/PgaKlh6+npxau7JT4RR5iwWP/l3v17WoadVXVp92OOB9P56Swq2fwULfvHEDAEDIEORIB+EJY94djIxjJO9BNzezAYkGNHj4nH6zlQZFpKIFTDGLL27NkzDVWj34PJMnSWc/nHvj5bp/xApcFOZggYAo5GgNrImTNnlDQ4sf6Hf/gH9Ylw7aP+vn71i3h9RSf7QdxISwmE5MH6+KVYZ2ob/+v//l8b2eUHAYCdwxAwBAyBdkKAJMI8ONYApF+EpZ3+7d/+TQL+gHz/B9/X6C3ucxCtZQRCpxBjm+kQYpIgIwpYiv39D97XLEwzWx3E47dzGAKGQDsiwMgrOs9/gkXz2DRn7v/9F+nq7tKoLUasHkRrCYEwXJdrl3/x+RfC6pN0EDFM9wdI1WcdfHOYH8Sjt3MYAoZAOyNA38f58+eQ+pDUxfV++9vfavoDtzP4iBadZreWEAiLIzKCgLVeuDoX1/FgSBrVMmuGgCFgCBgC9RGgmYqRWVeuXFECoTmrVPaEBRlZxZeT82aasw6cQKh9XL16FfHM/y03b93UOObvfe97WkSsPmS2hyFgCBgChkA5Akw2ZOTq3/7t36plhy4BaiE0cTXbonNw7nrcMYsjFrPMfynPsRwtF01hSBoTBnnD1gwBQ8AQMAR2hgA1DObKkURYtSMajapP5Fe/+pWubshgpWa1AyOQTCajTnOWZb+H1bdon/vTP/1TzTLnzTdTzWoWeHZcQ+AgEKDWzpc1Q2A7BOhUZwn47373u+r/4HjLtAjm1XGJXKZMNKMdCIHw4peQac7CiEx8IVnQaV7K9bASJc14tHZMtyBQyINA8LJmCNRCgCRy9OhRzaM7ffq0kscvUXzxyZMnav2p9dvdfncgPhCy4cOHD+W///u/NQX/r//6r4V+D4aaGXns9tHZ7zoFAZ/f1ym3ave5RwSY/sBEQ46vjHRlBV/6Qvr7++XEiRP7bulpugZC+xvJ449//FQZ8cMPPxS+yJRGHnuUFvt5RyBAjd1MvB3xqPflJhmBdfbsOaRF/FD9IdevX5cvv/xSVldX990U2lQCIXnQ/saogBs3bmhpYjLj2bNndYWtfUHLDmIIGAKGgCGwgQAn5iMjw3ATvKeugsXFRR2DOZHPpDP76g9pGoHQ70HT1aNHj7Cu7+cyPz8vH3/8McqUvKumq427tTeGgCFgCBgC+4oAQ3uPHDkiP/3pT9WExeVxWfKEZLKfUVlNIxBe5NzcvJYqef78udrfeDODg+b32FdJsYMZAoaAIVAFAaZGXLx4Ub71rW+pxednP/uZ5t7tZ1RWUwiE2gfXNL+FRMGvv/5aK+xySVouwcibMntuladtmwwBQ8AQ2EcEOM5SE3nvvfe0PhYrgDCQidrIfmkhTSEQJgwydIw5H7zoS5cuadIgCyZakcR9lBA7lCFgCBgCNRAgiTBRm0nbZ8+dk2+uXdMkw9evX++LL6QpYby0s7E6JAmE2ZHvvPOOHMdN4Ipr3Kp9ZQhsRaBcYioLVJe+q9y+9SjFLaX9S99X/q70feX20v7CLzZ22navjd0P/I31rwOHvB1OGA6FNHDpxz/+M7l1s2gVGh8f3yhzsheL0L4TCFUjRlxd++YboXrzVz/5iZyB6QolvWQt17yU+nZ4kHaNjSNAM6j+hwxsvhfIjxerrXkRYcJBnNsKa0iuwwzLh1d5JyiOo8WRntv5eWN/zejG4I/t1IZ5TLYCj6fyuYZV3bz68q7/lufB2zfaMw+NffSlv3bAP8TJkg0d8CCceQm9sP5cvnBRvgt/yO179xDY9JkWYRwZGdlT9fN9JZBcLqfJK5999plM3n8gb/cNyJFMXjyPn8nKqylnImtX5VgElESKbIBrJElw3C8O+JtIYv0OSALcb437rP9OCYTf4zP/4//FVnk8fLv+G55I/9s4TPFHpXOXfo+dtrbSto3zrO9SbTu3YT9v6aJISrttvPbS9e/2GPY71yJA2Q7BnfDx4Kg8iV+VO9euy6effqpV0Ola2CzbjcOwbwTCC0wmk2q6egCGC2ay8vHEGemaX5RsMiO59Y7f+KXZnoZAYwisYXGyLDpHEq9EuFsKfn+RRPhzDuSlwbva4Wp9X/kdP9dr5ecq7V9tG44DqhN/NiNdhYxEQkHxltZvKP2u3rnse0NgBwgUCnk54fPL8Vi33FyY1Sz1t+CfPoZ11uls303bNwLhCoOzM7NawCsRh+P81Gl57+IlCXthcmDyym6uzn5jCDSAQB4ZtvGXL+X10xfy/NCEZCMxWaOpy8GN2pAX5t7Y0qKcyK3I6HCfhE+dKV6xdRYHP7l2vrQ1iYEo3oUpa/HeHbkOP/VNFFvsxsRlbGxsV1rIvhEIw3avXb+mKfPvwmn+PSy1ePzDD9T30c6Q27U7HwESyNoX1yT1y09l+v1PJDU4LGvBAIZo547EHrhvfIhW7EO04kR+WXrPHJXe736rzMTmfNztCtsTAT+Suhd+8XO587//t3AVQzrUh4eGxR/YOR3s/BdVMKP28eLFC6Hvg2n0Z1Cq5NS5sxJkmfYq+9smQ2A/EfBh/YPQQJ8EoXQUYArKRiKCpdqc7ROgMx9mX693TXzRLvEP9Iu/ZMLaT3DsWIZABQL9mFydPX9ey77fg7vhzu07WpuQRLLTtgev3ZtTUfu4f/++lms/deqUVoMcHBw08ngDkb1rIgIezJwCQb9EMRj7szk1DaFqXJFA6Fh24gvX58llJZROSjASEl9XrIkI2aENgTcIcBlcFrNlgiHLTd27f0+TCxkEtRFI8mb3mu/2TCA8IUuVcK0P1rtipd0TJ07s2ilT82rtS0NgGwT8cJxHI2EJpTLiBYk4vlH7QIeNppISjkVN+3D8A3PPBTJ8nRN8ljmh1vES/kOuFBuPxw+WQEgeZC0WTJyamtLiXbworvNhGefuEbh2uBPO4MOHxiQaXxY/BmXVQBx64Qwz9iAihtfZvzAtXbGQBGCCs2YIHBQCjLo6fPiwsMQUx3AqAFQE+H4nbU8aCE9WYi+G8DJdnhcVoQ3amiFwgAj4e3uk6zgc0cvziHdfdTSBeKh9ZPMShrbUH4tIpLtbvLsMozxAiO1ULkKAE3zmf1y5ckWr9bJ6CEkklUztSAvZNYFQ+1D7GZwwdKCzSOLly5elr69vT5mNLnpGdisHiIAfnSF2+JAMJVckurqCCKfMAZ59h6eC/yOYiEvv0oL0HhqVUF+PeGCCs2YIHBQCTBzkmH3y5Ek5jjyQAmTy6tWrMjM7o+N6o9exawLhCbnCFcuWsGAi44i5lKJV220UettvPxHwwv8RHRqQkaBXekAggRVoIU5tyP+IrCzK8Nyk9Ewck0Bfr1Ov1K7LxQgwYpa+EI7bUUQysn4hK/VyXG+07ZpAaLKizYzl2rmEIivu0nxFZ6Y1Q+CgEWD9Kh/ksO/KWzKUT0nX9EvWPSleBv/ipSVODvrCcD6et/Ti6X3wfXSvLsnhfEK6YXbz93S34KrslIZAsb7bxMSEaiFUBJ4gL2l5eblhM9auCITmK57k6dOnGnlFTz5VoUAgsKtsRnuQhsCeEcAgTT9Cz/kzMtYVkqH4kviQ5Y3hW7wYsH0rK+JFB0HP2POpdnIAD7QN/woc+7Ax8/weFGzsffFcRuHsHzx7WoJwnnvQb6wZAq1CgOP36dOnZWhoSP0g9GunUqmGLmdXBELn+czMjDAJhWoQ682Pjx9u6IS2kyHQLAS8yAcJj4/J0JExGYMi3PvsiXgR5x5AnlLo9aQE52aLBEKN5CAayMqDWleRyVcSe/5UgghzD+A1PD8j4yGf9L51QfzQmqg9WTMEWoVAN4I4OIZTCaAJiwTCkN5G2q4kl+zEk9BrPzw8DPXnBNhrsJHz2T6GQPMQwEDs7YpK39lTMo7aUkeePpAQZv6h6SmJvHohITgIPesl4Jt3EetHXicpDwisCxpH7+OHEnn9SrqfPpZDnryMHT0kXWdOiheZ8xumtqZflJ3AENiKAJUAlnXn2k1MCn/54qUszC80ZMbaFYHQfEUCmZyclPNIiT+E+Hs6z60ZAq1GwIPinWFEY42cPiEnB7pk5P5tCYM4aLpa86NwOkhmDWuANNMfsuHvoGaBzrnm94kvmZC+50/k5MtHcvTEOHw1F8UbiTprTZFWPzw7f8sQ6O/vVwJhFO2Lly/k4aOHmhNCd0WttmOPNxeMInnwReZ66y04LWE72209+VoXZ98ZArtBwIc8pNixI3L4XZR3v3pL5mdeyCpyLpIL/RJCnHsWZqN0/4Ckh0eLVXv306QFDcePCLAQzGUREJc3k4bP46n0onx2LBqRsXcvy9CZCQmNDINcdjV/2w0k9htDoCYCzN07dOiQRmRxudsHDx7Id77zHQ2QqjW270iCS7kfdJ5PT08rcdCD32NF4Go+HPvygBHAxCaIagh9F87IxJljWP8gKCOpVYkswgexMC8+hPl6UQm3WQ51D3yEXph5/ctLajbrwnkH17JyZKRfDr19SbqOjqOAoiXbHrBU2OlqIEBlgL6QCyj1Th83I2yZXEiFoVbbkQbC3A+G75ZCvUqeezNf1YJ4D99VqI/11MnSmbbOGBjGWvq2M/564FsIjo7IyLc+kCDMR3mPV+YSeUmNjEpyYFCyvX37r30otB7JI6Y+NTwiBXRKOvJDsTASbIdk6JOPpefSefExbLcTHecmz47ufBzHL168IL///e9kbm5OSWRocEhTM7aOKcVb2TGBkJWYec7BjGnwrKmy3cEdjZaTL45mR+C7hnpJrOm0VuB7vNbKZgPr++gsmut6l5lh+Dz0mWDQLK3vrQPW+vrfTr71/bw2DwZwPxKler7zbRnv6pHc519LYnFBMlhqORNEuXfgs++NPhYcey2QlkA+J4dWF+UoSGMMPo8e5Kh4u7s6jzxIHCrPqJCs8rwu0wxoKLX1fYryjOdSS55p+iMBl+1TOoz93T0CJJBz585pgUUGSH315Vf6WVcr3GYC2jCBlMxXDPNaQUw9nS50oJv2sfsHpr9ExymgeuwaSnuv8S86WCGVFi6SlEewQh6mkEI8KflEUgqZ9dhs9kdE9xSgDULfFA+csd5wSDhggmZwWOZEhMTPGkvIMfBjXRbOej0gey/WAmDZDC9eLIPO37i5I/L+AsND0vf2W+KB70Nu3pfeV49lGmalhZHDkkYNrQKworObOCh6HMwabHSYa9/ib9ZNV7H5WRmam5KjII/Dl07LCExp3cg49/XiGfA8bm6UX+S6bMhzHp8hp3n4hXIYNwrIyclDngvwRRXgH1LwAN0aTIoFlHdReYYG54VN3oPlVznueDDxYY6Pj/IMcmbdMx+IWGWeuWeUZ8oy37sd3ybKDiedTApnSC+tTLdu3xKuLtsHbd3HlWWrtB0RCMN37969q7VSJiYmtPquZZ5XQbXWJnQIEkUB+QEFrBvPjpNbiaODraBjxbENy//ye/4lOWC2VcigQiZms+xsxQ6CN4jsKb5Hohzflz5DU+Fv86vsxNBYYMPMIjSPnYxjHAnEiw7K2lH+HnRCCIwXMw8PXiQbPeY2s41at+Xk7xgqGxoblQHcq9/nke4HT6RvblFeP0vJHHwl8e4+yURjkieRAKeitlZHOyGYGCzp7+DLD3IP4fl1w8cyBH/LEV8Ba02PSs/lSxI5igoNwLopGo8DgC/JawGyvIYxIrcKeeYEaDVRnOiU5BkLz1GGKZfUqKkAqrwByqI8A3vg6gVxcLt+R40Fv8vnUGqcv8OuWeTScLBbgwZDEvHFupRQmNHvQ2l8T2BdljlZMkJpWEKIKX0hrI3FiurM85ubn5NBpGhE/YgYrNJ2RCBMdSeB8CT02LOao5Vtr4Jq5SaSBjsCBhp2gvzyimQXlyRHDQMdLcf3i3y/oh3OG0KnQGeg+SWEYnteDG4c8AMouscOowMcz8FBjA0PfqOhY/K4uaXisTPzcIQtLUlmelKys3PFDsqBFLM4Pwtfog4TOx5Xw+M2zvw4m+OM3E0JbiTYQH+vDH7nY4keGZeBa7dk7Potef5ySaYiPbIAEkng/vOxbsmHwlIABgz5BWAb0L55w3LsGLwwg/ZjsAwgqzyGZzeQWJHxpTn0jWEZunQOJqtLWCiqqziIlT2iN8dp03cb8lycoOQowwuLGNgXIHdLkO91bQOYcJJEmfJBC+aqi4HBAcUkgM8sYc8JzYb8Up4JN+V5Ha81TIDYN1R7wWw4S9mGHKexfERuBomheK4+yi5lGTNlP/oIMaf2TdlmjTQ3ynMzJYeLTbG24eeff67uCpaoYq2saq1hAqE3ng50+j94Ar7Uzl7tqLZtEwIFEEcOWkD61Wt0skXJwUHFDpdnaQvMjgMIg46grEVofFTYsbQyKwYvnYWhg7BDbfgyysli01nWP2B3fz87U4/O8iIlPwqeH8mrkEYY6yz8AFPTkkG4XurRYySzgbBgEvB1oyMOD0hodFSCw4NKKtVO0dbbmCdy5DAGrwHphl9i8P4TWbj/UGanH8NxGJKlYExWYSZJ+gOSpta2PpiVxn+aVPBkJASNsCuTlJ74igxC4xgIBaQfz6/3kysSRQhxcLBfkwQ9Os1ua8S2XDxNrpRfyk8WfzlZyZE85uZFQAhBTC5jF2HexuSHAznJm5Me5uhQoy6+L/rnNshjy1mKG9gHAiiSSbKh1qI+FMqyyjM0dWg8nBhlXk9JenJKEnfvqTbthzxrP8Dsmdqna+V5G9x2u5ljOpMKqSBQUeBCU6VgqWrjfcMEwgqNDO1ipuIHH3yg5qvdXmQn/I7aBgki/RKdDIRRmp0J/IZ+LH4UOXVSfJwt0S8BjYALIrEYoI8aRj2SqAOgqu3UILbsB00IHc/f1Y0ONSR52OXVt4KJQRazvCwGgNz9JcmC6HRWByIKogMGkbNA04BbGm3l/m6fanN+aHexY4dlEAPhKjCIzy9JCibFZDYpyZxHcjAfFuCforbHwc8Dsg0A2zCSErtiPomOjksXNJvoQK+ESdx84Tl6OLN2UVN5hraVnqQ8L0h+XYNmoAd9E+ET8PFcuqDaBgdvnZBApmkebZo845lQnnn+AGQ0fHKi6G/BdWYR7KOTNVxnFtfMfaiRBJn0DJm2MOrthZM5IawwMoqJJFM2mDhejTx4hIYJhAehA50zMKo3PLi1CgTWBZozMp0Vzc5ipj8D5yCc3yAFEgRNRRy8KfCcWdGZvdcOVnEVNT5Ck4F9uahtwCYvI7ovfS8ZzuIwg6M5jZ+zuHbeQ3Z6Rv/SER3A4MjfusK0hRkxNa/g6LC+onDq9mJyxHtWEyPWE8nQHEhnL4IaOFBSM+T90+8XCCDXBGRPs0mAAxJ8HK4rikh5xkQou4BBmJMLTITSMBsRD8qAyhEmFrx/lQ+YqPaDMGoI8Oav0Kf4TIom2DcVjWnuyuI605PTeJaUZ5i+8Jl9kfeRRXi39kFoNT6aZnAv1t4gQM2DPhBamZ7AmU6lIQs/FIvlVraGCISkwfBdHoxJgySPXppa9jhTrryYdv7MmZBGT0F4Ew8eS+rxEwzKs6rCs3OFYEcMw7QRgGnDaY49EluEr2NHdcBIoRZO+jler6cl/eKVpJ4800EiCjNbGOXHub/alV3U8WgrD0YOSXD80Bsx5ADK6CAGNCCaSAmEmpiL7vvNzW5+V5LnHPp9/N5DST19Bl8aqgrTZ0bfHMrFRI4fAYFiHMCA46Sm/g9oHJGJEzDZpiX1alLSz17AhDwJWX4qadxLAGaa6DmajWGqwTNlAEknPNdGnhP92ixpQmc6l+tg4VwWV+S2ytYQgfBHDN199eqVah90nht5vIGSDnLOcFZvIuzt5h0IogemjH7pevsKOhkWDKKzEJnHHICc1tne3AXerc/o6CMIQcukfTmFZ55C58uATBZ/83sJXO+VLuQzRE6eUEf/pt+77QPxCME/BDOM+nZ5fx1CHtmZOYnDnxC/fgNygXwazEgj705AnrF+CZ3T0L7aQZ6pZUaOHpEw5JnmWk6OUs+L8rzws//BvfRJ9zuXIc8T7pfnBvsnx3ZqIFxoir5vEsg8It92TSBMbacJaxYzavo/TPsoPgmq9zT5JOCETcM/lFteVdNUkE5oqMlU7WkPZoisOg8bfIAt3Y2DJsN5+YKDP0xzDcgwOw7zBe3fMPGsXrsB384rCZ/igHJMTUEkTVc24KHE6sqb23xT6udAP0/cfYBB9qX68IJj0Mpo5oPJ1Y8IKpVnyka7EGmFPEfgm2IkGE20NNnSdLty9Zreb+T0KVgJoGFHyiIdN0PUEZ9IIEwe5GqFjL4ieZBEWO69sjWkgVB9oR2MYbxHjhxRM1YnayC0h6tddXpWkg8fafQHo0NIGpzJBEaQ/o/QWM5+2rlxkNBoFjhDA5ip0WdD4kg9e46w4BnJwbbMBLHw4XEN0bTS5G36tCG7lOcM5Dn15LEGftCERTmOYlBllKCve90h3qa3yMum9q/+EsozTMkBOIr91Ehgos2gth+DXuj/CiGoInDQ/hyH4Uo/Hy1NdKbT+kQCqdYaIhCSB7UP1sJiTDCLbnUqgbBjMV8j9QyLrty6I6mHjyFwRyV6+ZJ2Nh/Wo2ib2Vk1iai2DTMSmuBC9BNgUAkhj4Kz1NUbt9Wu3IWQTfpHSKBKIu0yO612r520jWkXlGdMEKlxxGF+TT16BHk+IjFEVEVPw6zDvu6254n7ofOcVZvpTC/K832J37gpGURNxpZx7+fOQNYhz4ymc9v9NyDj9IMwGourFdL/TS2kWmuIQKaQtEMGYtkSFtfigTuRQNjZqPKuUuUFcawhSar3+99BCOPx4owFGofrOlu51NAc4EecPzqWHzkjvO/VazdBJvclBc2k6+3LEsNiThbZUg6ac9+rPMN3pyYcBH2wakHv97+rgRI6A+8AeSZBMO+J0ZFhmGNXvrwKv89NDR7p/vA9iULGOXnqNBJh6ZIwEmq5VAfLu1OJoAJRmTjeEIHwxzRj0bESRcQCw7w6rVHFT7+cxIB5TdVc2oSZyxGCg47hjJsyat0MjpIIwlkRiRWCLZxhyEkkLaaQYLry+VcaqRM5fVI1lXY34bn2MSK6LI9cF5L+KpzkNNtwJh45Ax9ASZ7xbOn7cX2jPKPqgM+3Ls8Ic08+GoRm/UqW//AZQpcXhPLMSErt464HpHiDrD8WhA+UEbc3btxQLYR+cEbhlpNIQwRCFSaNcDg6VUKYlZQfwPV4gnWZ18FIpMS9B6qBcMW76Nkz8HechPCBTDuho1U+aAgYI3Go/nvhdGQYLDWR5KPHGvZaSJ3QjG8tvdKJ+FTi5aDPzB5PP32OcHOsOocM8hCS6zREG0ERGs7agc+LlgMfZNjHMHWYoZloGL9zTxKwNLCSRATjX3BsRM1endDfaWGixYkmLP5lIjkVCRZbLB//6xIIc0DIPEwkIRsFUKhMyzM4qEM061Ko4hegeSTuP5D47XuSRSJSFPWNGPbH8gjWgAAETZ2szG4HJgu//K0kQbQFONe90FSD42PF5LIOtCM7TT60HhuSADkoJm7flTyS6mJvXZQYZJr+K2tAABMj1TYwUPphql363R8kif7Pytix/EVMijBhYnCMy+W5RCBMGqfLgmWs6AchoZS3mimYJA+G8C6xGB+SqWjCCkGt8QJktzd1LmIQXIZZhnZRfu7/8Q+l75OPVN13+/3v9P7oPGeZiIE//5GEJ45rsbuFX/yqmIAG4bPWWgRUnmGqWvr0c1n94ivIc056f/gn0v3x+xpu3tqrc97ZqY2QLAZ+/CM1U2cQwr74q99oBGK+Q+S5RCIM6WU+CBeZqlyhsKYGQqcJQ7jo/2BYF9mI6ky5CuO8R7/3K2LRQRZn0ygrqPqMf2fiXAQqPmtWudpRvlv4oIkwO511hphoSMdj8tETkO83yAbOKKkwQ9jawSOwrTwzGdTkufoDoTzDwa7yjAhLmmg7TZ5JICxfQgKhEkFXBjmhvNUkEGogJA+qLzwQqzSSQHhgtzbO1Ege9HckUfaAWbcM6WPCHGPIrdVAAHJBhyTLQ2gFVoSJJh881Bd/pQUkoQ67NumwBjSt+srkeQ/ImzzreE8TFhtJZEcEwp3pPKEDnQTCVHY3R2Cx3hHXMmA8PMmDK/j1IJSPZT04A7HWGAIkD0apqQMdJtAkaqhpAT7gGUGOgdqQXTwJaQyl5u9l8rw/GHeqPJc0kHICqTRh1fSBkEDoOGEGOg/GCCzXah/Qtria2srX1ySJmHgWWOv79scaoaID4f7IYsccpZj12yOMpY+cPq1Z60u//i1CRyd1md6OAaJVN2ryvK/Id6I8VyOQHWsgXMaWxMHsc9earxgsAPteElV0k1hxkWs6MEyXphiuwcxII2s7RIDqP2LqmaAVu3AWfiOPhvkySYtohlCwUbPWd3hY270BBEyeGwBph7t0oDyXCIShu+QABlLRrVHe6vpA6P8oaR9uNV8Vq3ROatw3V02LIPuUkUS66IxxR7m87Ow9sCuq/wgRhXmQZiyW007Cwc4Fl1hDy+3hkDsDbH/2NnneHxy3HKUD5ZljPp3o/EsuoDuDZqwSF9QkEKorjMLij/ie0VduM2HRTsyFZlKPn+qSnN0f0OSCzFM4z6ss6bdFpmxDfQSURLC8aRdII4OyOEmsx4CwPi3QqCsdujymvj5C+7eHyfP+YbndkbaVZy645rIFqjjmlxaSoj+cFqlyAqnpAylFYTEXhIxTYp3tgG237exszDKP37iFyKvXEkYpB67lTBOWma3292nShsyy8P0/+gFMVwiJRAn8BBYqKqCemLX9QcDkeX9wbOQoVeX5LuQZCdduaVQWOOZz+Q6asUgcLO9eIhTeZ10C4Y/o/2AElqt8INCoCghR5oI5mdkZLUfe/fZbxaVJAZq1fUYAwqh5IojOip0/p7W0Vq9+oyHTNG1Z2yMCJs97BHCHP+8QeaYGwigs+kCoUFRaoWoSSAlS2sB4EDdpIHmsdc2lLlnvhmWdozBbFfMXalr1SpDY390gwE4HQYycQp0sFO3jeiLxO3d1nWrYSHdzRPvNOgImzy0QhWryjBIxXHfdTfLMJHK+Kh3oRLwhAmnBo2nuKTFYZVFELo7if7mlFV07mcmC5tBtLux6dDgiAzARMrOf66vHsaZICtn++UTqAE7u0lOYPLfuwXa4PHckgTBKJf38haSQbd79wTtY12J9WdbWiWFnnRlqMcvDxC6cR7Ih/CHIu2EVX2u7Q2CLPCOCkLhaOyAEXC7P9IVQ+2BB3UotpCMJhEtYcm0Pro0cRX0rlisx7eOAOtv6aWjKYrZ6FEELaxmG9z7RUvksvWFtZwhUlWd0emsHh4Db5ZmBVAzj7WgCYTlrRl0xjJQVNSNY75kL6WhpjYOTNTsTEPD4sP4Csv1jWAqXyYa5xSWsL19c5dEAagyBbeUZ9eqsHSwCbpdnpnFUSyTsKA1kDSoYK2pmUZaYg1f0HDKkMRO2kN2D7Wyls2k8PdahCB09Cg3QJwkENHB9btNCSgjV/mvyXBufg/7WzfJMzYMk0rkaCAGA1rHy9VUQhlfCx45iHfNeK81+0L2s/Hwws2inG8dCZcODSh5JOtSxDou1OgiYPNcBqAVfd6A8d4wGkl/FGtDPXmKQSsD30a/LU3oQmmbaRws6Wvkp0ekCWKiMK+J5YHpJwbxIc5abwiDLb3e/3ps87xeS+3ycDpPnziAQhjliPV+arxidwsGKoaRtSR6YeUKPLL7KZZ/bcJ+CP+3WuPobF+7hc8nOzqkznZFF1rZBwOR5G2CcsbmT5LkjCKSAKpIcmFIvXsJUMozonxHNhHaGuO3gKgoww6WzusIfV5krb2uIksij7L76D9qNRDBr8yESjrkha7msZGZmNE9HibL8Ju29ImDy7HBB6CB57ggCyazParlEZQQ5H7qyIB5yWzVoGGsgwjRWS0wjgz6H1cE2GghDEyNv3lUT3VphM7ls7OfgNyxCx0oA/q4eXdSL2bxKktSsrG1CwOR5ExyO/NAp8ux+AsH4k5tfFNqM/SgKxtUFtWKmI8WuxkVR+wCBZF5Pg0BewyRXRiCwW+WQWZ+4fQf3uQotpP3KgnCdear+kTMnheGpmalpya0s6/saqHTeVybPbfHMO0We3U0gmL3mUX6Yi0WtZXPI+RiE9tGl63a3hRSWXST0DzVPMcw1hyilAu6rvBVQ24vhyQztbFfTjwfLJocnTiAyyy85+KzMmV7+hPHe5LkCEGd/7AR5djWB0B+QxZK8WUT1cEYQHBvFOhTtXmkXoa80v1Wa4GiRq9zm7P615epYIjs4MgQzVlTLvGfnFkCIMMeZGUuxMnneIjKO3tAJ8ux6AlFTCAjEixDR8JEj4mXorjXHIlAkepgZkejJIos5Ncm1n0+nGQCTQEyem4Fs847pdnl2L4HAZ7CGxYpyi8uYmcO+3t0l3ljEal41r6/s25FDh8bEjzVoWPAyhxUxGWHW8c3kuW1FwM3y7FoC0bDW1YTa0rm2uX+gH/WX2t181bZ9aEcXzhUhfT3dqByQ0Kz0QsYIxOR5RyLkqJ3dLM+uJRAuLUnfB/M/GLbLyq/W2gMBbygIDaQLWmO3hitrwECHR/OaPLeH7Fa7SjfLs6sJJLe6osvWBvp7JTA0UO3Z2jaHIuDr7UGRxSOSmZySPHJeNEHSodd6EJdFAjF5Pgikm3MOt8qzawmEYbsFlsOA05wVd70IEbXWPgj4uro0sTA7PaNhy0gIaZ+Lb8KVmjw3AdQDPKRb5bktQ5I4Gy2kM3ilq4sAawXNzGr9Kx+SB71IUGv3ENfqN+rerfRbBQZRoXd5WbPss0gG9aCSQLXGvBFG2bHSQDs+Z5Pnak/VXdvcKs9tSSBaCwilLjKYnVZrnK0x3DEzOYnEtIn2rHtV7cY6aBs1Rn93TE1XmdevJYmwXlbrrdYYYacVfVkg09dmJWpwQybP1Z6qu7a5VZ7bk0CgfbBWUgpraWPKWSFpWL83jaxsFORjBnrw/fdQugThu9baDwFEzflRpTc7Oy8FTAoY2lutMUDCGwjKGnxdHjrbK0Wi2o8ctI3atMmzgx5Isy7FhfLclgTi0/W0h5DeoenXFY/bg9BP5A7Q6YhyGAGE73pDMGG1fcO9Ipte6LWqNUDW+75dcEBWPU1TrJychRPdD6d69NTJqiYqX1dMv/cg36cmNg69d5PnGg/G5LkGOK3/qi0JhGFxgcGBbWakHg3fJXmkX74SDi6egHNvk/Zv1nziWu35RBwSsQ07wK/DoACa5Xyx2NbdUO6DphCuK87KvB5/dX8BRY6lUHgMrgLoizg3udLj86sGwvtiKLbWyaoCD1c11Ptt01IuDcvzK8gzzHXb+YJaP5yg6ozJ87aPwY3y7NyRddvHgC8wE/dyLXO+qrRCNiNemK34InmwnIAjGwZ9lixPv5yUxP0HqLQ7icusfq2sUCtYK6OQTEvk7CmYbCoeHaPNcJ+rV68h8ixQ+56xX/jIYel+7204nkO1920ZcMXlbv19fcDltdbDYm7IdvzassvcjxPvQJ4p9ybPFaCbPFcAcnAfK0ahgztx086EgTa/vKrrYtAEooUHm3ayPR4YM2bW5gofHldNKZ84U+OAMO5rUUGP+LH4ErNbNxqOEz5+TAb/r7/SqsMb27d7g/39sS4cp8+52fnQNPj8wuNjkrz7Zp2TjqsmUCHPjiZQk+ftepxOfNwoz+4jEDxCaiDihQMWZi7HDzjw4/hQYp6hxjUXgiplYqOTKjFWaCA0SYWPHsXNN1Z4kOq0mkLUj7S93Lf0G1ybB+bKNYZskzxLL2DQSW1DngcGoX04vByPyfP2oulCeXYfgdAshIgd5gMweQc9bvsH6oRvSAgIWeWr0UY7M4ME6BPB3apJgz4ALsjUjnkQte5bzTVMIsQ9d2SrlGcnEz4fkMlzTTF1mzy7i0DWZ6hc+pX+AtU+XDZbVSclHO50lGuJD5g4tNZObx+c4kPiC8MvBJuwaxpNWSRYmLM6rlWTZ0fbsHb+hEyed46Zk37hul5JZzPDPnNYwpYhoDRluWVWrp1tYVGWPv1M4l9/I5kXzzXqxYv1xMOnz0jPtz+Rrovn3JV5zxktfVltvxDY7rr9Fnl20YTI5Hl3MuGkX7mOQBRczNy8mIkXS7i7ZDYOYiwkErJ67Yas/OF3krxzB74BLF/r9cN3gsrD87P4flWCQ/0SOnRIfQdOErTdXwtVkPXX7g/S3r80eTZ5dqgEu5NAOGuF2UMz0J3uA2lQMDgTzWN9k8Td+5J8dF8yMy/BHTBX+QJYOCuJ7xbhZC5I5gffR4RWv/jhfLbmEgRMnk2eHSrK7iSQDbBLoUsbG9r2zVoeBJJMSW5uTgqpBExXafiV4euBEx1TdLy8CF9eUN+IFpmk/dxF5o62fXD7euEmz/sKpx1szwi4xL6zZxycfwCdhaLqLCKtGIL7ppE81hv3YaKZfl+2vfS9/TUEnIKAybNTnsSerqN8JNrTgRz3Y8zY17IM/XTHrM3jw7ruqEgbOn5c/LdR5hzOdG8YmfZ45VeWNT8gfPyUBEdRWDAC05bxh+NEck8XZPK8J/jsx81BwJUEwuxzXUM6vorEOncsRMT4cfp0oufOSeYV/B+BsK6H4gkgWKB3SGuDxd55FwQyqmtjNEdcWnVUd0wCdoueybPb/HnukWcXEkgx7FNDBFGkUGtI7bbnOul3IEXWQYqeOQV3h0eCh8Yl9eABSCQrAZQzj5w9I7Erb0kADnR3hbwiVbKADueSicDORcrk2eR551JzUL9wF4HQrgpTDyu3sgovtRAdeNziUFYSCaCs+QRCdUcl/62PtHQJiYXmLeaDOL7UxU4lG+RRSKW0ZthOf9r2+1fKM7Px3TN51SAPb8jkuZ3l1F0EUnoSLGWOzldA1JLjZ64cEDC7Vk2JRLdNK36DsiUkEVYYxvoYLO3N+lA0b6mZA79liZOG2vrg1A5Z6x2biV56kBvynNTnXdrsyL8mz3Ufi5vk2X0EwgGWa2NjYKVz2fEmLJBHbhXVg5E5X0hts8b7ukiy7pUX5ivW+CJ5eMNvFsrKI8kwh3XDuXZG3VkqMGLdLFb1ZcKlY8N98QzXMsWSNE5eA6PuiLGXHcrleRkLpTndlGfyvP3TdqE8u5BAsFYIFkmiKStPHwiiV3RAdWJUEgWKHQ5L76ZfvUYOB5IBt2vr+7Labgjl38PHjkiwRCCY9ZE8mKVO3w9UktqkgO8DWCo2ijXGOTA7tmIxnl1uBYEQaJy1KdFhQO2ohmf1Rp4hH04mEJPn2qLpQnl2IYEgORthrCwwWNAKrtubhWo/7QP6luMhS6uj3pM3iMexTeY8iXANvoDM1IwSIrWQ4ChqfWlbw7rhc7J6/aZE4B/hdzWLD0KL8QZRI0yzgBw6IHMwgg8rMzWF64RfC+uh00zXcQ23vEmegYujm8lz9cdTTZ6xRnq7t7YkEGZa55ZWJItlazeZXyC8lF/OWjOTU1o7Ko+S5/7eHMblxsulH9hDxYDI2X9goE9NSmp+2u7kIJB8PKGmOUFhQdU0yveFZsJ7D588gXpYWDeCM/btmppFgrqsbXFd+e12bO12Ekh2ZhZVh5clA5zi9x9uft7rl8fwZhKMLvfahpWIdyTPkAG9TydWJzZ5rtlhtsgzyhJtGr/aUJ7bkkBoF+ea56lnz/EAypLp1wkkH0+CXBbVoZxD2fMAVu/z1RpQaz72Jn+JTudD9BRftZqWMoGvJAVT11qmiq+EnRfOdZJHcMwFuSCcsUGDzM7NI1QZC0phIpB69qJqhyMBeyAHG2vFk0nbqO1Enqlp+ksBFE68R5Pn6k/FpfLclgRCBzl9B1xPXDwVKj0HD3zPGbgXNv7M1DRyJkaLEUvVH22bbMV90v7NnIiKW950A/W+37Szsz9oLg8mCtQu/D0961rXVnYo+rkYoYb72fq1s2+SV2fyvP0zMnneHhsHfNOWBEKTRfjoYWRfD1YdMDijS794pZVrczB/aDivA8C2S9gBAiRJTBDyy8sSRZJkF5IkWeerGkF4OVnQhbTa06Zs8rwDuWjXXV0qz21JIAJ7uEamcECp1jhrWY9uSj58LAxxtdZeCOQZMDA/r7W+GG7MEvUeJJ1Va6U8mGrkUm1/x20zeXbcI9nvC3KrPLcngdDej05XK/zUi0x0H2zFhVRSNRA6sGpGJu23xNjx9oRAHoEQqZeTShw+mK8YVUcfjyubybMrH2v5TblVnss80OW32/7vWT/HC1OXB34QRrkwGsta+yCQg+kq/fwFliUehg8EGfcIPe7kZvLc3k/frfLsWgLxBoIS6O3VCKwcEgoz08ifsNYeCMD8WEDEWQ4RR8HDh8QHE1YtbbM9bmpvV2nyvDf8WvprF8uzawmE5g6N3sHgk0Wmd5YEUit6qaUSZicvR4ClXXLxuDDfJYDCmIym6/Rm8ty+EuBmeXYvgdAxicgcf18f8kFySDxENBZMWQyZtOZsBJhtn4XWGBgY0KrKXhBJpzdqYCbP7SkFbpZn1xKIihqydQODA+h4xcWXNLkQGd3WHIwAIujSL14iUXRJa375EQxhwQ/rz8vk2cGCu82luVyeXU0gdDwGxsa06ixzQdJPniL5sMFy59vIg21uIgLobPlkEoUhUaIGWehMAPWwYGQblidpBkomz81AtYnH7AB5djeBIDzS3xUFgfToIJRhXSWUTHd8SeyaMo0sfDXDuc8UV0CodQraBzPL/Sg/ExhATS8UmrRWRIDFJE2e20caOkGeXU0grG1B8wdt6d5YROtj5bS2UpVaUg6XSw4eLM9Ck1xweFAr7pZfsg/O5vCJY0iwDKM8WBuGvLKcB3xUqUdPlCBZbt7fiwq8pn28ecwmz2+wcPq7DpHnjpjecTAKTPdLGsX4aF9nNVMfTSPokG3TcK305URQbRcqlK7jsXHt+C4IU11PNKZBA+3oM2CipyZboUAmCT8w0K8Vijs9/2PjGZe9MXkuA8OhbztFnjuCQBjOG2REDxaaSqJGVgDVamkiYQ2ltmmcfSISxweTHFvl2hi8N66NzoW02ooY1x8Ay/MnqH0gYs6PGmda58y0j3V0Nv8xed6MhxM/dYo8u9uEtS5ZHHgDQwO62FIe1V0zr6d0jYm2ywuBwqR1nziwVmpPMFvRybpluxN7V8U1adl2Lc//TMN2aaJjyXJr1REwea6Oi1O2dpI8dwSBsMie+giOH1OfCNdUoEOdD7rtSMQpvWQfryO3soLnMaO5OsHxQ7rcLmtfWdsGAZPnbYBxxuZOkufOIBDIFc07NIsEj4xLfjUuaRTqK6DiK/0J1lqIAMo8ZF5P61K9jLiKnJwoah+VGlYLL9GJpzZ5duJTwTV1mDx3DIFQ3LzhoPS8fRm+D59kXr2SNFf3g83dtJAWdUZ0NpbaZ2BDfnlFEweDI0NF53mLLqmdTmvy7LCn1YHy3FEEorbj4SEJHTtGZ4Ksfv2Nrp++hvXErR0wAghz5BrwqSfPJAufFMt0xC6cLZKHaR8NPQyT54ZgOpidOlSeO4pA6GDWUNgTJzRUlDNfrqtOk5a1g0WgAM2PpWXit++qLyqEyLgQ/B/tGIJ8sMiVnc3kuQyM1r7tVHnuLAJZl7HgoREJHzuia4XEb95R+7uur95aGeycs3O2hmq7XO8jidBdhu1GTp1ULaQdo8ha/eBMnlv8BKrJ8+nOkOeOJBCq/lxnoueDdyUz+VqSDx9pFJD5Qg6mIzL6LT05KStXr0twdESipyZ04aiDObv7zrKtPLvvVh15R1vk+fQplWtHXuw+X1RHEggx5Cp34YkTEjl7StJT0xK/eRumrFWNothnjO1w5QjA0UizYeLBI0TBpSV2+RKKJo65d7na8ntv4vuq8oxlgRkVZK2JCFST57GRjjHFdiyBaF0plMuIXbqgCxalX0xK4v5DLbZoa4Y0p8NpgtX8vCTu3pfs7LyaESMTx7W0jJmu9oa5yfPe8NvNr2vK824O2Ia/6VgC4bPiKm/hY0clMnGCH2X5y6uSRYJhIZ1BaK/7qt3qTbboH1ZALsSTEr/7AJGmUHmKAAAyMElEQVRXT0HaAen+4D3xowgkTTDW9o6AyfPeMWz0CCbPRaQ6mkA0KgsDWfTMKQmjSCETC5c+/wr5IZPFLPVGpcn2q40AuJiRbonHj2X5D5+JH3XJut97R0Kjw0YetZHb2beMyjJ53hlmu9zb5LkIXEcUU6wpI+h0LBtOUwrLiScePIQp64EObKGjh62ceE3wGvsyB/JIPnwi8W+u6eJejLgKHR4v2omBv7V9RKAkzyjtzyTNFHxNCYRKs4WPHzXC3geo8/GEJB8/kdWvvpEA8spiZ09L+AjGCiwd0WmmWCMQCBTtx0EIAs1WORT1y8KpnvD6xIN6TEGsv9GJgrEP/UzxZLIgw3VT6HAc0GJX3lKzIZ2+ndbZ9gXTBg6i/hAObOfOSH5xUYNEhJWcoxGtM2a5Ng2AWG0XjA95rGyahAk2+fCxynM3IjlDMINziYhOlOfONmGVCQkzoUNYQrXrnSsgDB8GvMeIzLqjBf5Y29/aDhFgbHwmixybWU0WzMJ5zjpXXQhaCAz22zK1O4Rzp7v7sLBYGHXf6GeiWYt+p/ide7rmiuU87RRN7E95hoWC5u349ZuSg680inDd6JnTqlV3InkQRdNAymSJMzM1ZaG0CcN6E9eus5AvIrXOF/MUbH2KMrRqv6XmkZ2elcVf/w4ztbiEYQ7seu+KztTMaV4bu/36VuUZZqs8kjYpz/Gr13SWHLt4QYJYZE2Fe79O5vLjUPMgeSz95ncaGh05c1Inm50eBGIEUi74sB9T/ac9Uwpr2r+S8ImwVlYU5oAQ7ZxGIuWIVX3PctascRW/dUcHr8jJ4xqoEOjvNxt8VcSatHFdniMnjusJEpDdFELV1xBlGIHdPgJy6dSZ804QL8rzU1kFCTOvJoIs8wi0D39PT8fLsxFIFUnydSHJEKVOuJzq6pffIGsaVXshOGv5gtZroknAOt5W4IiROhjvP0KJkseSW1xSfwfV/OA4kwXbaAXIrbfXtlu4OBdD1T3w6yVu3cZSBq+kkM3qBCkIs603iLVXLJhhy/NVeWYACCaRLLnDJZejCAAhebCCgvmSzIS1RWhKG0giFBaPNyCrV68WB8SlZen75OPigkfwmVinK6EFEzHKk5A8aGtfhamEWeZRVNeNvXVJAn29mnPzZm97d9AI0NQSO49qx3D2Lv/xC0lxQIRpq/fjDzWAxAuficnzm6dCP9FGtBVK7uQpz+fPvDFbwdxtDXNsA2F7BIo+kaPS8+2PddbBRahm/r9/l8S9+zpAiuUaFsGD5sHM8pWvrsrCf/8PBiIv/B1vS8/770oAa8/rUrvbw2zfHBACfA5hhE/3fvIRBsOz8FHNyNx//UzD1guw8Zs8Fx8ENQ+uWrr85dcy/18/x3Kmfun58D3phTxTmzMf3huBNRp9g8XWd+s2ZA3xxbc+hPUm7j2Ula+vSXZ+QWIXz6MsPOz6nI10ogmAYY2wp3M2SzWfC3RxrZXI6Qk4zY/o+uZiPqOtctWqLSrPfg0I8fi8GtabQDjqKqKKWFo/ev6cyrMXFRo6Up7h98wjmZjmKspzBuvUMGcpCp8Hg0A0VNfkeZP0GoFsgqP6By4fyvUqfJGIkkXy8VNJPX2uCyKF4aAMjgxrccaOsYlihsYQXXUuPseaKhiEcsvLGp7bdeUS/ERj4otFLVS3uji1fCtD1mnD90aj6peiv0rlGVpIGAm1/I55Oh0lz5gI5WCiZo4HA0Bo3mOSYNc7l9H3R0C2kOdOnCTWkVYjkDoAlb5mZ6K20fPh+xCsYVm9cUtWkVmdmZmDbflMMTkOtn4vtREXz1Lo6ygkk5Kdm5fk0xeyylBn3G8EJdlpsvL3mcmqJDNO/qvyDHn1v/u2+BEdt3rthq7QmUF+AzXr8PFjWqGB+7k28hAmaEZYqjyjHycewX/39ddIIMbqmOfOSjfMVsVIK7P0byfLRiDbIVNtO00A6FAR7Vy9qtYuf/alLH0Kp+Szl+h459TG7EXGrxvtpFp9lMSBKCtWLs4gYz8Mc1XXBQw4SFrzQutgpI+1NkFA5dmn4bz+HkQeHh6T5c+/hpP9c12nnk5jlpzh7NuV8gzyyII4mFWuawLBJxQ6fgLJrujHCNn3dsXcS577JKJGIDsFkp0OYbyBgT7N8KVZK/XsBXwicCJ/gUKMMOkwNJJmgADLoLhAG8knkpKDzycNmzBDQHPzixpV1fPhu1qEMjg0VFTxEfZsrc0Q2JBn+PIg175YTCdD9PGtsLAo5JkkovKMgAg3aNcshEgNOjM1o8mBDDf3wr9JR3kIk0MmWbLsixvutdnSaASyS4SpifhpAkB4pA8v2pAzGFx1gF1agoDOqd/E39evkRv0o7RT5i/DGFmdOItaSpylZTA7Y2QKVX4/yJODChME/b0I0bVy7LuUIuf8TOtnwfzo76Y89xTlGZnXDIzIrRQHXPUF4HnTP6Ly3EaTI5YjYjZ5FpOf7AxkmfI8t6CBZ36YpqlBU555726Y9B2UZBmB7BVpdCJGHAXhF8kePy4r8AnQtMMBl87l8AmsejhxQh3M7KSc5amAYubnuIaoKnY0OsgZA0/CiKMysRIHnIx0ukYvnJHYmdPqD3Lc9dsF7Q0BNWlhjRxkqFPj4HNfgW+E0UiZqSnNhaL5lhUZ6A9UUy1lmkTiZHlG0mQeJJiGxsHFzFgwlXLOQI8YzK/MLKdFwdrOETAC2TlmVX9BFTh4aET6B74Hx/qsLtuahFYSv/dASz/TGcelW2NIrlPHHEMlndRIHiCO5PMX6t9gReI1dDy2wOCgZuZHUCKcJg6SoDV3I6DyjOij/v7vwnT5Ws206RcvJXHnvhbH9CEfgpOj2DkUE+Ss3WnyjMezls1JEtecpL8OOVysyebxo/I2+iFJMoJqE0USRCa+tV0h4LBRbFf34Iwfrc/efDBthXwI+8NAG4KgZlBQMAczEGf0aawFnpmc1O/8qEjL0OAA7K3ecLglZiCWZmHoIn0bnGXqzAydjs5yOhCZQc7rY2SVmusY2mnmKmfIW7Ovolyexw+paYtmHhbIpOmHg3HqyRPI9DPk+3Spvy8IeQ5ikTCV54M2b3ECBLmlPKu5FRaAHHJbqE0XoG14u6I6wQuOjkGmByDPPeLHdZufY2+CZASyN/yq/podKIgX1XzO3umko5OdfpEcMrYzCZDKyrI6pmkW8mOwZif0rf+lfVnDJ2kWKFm6dmoiQIfaaOxczN0AORSwJgfJjC++52JPOfhscqjzs4YKusy0DWLmyQCAAFYOpL9Dr+egB4SNi7c3rUaAgSJ8UZYDg0M6IaKTPTsLMlFfwryuOEnHNLUUOqA5gWLiHf8qoUBDQfjJ/soz5JUBHnSK6yu+ipDclOSXV/AZ76FBUzsKjQxBjtEXEa5MBzm1KyOO/ZEqI5D9wbHqUZjtS9sqX+Gj48VOxhkSnXgwEdHhnnk9vR7VNYAZ0iFdk4SzfR+SvXS2v25jpp3Zg5IKLPBYr9G+S2c3KwrzvTDWnYl/q/BraPTJtHb+PJL/SA4B2LsjR2HXRkKkj1oHOh1rI5kzsR7SnfV9uTzTD8JkO06O+KIGm37xAmtl3IDc+JBb0idB7KPRW5ApypOX8ksioSyrPMN3ohOTWjJdlGFqy1yToyjPmAxhbQ5OejKckKEPZaendSLEIIAACIN9KQBtiNcRgOPf5Lk5smoE0hxctxyVGgXtxtQ0mLleOHWybPa0ouo2TQPL8EHkoREU0inNEmY2rC/WpTMpdgbO5rYlESod0DQy0HTyKyvayfJwhOYwI2PHY4IUkyCpGdF5SFWex/PDmai2YGo+XImRJKUde8tt2AZDQBFguRMPJho0A63BdEX/WG71AkgFGgG1a2rdMCEtI7M7D+2b2q03EsXgjgx4mJNU22bEF36/7UQF8lzI56C1U4aXdcnp3AL6BoirAHOVRo6hT/ihVcSwEBw1JF8kpNoStSAPJ2EkKsqyyXNTJNcIpCmwVjkobco0Q0GQfShqRzWanWcNgzk7V0kVp1mpkErq4E8n9hq0iAJmXwyrZXSX4Lc1G7NrcyjVDcIKooMLCEiz4/GZjk4/yMjHDkzTAl6cVbLIniYAWierCa19WYYA5dkHeS7JDwIrmEhKOeV6I8zu5hLGLIFOfwkDNCCZ8EdAewApaKTfzKx4QDTaL8oOXf6W8i/0yQVD4u3pxeQLBIS+Q1mmRs5IKpKRF32JMl3UbCDPuC4jjXIkm/PeCKQ5uNY+qnY+CjnIgBFNsC8zn0Q7yxrIYl1VZ0fM0VcBdb3ku1A1XqPXq52iaAogYXh5TNigqbrrbAymMIZasrNuzMjw3pohsGcENskzjgbZE2jba5BlasT0v6kJChMbmp2Yj6HkAk2idluXZ8iu+mGiIAhoFZwAldbkMXmujWCzvzUCaTbCjRyf/QQl0PE/GoiFf7jIDx3siIAqNqoWeDXalBxwpGIfbPRXtp8hsHcEVJ4xUYEsCyZJb0QQzvVuaMXadiLPJTleP9KbA+79Wu0Ie0LACGRP8B3Ajzc6CzvRxocDOLGdwhBoAgIbImzy3AR0D/yQOuc98LPaCQ0BQ8AQMATaHgEjkLZ/hHYDhoAhYAi0BgEjkNbgbmc1BAwBQ6DtETACaftHaDdgCBgChkBrEDACaQ3udlZDwBAwBNoeASOQtn+EdgOGgCFgCLQGASOQ1uBuZzUEDAFDoO0RMAJp+0doN2AIGAKGQGsQMAJpDe52VkPAEDAE2h4BI5C2f4R2A4aAIWAItAYBI5DW4G5nNQQMAUOg7REwAmn7R2g3YAgYAoZAaxAwAmkN7nZWQ8AQMATaHgEjkLZ/hHYDhoAhYAg0FwGuUZTHwl6VzQikEhH7bAgYAoaAIbCBABftInmksbAdiaS8GYGUo2HvDQFDwBAwBDYhQAIhecxjbfsCVpcsb0Yg5WjYe0PAEDAEDIFNCFDrIIn4sVR2ZTMCqUTEPhsChoAhYAhsIEACIXlEsNY9iaS8GYGUo2HvDQFDwBAwBLYg4MPa9uFwWLzezZSx+dOWn9kGQ8AQMAQMAUOgOgJGINVxsa2GgCFgCBgCdRAwAqkDkH1tCBgChoAhUB0BI5DquNhWQ8AQMAQMgToIGIHUAci+NgQMAUPAEKiOgBFIdVxsqyFgCBgChkAdBIxA6gBkXxsChoAhYAhUR8AIpDouttUQMAQMAUOgDgJGIHUAsq8NAUPAEDAEqiNgBFIdF9tqCBgChoAhUAcBI5A6ANnXhoAhYAgYAtURMAKpjottNQQMAUPAEKiDgBFIHYDsa0PAEDAEDIHqCBiBVMfFthoChoAhYAjUQcAIpA5A9rUhYAgYAoZAdQSMQKrjYlsNAUPAEDAE6iBgBFIHIPvaEDAEDAFDoDoCRiDVcbGthoAhYAgYAnUQMAKpA5B9bQgYAoaAIVAdASOQ6rjYVkPAEDAEDIE6CBiB1AHIvjYEDAFDwBCojoARSHVcbKshYAgYAoZAHQSMQOoAZF8bAoaAIWAIVEfACKQ6LrbVEDAEDAFDoA4CRiB1ALKvDQFDwBAwBKojYARSHRfbaggYAoaAIVAHASOQOgDZ14aAIWAIGALVETACqY6LbTUEDAFDwBCog4ARSB2A7GtDwBAwBAyB6ggYgVTHxbYaAoaAIWAI1EHACKQOQPa1IWAIGAKGQHUEjECq42JbDQFDwBAwBOogYARSByD72hAwBAwBQ6A6AkYg1XGxrYaAIWAIGAJ1EDACqQOQfW0IGAKGgCFQHQEjkOq42FZDwBAwBAyBOggYgdQByL42BAwBQ8AQqI6AEUh1XGyrIWAIGAKGQB0EjEDqAGRfGwKGgCFgCFRHwAikOi621RAwBAwBQ6AOAkYgdQCyrw0BQ8AQMASqI2AEUh0X22oIGAKGgCFQBwEjkDoA2deGgCFgCBgC1REwAqmOi201BAwBQ8AQqIOAEUgdgOxrQ8AQMAQMgeoIGIFUx8W2GgKGgCFgCNRBwAikDkD2tSFgCBgChkB1BIxAquNiWw0BQ8AQMATqIGAEUgcg+9oQMAQMAUOgOgJGINVxsa2GgCFgCBgCdRAwAqkDkH1tCBgChoAhUB0BI5DquNhWQ8AQMAQMgToIGIHUAci+NgQMAUPAEKiOgBFIdVxsqyFgCBgChkAdBIxA6gBkXxsChoAhYAhUR8AIpDouttUQMAQMAUOgDgJGIHUAsq8NAUPAEDAEqiNgBFIdF9tqCBgChoAhUAcBI5A6ANnXhoAhYAgYAtURMAKpjottNQQMAUPAEKiDQMME4qlzIPvaEDAEDAFDoLMQ8Ddyu/lCQRKZnCzF0yKBjPi8DfNOI4e3fQwBQ8AQaC8EPB4pTarXeOVr+u8297Bpz13uUzwGTivF8+lJtznW5s2RkF+Cft/mjTU+JdM5yeTyG3usJLOSzr75vPEF3tQlkGw2K/PLSUm/XJDf3nwlXd2r4jUCKcfQ3hsChkAnIsDRnK0meRR3aexfHq8OEW3sUmu/zWcrEkjjk/4ECCSbK+hBPLjHh/en5MXMqvB9ZatJIPl8XhYXF+Xp6wVZmvLIg/wdCUa6qh6o8sD22RAwBAwBQ6C9EfB5/TL/6pEsPpuTga38UVsDyWQycu2bb+T5i1nJdIckM70i/hCYSfWoxhmwvSG0qzcEDAFDoBMR8Ki1aXV2RXKJtAyFtjJITQ2EkPlhO/P7vLKGv6EA3gd9sP1RHTIC6USRsns2BAyBTkEAfh64KzJ+v6zhb7URvyaB+H0+GR0bk7HlvPj6e+Xk2VEJR2nCatye1ilQ230aAoaAIeA2BDwen0zFVuRlMiZry9Nbbq8mgfjAPIcPH5HlRFZGDo/J979zSrp7eqHWNO7R33JG22AIGAKGgCHQFghQWbh3OyO/WbolD24+3nLNNQmEexfyBYkhDOzYSLe8e2pknUBMA9mCpG0wBAwBQ8B1CHjEt9ov9/qi8qDKvdUlEP7GC9+JH/8wljgMP4gXpi1rhoAhYAgYAu5HIIgx30c/eJVw5YZUCTpPyl/uh8zu0BAwBAwBQ4AIkDiqkQe/a4hAuKM1Q8AQMAQMAUOgHAEjkHI07L0hYAgYAoZAwwgYgTQMle1oCBgChoAhUI6AEUg5GvbeEDAEDAFDoGEEjEAahsp2NAQMAUPAEChHwAikHA17bwgYAoaAIdAwAkYgDUNlOxoChoAhYAiUI2AEUo6GvTcEDAFDwBBoGIGGMtEbPprt2HwEkNRTSGf0tZbL4nysmIlXICDeSBjvUSVga9Xl5l+XncEQ2A0ClOdMVtYg02tYvI4Jy1y4yBOEPIdD4mHViyoLGe3mVPab/UfACGT/MW3eEZU80rJy/abEr9+SzLNnSAX1ijcWk8iZU9Lz8YcSHBwUD0rOWDMEHI/AOnnEb9+V+I1bkn7yRNawiJ03GpXomdPS/dH7EhwexuTIhimnPkt7Mk59MpXXtU4eifuPZPnXv0GHuyGFVEa8wZCsFbAE5eRLKcTj0v+jH0pgoN86XSV+9tlZCEDVoCaduP9Aln75S0ncuiX5RBIaR0CoWWeeP5Ps/LwM/tVPJTA4gEmRDVXOeoDFq7Gn4sSnUuWa1gpr2sHiN29L4uZ1zNYegiSCSiCFdFJy89NSyGak68pl8XV3ic9mbVVQtE1OQWCtkJf8alwoz/Eb30jq8SOQBOQZpthCKiHZ2UkQTFK6P3hXfF2QZyMQpzy6TddhBLIJDud+0A4HDSN17z5mZjOwG6+KZDwgFVwztBNJeCT91CvZ5WUJ5XLOvRG7MkOAIgtTVW51FcTxGPKMyU9qCVu9kqf/jvKM9xlo1ZmZWQlhTSIfzFrm2wMsDmtGIA57INteDjsVOl0hFRdR5zk7WV77GlyOeM+AOqxXr51v26PYF4aAsxCgw1yvCLIL+WXV1+KS2di6RnlPK9k466LtakoIGIGUkHD4X0ZXcRYWnjgFTeOx5ONJRKkg6ooqfxzaCPjE3zNU3AbHujVDwMkIcK1tH6IGgyOjcJp3w3TVhSjCKKKvQhvyHBgYgROdMh0y7cOhD9MIxKEPpvKyPFjQhdFWsbcuSeb1JIgD5OEPKIHkV5a1k0XOnV93oAcqf26fDQFHIaAEEotK5OxpTIjOIVIXYbsBhO2GwvCNLIFMIhK7eElCh8bEh4mSNWciYATizOey9aqg6jPPI3rhrOSTCfEPj0oe/g7q/2tYdjg4Nipdb1/GjG4YjnUjkK0A2hZHIcDwcyWJc9Cmi/JcgFOdYelrhYKExg9J1/vvSQAaiIXxOurJbboYI5BNcDj7g87aerql+/13JHTksKRfvdbIK39fr4RGoe6PjIA8gpZ45ezHaFe3jgCTBP29vdKDfI/wiWPQrKfU58FtoUOjOinSyZAlEjpWZoxAHPtoql+YkgjCGkPwfQT6+zFby0PtD6k92Yu/1gyBdkJASQSTIm8oiCTYASnkkEiI9z5oJ/xrzdkIGIE4+/lUvTp2OjrUNbSx6h620RBoHwRMntvnWVVeqYXrVCJinw0BQ8AQMAQaQsAIpCGYbCdDwBAwBAyBSgSMQCoRsc+GgCFgCBgCDSFgBNIQTLaTIWAIGAKGQCUCRiCViNhnQ8AQMAQMgYYQMAJpCCbbyRAwBAwBQ6ASASOQSkTssyFgCBgChkBDCBiBNAST7WQIGAKGgCFQiYARSCUi9tkQMAQMAUOgIQSMQBqCyXYyBAwBQ8AQqETACKQSEftsCBgChoAh0BACRiANwWQ7GQKGgCFgCFQiYARSiYh9NgQMAUPAEGgIASOQhmCynQwBQ8AQMAQqETACqUTEPhsChoAhYAg0hIARSEMw2U6GgCFgCBgClQgYgVQiYp8NAUPAEDAEGkLACKQhmGwnQ8AQMAQMgUoEjEAqEbHPhoAhYAgYAg0hYATSEEy2kyFgCBgChkAlAkYglYjYZ0PAEDAEDIGGEDACaQgm28kQMAQMAUOgEoG6BFJYWxP8b80QMAQMAUPAENiEQE0CKRQKsrS0KOl0CiRiLLIJOftgCBgChkCHI+Cvdf/ZbFaePXsmJBIjkFpI2XeGgCFgCHQeAjUJJJ/Py8uXLyUWiwnfWzMEDAFDwBAwBEoI1CSQYDAob731lsRX4+Lz+Uq/sb+GgGsQKBTWJJXNSSqTl0yuILl8QdLZvL6yVSZNHty51+MVv98roYBXAugXoUDxFeRfv0883MmaIdABCNQkkEAgIKdPnZZnz5+J11vTXdIBUNkttjMCDAbJgiAS6awkUiAMkEQOnxEi8oYw8Jn7JTM53UZy8Xo3swE9gTTn+tEfwkEfyMSDv34J4X3Q55UgCQS/CeA9t3eFA7qfH5+tGQJuQ6AmgXjQOSLRiJBI+N6aIdAuCDDmQ0kDGkV+XauIJ7MyvZiQqcWkzK+moHXkJABNwu/zKBFQs6A2Qc3Dg/9IEEoI66JP8siTYNLQVqC1UFPhX/YN/Q7nyeXX9HMk5JeB7rAcGojJQFdI+JkkUjyfV8/XLljadRoC2yFQk0C2+5FtNwScjkAWg/lyPC1PppflxcyqLIIwqIFEQgEljAi0g/6usA7ssbBfIiALkkc4iO+hQdAcxX0qNRDoHyCOAsxdRQ0mqaavIpmk0jmJ41Uyg5Gsns+ugqiyes7h3oicOzIg4wNd0h2xSZnTZciurz4CRiD1MbI92gCBkolqcj4urxfiMrOUlJVEBtoztAq/X8agCQShbXRHQxIDiVAjIElQ+6C5yYe/PpilSB7UKHz4u53ZKRxYU02EJq68vqDl8C9Ii8SFoEWQTE5WoPGspDK4jiy0lqykQTY3n87JzSdzIJCgjA924RWTLpAJfSmm5LeBoNklbkLACGQTHPahnRAgaeRhMlpOpGV+JQXSSMnschI+jqyaoWiSopYx0heV3mhwQ8MIgzhoSiJJ7KZRK/HCxCU14kpKWggd9DR5rYJMluIpXGdaFqANxVMJXHdGXoHwqJkM9USkvzskvDYSmZHJbp6M/eagETACOWjE7Xx7RoDEQV8DZ/lLqxl5NrMsD14tyYvZFTUNnTzUK8dHBmWoNypRNU/5VcvY84l3cABqL3zF4ESXbvhjoKFkoJ0w2ouE93JuVe6/XJQ7LxakPxaSYyM9MjHWA7KLQCMpkh0d9EYkOwDddj1wBIxADhxyO+FeEKBznFFUM0sJeTy1JDeezONwa+qs/quPJmSwJ6wDcDgA0oCWwQHYCQEg1FpCnmKkVhdIbRAO9lNjfdBMQIDTK/L49ZKatw4PxeT80X4llAFoTyQhI5G9SIz9tpkIGIE0E1079r4hQB9DEg7qaRDHIwy20wsJzds4Mdojo5i100w1BFMQiYOmKYbS7s5AtW+XvOVAJTKj+YtmqhCutTcWVC2FZqzXuCfe362n89CmVqFF9cjhoS7pg4ZCB781Q8BpCBiBOO2J2PVsQYDEwbDbybm4PJ9bUX8Cnd1H4IQ+c7hP/Qd0im+NmNpyKMdsIJnQge+H85zk1w+NhE71x1OIGptdVv/IPZi4FlbT6mgfgTmOZOOjRuKYu7AL6XQEjEA6XQIcfP/0G6QRLvsKUVWPJpfkEfwcSYTEnoOJ5+LxQTk62N1WpLEd1CQTRogF4UTv7x4GKfbKQ9zv1YezcuvZvExBM6F/5Mx4H6LIgmqao3/EmiHQagSMQFr9BOz8VRGgyYqRS9cez2guB5P+aKK6MnFEZ+x0TreTxlH1JrfZyHu7cHRAjg51IzgAjvbn8/L1g2lEbK3KlRNDqqmoc36b39tmQ+CgEDACOSik7TwNIxBHGO5LmKsewITDnI7uaEBOjvXqgEpfAf0BbiUPgkTtgvdIB/rZI33qI2GEGUOUv340I3MIWT4B/8hof9QRAQINP1jb0XUIGIG47pG27w0xPJdax1P4AegLoKOcuREkj2Mj3YiwirTvze3iyhkMoNnyyIin/+MJMHkOIqE5L55ExjsyFofhG6H5ywmRZru4RftJmyNgBNLmD9Atl0+TFQsdPpxc1CikVWghh5Gl/e7pEXWSd3IUEosyHoE5iya8XkRkXX04g/yReVkFXh8AH4YuM6LL3CJu6Q3tcx8tIZDS4lQ2a2ofQWnmlVIeWKvqzvMF+ePdSRnAgHh5YkjOH+nXkh805XR6IzkwS/0cos5iiDhjAiKTJ9PwDb19alhDfvm9NUPgIBFoCYEYcRzkI3b2uUgerFt17+WCEshhzLRPI5Ocmdmcbe+23Iiz73p3V8d+E4I2cgjhvn6UjWfG+n3ihkitLAo8ngJurCBs/Wt3+Nqvdo5ASwhk55dpv3AjAnnY8JfiGZDHojxHxVzmclxGeC6T51hs0M2O8r08zyhwonmPmkgW5Vwm4StikUaaAM8jeosRWka8e0HYftsoAnVtA5whbrxQy0dLjbLcKLZbMwR2i0ApTPcuyOMuTFf8/MHZUTmNXAdqHkYetZGlWY+mvk8ujiMTP6p1wH557TnKoiwrkVj3rI2ffbs/CNQkkAKIYn5+XhLLK5JbXpXs3LzkllYkn0hIIZMBmdg66fvzGDrvKEtYq4NJcn+8/Ur6sODSB2dGZWKkF0lyZsdvVBoY7kutjcT74dkx/Mwjf7g9qVFsTMC0Zgg0G4GaJqx0Bp381i1Jzy/IRCgsq9eui7+/X/zRqHixXrqHaxhgAR4vViz04ntfV1T8PT3iQUSIhYQ0+9G17/G50BJ9HndfLMqx4R65cGwAUUZdWJ+j5nymfW+4iVdOEunFGidnEXBAR/uNJ7OKLT9Qm7M12psIvh1aahLIGswKqVRK8rkclI28FNJpyUMDWUum1YS1lssqUXiwYI83FBJ/DATS2yte/PXFYnjhL5bEhT3CoDYEdIlZ5nmQPJ5MrehysSxJcmS4S9cON4h2hwAXwxqCOSvoHxSuiji5GFfnOhfKYrHJ8mV5d3cG+5UhUB2BmgTCtdCPHTsmi7OzEj40JpEzpyXkQ7w5yCQfT8CstQwyScEtksT6DIuoW5TjQtTi6+mW4PCQBMdGJTg6It5IWLUU1UyqX4dtdTkCtMlzDfEnKMHOEFTOnL914ZCcPFQc4Fx++02/PfpEaAr8GJj+/tYreYoS8dncjPqTWDqepe2tGQL7jUBNAvHBRDU8PKKRHsHBAYlMHJdYd49GeFA7UYc6newgjhz8JOnXU5J+9VoKyYQknz6T5IOHWLXNL+ETxyR6+qSEjoyr2Wu/b8KO53wEuIb4zGISeR5Taqo6e7hfJjA75izZ2v4gQFLm8rhXkENDQmENrRtPZ+Uy6mfR0W7NENhvBGoSCE9GEvFyiU28ir4OhFdi26YGZ7s3EhFfd5eExg+BQFKqnWRn5yS7sCiZydeSgwPef78PWswpCY4Miw/7W+sMBLhW+NR8Qr5BYcQ1yMrEaL+WJ2Him+Us7K8MkERY8oXVe1lTjGVhuhHWSzNWPzQUa4bAfiJQl0CK4bp1QnZJLmGEXuIVGOiHRgITFyK1ciCKLBzwmekZjeBKPX+ppq/Q4XElmsDQgJKSOdz385E671iLiLh6NrMir7CM61H4O06wrhXMKkYezXlWLPsy0heDEz2vBRi5OFU0FNC8EUa5gWOsGQL7gkB9AtnFaTwQUj/8IHyFYbbKrazCvDUtqSdPJX7ztqRBJOGJE9J1+aIEhgbVAe8xU8YukHb2T+j3yEH7eIYkwRdYCMoPO/yFY4Najt3KkzT32cWwbO6x4W55jYi3ZwhYePR6WXGns52LUlkzBPYDgaYQyKYLg3ZC01YkjIJvo8MSOTUhidt3JfX4CXwkD6T3e99R34q/F+G/2NeaexBgpjnXLn86s6yVYxlxNQxbfNBqNjX9IdOUFYXp6r1TI6jcm5UFlIBnocruCPog+plpIU1/BB1xguYTCGAkMTBfhOG+YYT7+pBDEujvk+STZ7Ly2ZeSg6+EvhE62b3Yx6S7/WWPqwnGUzmtb7WMZVlpl+eKehHUcuLgZq35CLCcSQ9WMGQ5/Ad4HiwDf2ggJmN48TlYMwT2isDBSREGDQ/i1T0I6aUPxNfVJV5oJvFvrkv6xUspZLMazUUnPMN+TRvZ66Nt7e9TCNml9sHSGjFEBh2FOWUAfg8jj4N9LiQRJmky/+Y6ilYyjJrkEepz96JcB4ty556tNTYj2GD9/b3SdfG89P/oB+Lv61GT1vLnXyEM+JU64BmtY609EeDCUMsJOM6RixBP59UWz6ggI4/WPE/WFhtH8UWuJ0JfyBT8IlbqpDXPop3PWi3opTUEQhSpkcBcFRwbkd7vfCKxC+ck8/yFLPzi15K491CjtdoZ7E6+9gy0j9fzWJL21QI0j5it4d1iYaDFcATL3759cljmllPyElFZXH+FRVKtGQKNIFCNPPi71hEIz75OIgz9jZ47K93vvSMFhP8yUitx74GWTrGqvwSqfRoHpQX4PDjLZR4C/R5mumr98wshAo6h06cO9ck8ns9jaCKsgGwU0vpn4/QrIHnkkCyeTCaRO77ZMtRaAllHzoOSKUwujF2+JJGTEyCRpCQfPZbUsxdSSBXrbjkdZLu+YoV/Dkqc4c6vpDXiamwAEXioGGuttQhwEIiEfHLx+IBGxDE3ZCmR2TIgtPYq7exORSCP8lUkkEqt1REEQtAYpRUYHoQ561sSPnpY8otLsnr1mmRQTl5LxzsVWbuuDQQoXAkU83uM7Gf+vTIxggQ2i7raAKjFb7S4InxR3QhqWE5mNMAhm9s8o2zxJdrpHYgAJx/s2ySRyuYYAuGFsTy8H+G9XW9fBokcQcLhc1m9cRvZ7Iu2gFXlk3Pg5yySBp8j43wZmeccpOg4tyJ+znlQHAhY3v3s4QFUPw7KZ6hLlsSa6pWzSudcsV2JExCgfASRetGPpTxY1qq8Oc62QBJhiZMIii/mUUo+jez1AJIMfQjtZal4rJljzYEIUMjSGIxuo4Afl1RlGfGo5Xw47kkxEo65IFMLcSV7mhsD6HMswmjNEKiGAPs2ayKGkMPHSUh520wn5d+08D3XFgmifHz0/DnNB2GeSGo9V8Sc6i18MDVOnYPvYxVO80lEX/V1hZF70G3L0tbAq5VfUTsc7otgIaqgln1nyLU1Q6AWAiQOkkhlcySB8CK5EFUEvpDI6VNYRncZZU8eFdcfqYgCqLwh+9waBFLQPmaWGaWxhqirkPTjVTFZac2F2Vm3IEBfyBAqA5yAiZEayFI8Y2asLSjZhkYQcCyBaIgvqvt2vXNZVzbMTKEY4+Onssa12KFSWXMWArPIcqb56jCq7bJsSdAK9jnrAZVdjRfZ6d2RoBZXXEA+yEI8JawcYM0Q2CkCziUQ3Ik61VHRN3rujPhR9mT1m2soC78ga1msfGjNMQhQ61hGSOhrrPnBhYtoGql0tjnmYu1CFAGWfB+AqZHFLReRF8LET2uGwE4RcDSB8GZIIuHjx+ATGZUcFqdibkhudXWn92n7NxGBOEJ26f9go2mEeR9mvmoi4PtwaJbT7wbRHx7ExAzPjomf1gyBnSLgeALhDTG0N3TkMKKzhrQEPFc31OV0d3q3tn9TEJiF74OD0FAvtQ8sKoZQUW1maWwK3vtxUBZZZI7OKEqcMBdkCaHX1CStGQI7QaAtCIQRAMFhZKq/dRHFFiclMzen1Xt3cqO2b/MQmJxnbaW0jMEc0oUQXj8GpzUMRpp4ZGNS84Df45EZ0svwXR+qZNMHsoKKvUYiewS1w37eFgTCZ+JFVFZobFRzQZhYmJma6bBH5czbZYz4CvwfWSxjzOirYABrv4BACmsFrEaIJDWrtuTMB8c+hd7P9dL5ykELeYlVI3MW5ejY5+XEC2sfAkHlXn9Pj4RPHJc8wnqZG2KttQiwbHsS/o80Zq8a2RPFbJaLh+GyqDWaI721z6fe2fmMqIGw3DuJnkEQ+bypjPVws+/fINA2BIJprXixLG7kzGkUWESGOkxZa6gQaSG9bx7mQb+juWMOS6UyiTAMe3q585zkEUCRTA5S1pyJAE1YXFyKqxaS+FlFmcUwrRkCjSLQRgSCW0JJ6kA/yprAnMUqvemXIJEqBb4avXnbb28IcLBhHgEHoh7kFURDRhh7Q/Tgf61Ej4gsrM4jTAalVmnNEGgUgfYhENyRmkWghQSGBnUxqtTzl5YT0uiTbsJ+JJDpxWKJZzrPi7WvmnAiO2RTEQggJ4RFL+n/4BouVqG3qXC76uBtRSBMLvAGQ+IfBIHAPMLlb9fgqLXWGgRowlpYxZoSmLSGYQoJInzXTFateRZ7OWsYBMLEQiofDIjIICDCmiHQCAJtRyCeAJzpqM7L5XBzs7NFP0gjd2r77DsCNHekURWAbg6SBx3p1toPAZJ/FBokTZErKUbU2Roh7fcUW3PFjivn3ggM3hBKZcDezgjRQhqF4OAHYca6tYNDgORBDSSAHALOYPdz3Q+GBrOVtBl+Lm0r387vS0tslvYt/dUD4J9qvyt91y5/y++B11x+j+XfleNRujduK9+/tL38L31XLD8TjfiFa7qYI70cHXtfC4G2JBAPFjfxxWLiQdn3HFYu9HV1acHFWjdq3+0vAjmEexYXIypqH0HY0PerVQ54lZ95ntK20t/ybeXXUf59+fZ2es97IFFUu5fKbfU+V7tvPjtqkEjdkdVkTjIWmFINJttWBYH96/VVDt6sTV4QiDca/f/bu9LdpoEg/Dm10yQN5SogEIeg4pCQ+gAVj8Hr8gIggeBHBYUC4ehBmzZOYjt1YptvNjhq3YZWspvE1lpqnfhYZ78dz8zOtSqsV0q9h4d6PYOLwnpcuwEdrnH+hyQPZjkDOe2ZwhiP/sXXnHYsPlekfVIwjOvbUTzOe4+E8Eo2uggpyevRuSDj0NXHkwjkUoCIH0RWKJyTGYjjMBJrWMgv2Tn9/eIQEPOVmDvE7yHaqxTn01s+EaBsVv4PplqxekCoy5nkcxin8qtz+daXTDr8rDIiMi8xYekZyORpR5IH3cOADCci86EGSy1Wb/lGQHJBZBhFoOhNI3AeBM72gZCYQr+vVgU83NqB73okMtpLz9P6BV1j0HzSt20EDksvcAbib22rsN5/vtcLeqpuNkZAREWPy6A6XM2u3+Y4VHwEVg9+R0piqNiG+NJ87tmJUpllWZiwKn62Ls06Ktue0UrzBoMHXFclskYFqRslwXODpscVP7sMRjHQ3y0xlNdR4dn5HMBsfrUE5pSXrs18gI5Soj1v1OmYDyo9IKEMyDl5R+Xw8Lz8pxJYrcK8cnnURkA+L+1KZF5/dw9B9/T1Ys4WIGwyaLXgfvyEVq0OLNSooUxf2ww6HeaBbCOUtUE8F9an9WMRNyMk9IfMEZDRb/Uj2N0Bekw8cxtz6NRMROKIFerM+8ZOWDdvwnr6DJulGr7tOSpgYOlSBU+ulmH9aiDc/A2hwSKo6yJAWJEfjg1Y8rnB8a1QcSzCWKagRREgVi4ECP3AxwTIcOBENCTp81jU3pHzQwGyOEIrFiBiWeh8/4Ze48fwXGJ6erYAURJoF90/a2hubMCnZiaFD6ZKW4KMcCqphcWIEW/tAxdRLwjzGg3h7H6gkooW5nFgcDGiuQraYRvN0IWHYDgDmSpxZIAbaWthZQXmfB2v7Apef91Dm+tl3F+q4+Xza7jx/i2Md2+owMhLNX1lKm2PxZ6wX6qjbS7BZCjWftiEFToIIsWC0jav788pAhKEYZIE9mUCQSUdd+6c6MnZAoS3hHRSB70uBl5Ens2EsYQUOtHqpA7EBC4VRDWtTwp1JSSCsELZzXLtVo1O1wOKDpYCL0n59iJszIXwqdUxSfLLZguN7Q5cJtgZVMk3b7Fki91F1aXpzpMlBYTw8k58XLsFhxw7UznQB6UmBhzPMPf9KgItTrkP5PVBj+bMPmO8T+H7Bqc0Y9953/exvr4O++cv1DwHt2kDZsTmzLwww9dWZkNjuzBl9Iv5eMHdj+bgRGX0SibqkY8qfGorRRkJmrCu3wDuPsKaTY1cqtRSSZEV/B7ShLVo78E82KUAac/Mu5CG0uQN8lDmrJI+H7KDK4aHCvo8mnfBmAYVfa8gIObNFots7pDFtuuLeLG6ihpTKOLtvwIkvkjvNQIaAY2ARkAjkEQg/wbcZI/0d42ARkAjoBGYCALGg3vLM23/WX78ABufGxMBo4gP0filG1WNn8YvHQLp7p51+lNO9J6XTSmQSnVeoZVVezH0WbWX9e+b9fY0fjEC6faa/jR+50Ega34QP3OW6e8v+WbYhiY5i58AAAAASUVORK5CYII=;" parent="49" vertex="1">
                    <mxGeometry width="212.12" height="210" as="geometry"/>
                </mxCell>
                <mxCell id="44" value="Agent:&lt;br&gt;Team&lt;b&gt; B&lt;/b&gt;" style="text;html=1;strokeColor=none;fillColor=none;align=center;verticalAlign=middle;whiteSpace=wrap;rounded=0;fontColor=#000000;rotation=0;" parent="49" vertex="1">
                    <mxGeometry x="130" y="160" width="80" height="30" as="geometry"/>
                </mxCell>
                <mxCell id="45" value="Offense" style="text;html=1;strokeColor=#A50040;fillColor=#d80073;align=center;verticalAlign=middle;whiteSpace=wrap;rounded=0;fontColor=#ffffff;rotation=0;" parent="49" vertex="1">
                    <mxGeometry x="60" y="180" width="80" height="30" as="geometry"/>
                </mxCell>
                <mxCell id="46" value="Defense" style="text;html=1;strokeColor=#005700;fillColor=#008a00;align=center;verticalAlign=middle;whiteSpace=wrap;rounded=0;fontColor=#ffffff;rotation=0;" parent="49" vertex="1">
                    <mxGeometry x="60" width="80" height="30" as="geometry"/>
                </mxCell>
                <mxCell id="47" value="" style="shape=flexArrow;endArrow=classic;html=1;strokeColor=#CC0000;strokeWidth=6;" parent="49" edge="1">
                    <mxGeometry width="50" height="50" relative="1" as="geometry">
                        <mxPoint x="100" y="170" as="sourcePoint"/>
                        <mxPoint x="101" y="80" as="targetPoint"/>
                    </mxGeometry>
                </mxCell>
                <mxCell id="48" value="Agent:&lt;br&gt;Team&lt;b&gt; A&lt;/b&gt;" style="text;html=1;strokeColor=none;fillColor=none;align=center;verticalAlign=middle;whiteSpace=wrap;rounded=0;fontColor=#000000;rotation=0;" parent="49" vertex="1">
                    <mxGeometry x="130" y="30" width="80" height="30" as="geometry"/>
                </mxCell>
                <mxCell id="50" value="Defining agent posture for Team A&lt;br&gt;@ T-1 to T" style="text;html=1;strokeColor=none;fillColor=none;align=center;verticalAlign=middle;whiteSpace=wrap;rounded=0;fontStyle=1" parent="1" vertex="1">
                    <mxGeometry x="95" y="250" width="235" height="30" as="geometry"/>
                </mxCell>
                <mxCell id="51" value="" style="endArrow=none;html=1;" parent="1" edge="1">
                    <mxGeometry width="50" height="50" relative="1" as="geometry">
                        <mxPoint x="80" y="430" as="sourcePoint"/>
                        <mxPoint x="610" y="430" as="targetPoint"/>
                    </mxGeometry>
                </mxCell>
                <mxCell id="52" value="Offense" style="text;html=1;strokeColor=#A50040;fillColor=#d80073;align=center;verticalAlign=middle;whiteSpace=wrap;rounded=0;fontColor=#ffffff;" parent="1" vertex="1">
                    <mxGeometry x="160" y="340" width="80" height="30" as="geometry"/>
                </mxCell>
                <mxCell id="53" value="Offense" style="text;html=1;strokeColor=#A50040;fillColor=#d80073;align=center;verticalAlign=middle;whiteSpace=wrap;rounded=0;fontColor=#ffffff;" parent="1" vertex="1">
                    <mxGeometry x="250" y="380" width="80" height="30" as="geometry"/>
                </mxCell>
                <mxCell id="54" value="Defense" style="text;html=1;strokeColor=#005700;fillColor=#008a00;align=center;verticalAlign=middle;whiteSpace=wrap;rounded=0;fontColor=#ffffff;" parent="1" vertex="1">
                    <mxGeometry x="160" y="380" width="80" height="30" as="geometry"/>
                </mxCell>
                <mxCell id="55" value="Defense" style="text;html=1;strokeColor=#005700;fillColor=#008a00;align=center;verticalAlign=middle;whiteSpace=wrap;rounded=0;fontColor=#ffffff;" parent="1" vertex="1">
                    <mxGeometry x="250" y="340" width="80" height="30" as="geometry"/>
                </mxCell>
                <mxCell id="56" value="Same Team" style="text;html=1;strokeColor=none;fillColor=none;align=center;verticalAlign=middle;whiteSpace=wrap;rounded=0;" parent="1" vertex="1">
                    <mxGeometry x="160" y="310" width="80" height="30" as="geometry"/>
                </mxCell>
                <mxCell id="57" value="Different Team" style="text;html=1;strokeColor=none;fillColor=none;align=center;verticalAlign=middle;whiteSpace=wrap;rounded=0;" parent="1" vertex="1">
                    <mxGeometry x="250" y="310" width="80" height="30" as="geometry"/>
                </mxCell>
                <mxCell id="58" value="Offense" style="text;html=1;strokeColor=none;fillColor=none;align=center;verticalAlign=middle;whiteSpace=wrap;rounded=0;" parent="1" vertex="1">
                    <mxGeometry x="90" y="340" width="80" height="30" as="geometry"/>
                </mxCell>
                <mxCell id="59" value="Defense" style="text;html=1;strokeColor=none;fillColor=none;align=center;verticalAlign=middle;whiteSpace=wrap;rounded=0;" parent="1" vertex="1">
                    <mxGeometry x="90" y="380" width="80" height="30" as="geometry"/>
                </mxCell>
                <mxCell id="60" value="Event/Decision Owner at &lt;b&gt;T&lt;/b&gt;" style="text;html=1;strokeColor=none;fillColor=none;align=center;verticalAlign=middle;whiteSpace=wrap;rounded=0;labelBorderColor=default;" parent="1" vertex="1">
                    <mxGeometry x="160" y="290" width="170" height="30" as="geometry"/>
                </mxCell>
                <mxCell id="61" value="Team&amp;nbsp;&lt;b&gt;A&lt;/b&gt;'s posture @&amp;nbsp;&lt;b&gt;T-1&lt;br&gt;&lt;/b&gt;" style="text;html=1;strokeColor=none;fillColor=none;align=center;verticalAlign=middle;whiteSpace=wrap;rounded=0;labelBorderColor=default;rotation=-90;" parent="1" vertex="1">
                    <mxGeometry x="10" y="320" width="170" height="30" as="geometry"/>
                </mxCell>
                <mxCell id="63" value="" style="endArrow=classic;html=1;startArrow=none;" parent="1" source="66" edge="1">
                    <mxGeometry width="50" height="50" relative="1" as="geometry">
                        <mxPoint x="360" y="390" as="sourcePoint"/>
                        <mxPoint x="590" y="390" as="targetPoint"/>
                    </mxGeometry>
                </mxCell>
                <mxCell id="67" value="" style="endArrow=none;html=1;startArrow=none;" parent="1" source="64" target="66" edge="1">
                    <mxGeometry width="50" height="50" relative="1" as="geometry">
                        <mxPoint x="360" y="390" as="sourcePoint"/>
                        <mxPoint x="590" y="390" as="targetPoint"/>
                    </mxGeometry>
                </mxCell>
                <mxCell id="74" style="edgeStyle=none;html=1;" parent="1" source="66" edge="1">
                    <mxGeometry relative="1" as="geometry">
                        <mxPoint x="510" y="330" as="targetPoint"/>
                        <Array as="points">
                            <mxPoint x="475" y="330"/>
                        </Array>
                    </mxGeometry>
                </mxCell>
                <mxCell id="66" value="" style="ellipse;whiteSpace=wrap;html=1;labelBorderColor=default;" parent="1" vertex="1">
                    <mxGeometry x="470" y="385" width="10" height="10" as="geometry"/>
                </mxCell>
                <mxCell id="69" value="" style="endArrow=none;html=1;" parent="1" target="64" edge="1">
                    <mxGeometry width="50" height="50" relative="1" as="geometry">
                        <mxPoint x="360" y="390" as="sourcePoint"/>
                        <mxPoint x="470" y="390" as="targetPoint"/>
                    </mxGeometry>
                </mxCell>
                <mxCell id="71" style="edgeStyle=none;html=1;" parent="1" source="64" edge="1">
                    <mxGeometry relative="1" as="geometry">
                        <mxPoint x="410" y="270" as="targetPoint"/>
                        <Array as="points">
                            <mxPoint x="395" y="270"/>
                        </Array>
                    </mxGeometry>
                </mxCell>
                <mxCell id="64" value="" style="ellipse;whiteSpace=wrap;html=1;labelBorderColor=default;" parent="1" vertex="1">
                    <mxGeometry x="390" y="385" width="10" height="10" as="geometry"/>
                </mxCell>
                <mxCell id="75" value="Event&lt;br&gt;@ T-1" style="text;html=1;strokeColor=none;fillColor=none;align=center;verticalAlign=middle;whiteSpace=wrap;rounded=0;" parent="1" vertex="1">
                    <mxGeometry x="355" y="395" width="80" height="30" as="geometry"/>
                </mxCell>
                <mxCell id="76" value="Event&lt;br&gt;@ T" style="text;html=1;strokeColor=none;fillColor=none;align=center;verticalAlign=middle;whiteSpace=wrap;rounded=0;" parent="1" vertex="1">
                    <mxGeometry x="435" y="395" width="80" height="30" as="geometry"/>
                </mxCell>
                <mxCell id="77" value="Offense" style="text;html=1;strokeColor=#A50040;fillColor=#d80073;align=center;verticalAlign=middle;whiteSpace=wrap;rounded=0;fontColor=#ffffff;" parent="1" vertex="1">
                    <mxGeometry x="420" y="240" width="80" height="30" as="geometry"/>
                </mxCell>
                <mxCell id="78" value="Defense" style="text;html=1;strokeColor=#005700;fillColor=#008a00;align=center;verticalAlign=middle;whiteSpace=wrap;rounded=0;fontColor=#ffffff;" parent="1" vertex="1">
                    <mxGeometry x="420" y="270" width="80" height="30" as="geometry"/>
                </mxCell>
                <mxCell id="79" value="Offense" style="text;html=1;strokeColor=#A50040;fillColor=#d80073;align=center;verticalAlign=middle;whiteSpace=wrap;rounded=0;fontColor=#ffffff;" parent="1" vertex="1">
                    <mxGeometry x="515" y="289" width="80" height="30" as="geometry"/>
                </mxCell>
                <mxCell id="80" value="Defense" style="text;html=1;strokeColor=#005700;fillColor=#008a00;align=center;verticalAlign=middle;whiteSpace=wrap;rounded=0;fontColor=#ffffff;" parent="1" vertex="1">
                    <mxGeometry x="515" y="352" width="80" height="30" as="geometry"/>
                </mxCell>
                <mxCell id="81" value="Stoppage" style="text;html=1;strokeColor=#BD7000;fillColor=#f0a30a;align=center;verticalAlign=middle;whiteSpace=wrap;rounded=0;fontColor=#000000;" parent="1" vertex="1">
                    <mxGeometry x="515" y="321" width="80" height="30" as="geometry"/>
                </mxCell>
                <mxCell id="82" value="Event Sequence" style="text;html=1;strokeColor=none;fillColor=none;align=center;verticalAlign=middle;whiteSpace=wrap;rounded=0;fontSize=10;" parent="1" vertex="1">
                    <mxGeometry x="485" y="385" width="140" height="30" as="geometry"/>
                </mxCell>
                <mxCell id="83" value="Time @ T&lt;br&gt;(Current)" style="text;html=1;strokeColor=none;fillColor=none;align=center;verticalAlign=middle;whiteSpace=wrap;rounded=0;" parent="1" vertex="1">
                    <mxGeometry x="245" y="500" width="80" height="30" as="geometry"/>
                </mxCell>
                <mxCell id="84" value="Time @ T-1&lt;br&gt;(Past)" style="text;html=1;strokeColor=none;fillColor=none;align=center;verticalAlign=middle;whiteSpace=wrap;rounded=0;" parent="1" vertex="1">
                    <mxGeometry x="125" y="500" width="80" height="30" as="geometry"/>
                </mxCell>
            </root>
        </mxGraphModel>
    </diagram>
</mxfile>